{"glyphs":{"0":{"ha":838,"x_min":28,"x_max":810,"o":"m 28 446 q 128 781 28 656 q 419 907 228 907 q 715 783 619 907 q 810 446 810 658 q 714 110 810 235 q 419 -14 618 -14 q 128 112 228 -14 q 28 446 28 238 m 269 224 q 419 140 318 140 q 618 446 618 140 q 419 753 618 753 q 269 671 318 753 q 219 446 219 589 q 269 224 219 306 z "},"1":{"ha":604,"x_min":28,"x_max":576,"o":"m 28 747 l 163 747 q 205 761 193 747 q 217 807 217 775 l 217 893 l 397 893 l 397 150 l 576 150 l 576 0 l 28 0 l 28 150 l 217 150 l 217 601 q 163 597 192 597 l 28 597 l 28 747 z "},"2":{"ha":799,"x_min":50,"x_max":749,"o":"m 88 169 q 181 295 125 246 q 303 390 238 344 q 426 469 369 436 q 523 542 483 501 q 565 625 563 583 q 565 633 565 629 q 528 719 565 686 q 415 753 490 753 q 344 736 374 751 q 301 704 314 721 q 282 660 289 688 q 275 629 275 633 l 275 613 l 82 613 l 82 633 q 88 674 82 642 q 106 733 94 707 q 141 793 117 758 q 199 851 165 828 q 290 890 233 874 q 415 907 346 907 q 660 832 572 907 q 749 626 749 757 q 713 498 749 554 q 619 401 676 442 q 500 326 561 361 q 377 246 439 292 q 283 150 315 200 l 749 150 l 749 0 l 50 0 q 88 169 50 92 z "},"3":{"ha":786,"x_min":28,"x_max":751,"o":"m 221 269 q 222 256 221 264 q 233 225 224 247 q 258 185 243 203 q 308 154 274 168 q 388 140 342 140 q 510 177 465 140 q 558 275 556 214 q 558 286 558 281 q 374 415 558 415 q 292 410 336 415 l 292 535 q 319 535 307 535 q 467 563 418 535 q 517 656 517 590 q 481 727 517 700 q 379 754 446 754 q 276 722 311 754 q 240 657 242 689 l 239 625 l 46 625 q 47 641 46 631 q 53 681 47 651 q 72 736 60 710 q 108 795 83 763 q 167 851 133 828 q 256 891 200 875 q 379 907 311 907 q 626 832 546 907 q 706 656 706 757 q 592 481 706 535 q 751 264 751 425 q 649 67 751 147 q 388 -14 546 -14 q 219 15 292 -14 q 111 86 146 44 q 56 169 76 128 q 31 240 35 211 l 28 269 l 221 269 z "},"4":{"ha":850,"x_min":50,"x_max":800,"o":"m 50 326 l 501 893 l 682 893 l 682 326 l 800 326 l 800 175 l 682 175 l 682 0 l 501 0 l 501 175 l 50 175 l 50 326 m 242 326 l 501 326 l 501 646 l 242 326 z "},"5":{"ha":847,"x_min":50,"x_max":796,"o":"m 232 290 q 233 274 232 285 q 242 238 233 264 q 268 192 251 213 q 323 156 285 172 q 414 140 361 140 q 558 188 508 140 q 611 318 607 235 q 611 326 611 322 q 556 457 611 408 q 419 507 500 506 q 410 507 414 507 q 301 478 353 507 q 226 390 250 449 l 56 390 l 135 893 l 731 893 l 731 742 l 282 742 l 256 578 q 446 633 332 633 q 450 633 449 633 q 691 551 586 633 q 796 318 796 468 q 693 76 796 165 q 414 -14 590 -14 q 281 3 340 -14 q 185 47 222 19 q 121 106 149 74 q 80 171 93 139 q 60 230 67 203 q 51 274 53 257 l 50 290 l 232 290 z "},"6":{"ha":789,"x_min":28,"x_max":760,"o":"m 28 413 q 49 602 29 518 q 112 758 69 686 q 231 868 154 829 q 413 907 307 907 q 558 885 494 907 q 654 831 622 863 q 706 768 686 800 q 731 714 726 736 l 736 692 l 542 692 q 538 699 540 694 q 526 715 536 704 q 504 735 517 726 q 467 752 492 744 q 413 760 443 760 q 317 733 358 760 q 257 672 276 706 q 226 594 238 638 q 212 530 214 551 q 210 496 210 508 q 217 507 213 500 q 242 532 222 514 q 285 563 261 550 q 352 588 310 576 q 444 599 394 599 q 672 516 583 599 q 760 307 760 433 q 760 303 760 304 q 660 76 758 165 q 394 -14 563 -14 q 126 101 224 -14 q 28 401 28 217 q 28 413 28 407 m 274 183 q 396 140 322 140 q 525 187 481 140 q 571 306 569 233 q 571 310 571 308 q 524 424 571 382 q 401 465 478 465 q 273 422 318 465 q 226 301 228 379 q 226 297 226 300 q 274 183 226 225 z "},"7":{"ha":740,"x_min":50,"x_max":690,"o":"m 50 743 l 50 893 l 690 893 l 690 754 q 655 726 676 744 q 577 638 633 707 q 478 490 521 569 q 399 278 435 410 q 364 0 364 146 l 168 0 q 208 246 175 126 q 293 459 242 365 q 392 619 344 553 q 493 743 440 686 l 50 743 z "},"8":{"ha":772,"x_min":28,"x_max":744,"o":"m 71 386 q 193 475 113 443 q 71 658 71 528 q 157 838 71 769 q 386 907 243 907 q 616 838 531 907 q 701 658 701 769 q 579 476 701 531 q 702 387 660 444 q 744 256 744 329 q 648 60 744 135 q 386 -14 551 -14 q 124 60 221 -14 q 28 256 28 135 q 71 386 28 328 m 263 174 q 386 131 307 131 q 511 173 465 131 q 557 275 557 215 q 510 375 557 336 q 386 414 463 414 q 265 375 313 414 q 217 275 217 336 q 263 174 217 215 m 285 569 q 386 532 319 532 q 490 569 454 532 q 525 658 525 606 q 486 743 525 708 q 386 776 447 776 q 287 742 325 776 q 249 658 249 708 q 285 569 249 606 z "},"9":{"ha":789,"x_min":28,"x_max":760,"o":"m 28 592 q 128 819 31 729 q 394 908 226 908 q 663 794 565 908 q 760 497 760 679 q 760 482 760 490 q 739 292 758 378 q 676 136 719 207 q 557 26 633 65 q 375 -12 481 -12 q 230 10 293 -12 q 135 63 167 32 q 83 126 103 94 q 58 181 63 158 l 53 203 l 246 203 q 256 184 249 196 q 296 153 263 172 q 376 135 329 135 q 472 162 431 135 q 532 223 513 189 q 563 300 551 257 q 577 365 575 343 q 579 399 579 386 q 572 388 576 394 q 547 363 567 381 q 503 331 528 344 q 437 307 479 318 q 344 296 394 296 q 117 378 206 296 q 28 588 28 461 q 28 592 28 590 m 264 472 q 388 429 311 429 q 516 472 471 429 q 563 593 561 515 q 563 597 563 594 q 515 712 563 669 q 392 754 467 754 q 263 707 307 754 q 218 589 218 660 q 218 585 218 586 q 264 472 218 513 z "},"­":{"ha":982,"x_min":28,"x_max":954,"o":"m 164 760 q 490 896 299 896 q 818 760 682 896 q 954 432 954 624 q 818 105 954 240 q 490 -31 682 -31 q 163 105 299 -31 q 28 432 28 240 q 164 760 28 624 m 47 433 q 178 119 47 250 q 492 -11 308 -11 q 806 119 676 -11 q 936 433 936 250 q 806 748 936 618 q 492 878 676 878 q 178 748 308 878 q 47 433 47 618 m 264 458 q 281 499 264 482 q 322 517 299 517 q 372 490 353 517 q 421 517 389 517 q 443 513 433 517 l 417 683 q 415 694 415 689 q 428 733 415 714 q 465 757 442 751 q 475 758 469 758 q 507 747 490 758 q 533 706 529 732 l 565 501 l 596 706 q 622 747 600 732 q 654 758 639 758 q 664 757 660 758 q 701 733 688 751 q 714 694 714 714 q 713 683 714 689 l 674 439 q 688 404 688 422 l 688 331 q 625 179 688 242 q 476 118 561 118 l 471 118 q 324 183 386 121 q 264 333 264 246 l 264 458 m 282 342 l 282 333 q 338 196 282 254 q 472 138 393 140 q 479 138 476 138 q 611 193 556 138 q 669 331 669 249 l 669 401 q 658 429 669 418 l 657 431 q 629 442 646 442 l 524 442 q 495 430 507 442 q 483 401 483 418 q 495 373 483 385 q 524 361 507 361 l 586 361 q 594 351 594 361 q 586 343 594 343 q 515 314 544 343 q 486 243 486 285 q 476 233 486 233 q 467 243 467 233 q 522 343 467 308 q 476 365 496 343 q 421 326 464 326 q 372 353 389 326 q 322 326 353 326 q 282 342 300 326 m 576 460 l 629 460 q 657 453 647 460 l 694 686 q 694 694 694 690 q 686 722 694 708 q 661 738 678 735 q 653 739 657 739 q 633 732 643 739 q 615 703 618 721 l 576 460 m 435 686 l 465 497 q 481 458 481 482 l 481 442 q 524 460 496 460 l 553 460 l 514 703 q 496 732 511 721 q 476 739 486 739 q 468 738 472 739 q 443 722 451 735 q 435 694 435 708 q 435 686 435 690 m 381 458 l 381 385 q 392 356 381 368 q 421 344 404 344 q 449 356 438 344 q 461 385 461 368 l 461 458 q 450 486 461 475 q 449 488 450 488 q 421 499 438 499 q 392 487 404 499 q 381 458 381 475 m 282 458 l 282 385 q 294 356 282 368 q 322 344 306 344 q 351 356 339 344 q 363 385 363 368 l 363 458 q 351 487 363 475 q 322 499 339 499 q 294 487 306 499 q 282 458 282 475 z "},"µ":{"ha":982,"x_min":28,"x_max":954,"o":"m 164 760 q 490 896 299 896 q 818 760 682 896 q 954 432 954 624 q 818 105 954 240 q 490 -31 682 -31 q 163 105 299 -31 q 28 432 28 240 q 164 760 28 624 m 47 433 q 178 119 47 250 q 492 -11 308 -11 q 806 119 676 -11 q 936 433 936 250 q 806 748 936 618 q 492 878 676 878 q 178 748 308 878 q 47 433 47 618 m 264 458 q 281 499 264 482 q 322 517 299 517 q 372 490 353 517 q 421 517 389 517 q 443 513 433 517 l 417 683 q 415 694 415 689 q 428 733 415 714 q 465 757 442 751 q 475 758 469 758 q 507 747 490 758 q 533 706 529 732 l 565 501 l 596 706 q 622 747 600 732 q 654 758 639 758 q 664 757 660 758 q 701 733 688 751 q 714 694 714 714 q 713 683 714 689 l 674 439 q 688 404 688 422 l 688 331 q 625 179 688 242 q 476 118 561 118 l 471 118 q 324 183 386 121 q 264 333 264 246 l 264 458 m 282 342 l 282 333 q 338 196 282 254 q 472 138 393 140 q 479 138 476 138 q 611 193 556 138 q 669 331 669 249 l 669 401 q 658 429 669 418 l 657 431 q 629 442 646 442 l 524 442 q 495 430 507 442 q 483 401 483 418 q 495 373 483 385 q 524 361 507 361 l 586 361 q 594 351 594 361 q 586 343 594 343 q 515 314 544 343 q 486 243 486 285 q 476 233 486 233 q 467 243 467 233 q 522 343 467 308 q 476 365 496 343 q 421 326 464 326 q 372 353 389 326 q 322 326 353 326 q 282 342 300 326 m 576 460 l 629 460 q 657 453 647 460 l 694 686 q 694 694 694 690 q 686 722 694 708 q 661 738 678 735 q 653 739 657 739 q 633 732 643 739 q 615 703 618 721 l 576 460 m 435 686 l 465 497 q 481 458 481 482 l 481 442 q 524 460 496 460 l 553 460 l 514 703 q 496 732 511 721 q 476 739 486 739 q 468 738 472 739 q 443 722 451 735 q 435 694 435 708 q 435 686 435 690 m 381 458 l 381 385 q 392 356 381 368 q 421 344 404 344 q 449 356 438 344 q 461 385 461 368 l 461 458 q 450 486 461 475 q 449 488 450 488 q 421 499 438 499 q 392 487 404 499 q 381 458 381 475 m 282 458 l 282 385 q 294 356 282 368 q 322 344 306 344 q 351 356 339 344 q 363 385 363 368 l 363 458 q 351 487 363 475 q 322 499 339 499 q 294 487 306 499 q 282 458 282 475 z "},"Ĝ":{"ha":982,"x_min":28,"x_max":954,"o":"m 164 760 q 490 896 299 896 q 818 760 682 896 q 954 432 954 624 q 818 105 954 240 q 490 -31 682 -31 q 163 105 299 -31 q 28 432 28 240 q 164 760 28 624 m 47 433 q 178 119 47 250 q 492 -11 308 -11 q 806 119 676 -11 q 936 433 936 250 q 806 748 936 618 q 492 878 676 878 q 178 748 308 878 q 47 433 47 618 m 264 458 q 281 499 264 482 q 322 517 299 517 q 372 490 353 517 q 421 517 389 517 q 443 513 433 517 l 417 683 q 415 694 415 689 q 428 733 415 714 q 465 757 442 751 q 475 758 469 758 q 507 747 490 758 q 533 706 529 732 l 565 501 l 596 706 q 622 747 600 732 q 654 758 639 758 q 664 757 660 758 q 701 733 688 751 q 714 694 714 714 q 713 683 714 689 l 674 439 q 688 404 688 422 l 688 331 q 625 179 688 242 q 476 118 561 118 l 471 118 q 324 183 386 121 q 264 333 264 246 l 264 458 m 282 342 l 282 333 q 338 196 282 254 q 472 138 393 140 q 479 138 476 138 q 611 193 556 138 q 669 331 669 249 l 669 401 q 658 429 669 418 l 657 431 q 629 442 646 442 l 524 442 q 495 430 507 442 q 483 401 483 418 q 495 373 483 385 q 524 361 507 361 l 586 361 q 594 351 594 361 q 586 343 594 343 q 515 314 544 343 q 486 243 486 285 q 476 233 486 233 q 467 243 467 233 q 522 343 467 308 q 476 365 496 343 q 421 326 464 326 q 372 353 389 326 q 322 326 353 326 q 282 342 300 326 m 576 460 l 629 460 q 657 453 647 460 l 694 686 q 694 694 694 690 q 686 722 694 708 q 661 738 678 735 q 653 739 657 739 q 633 732 643 739 q 615 703 618 721 l 576 460 m 435 686 l 465 497 q 481 458 481 482 l 481 442 q 524 460 496 460 l 553 460 l 514 703 q 496 732 511 721 q 476 739 486 739 q 468 738 472 739 q 443 722 451 735 q 435 694 435 708 q 435 686 435 690 m 381 458 l 381 385 q 392 356 381 368 q 421 344 404 344 q 449 356 438 344 q 461 385 461 368 l 461 458 q 450 486 461 475 q 449 488 450 488 q 421 499 438 499 q 392 487 404 499 q 381 458 381 475 m 282 458 l 282 385 q 294 356 282 368 q 322 344 306 344 q 351 356 339 344 q 363 385 363 368 l 363 458 q 351 487 363 475 q 322 499 339 499 q 294 487 306 499 q 282 458 282 475 z "},"ĝ":{"ha":982,"x_min":28,"x_max":954,"o":"m 164 760 q 490 896 299 896 q 818 760 682 896 q 954 432 954 624 q 818 105 954 240 q 490 -31 682 -31 q 163 105 299 -31 q 28 432 28 240 q 164 760 28 624 m 47 433 q 178 119 47 250 q 492 -11 308 -11 q 806 119 676 -11 q 936 433 936 250 q 806 748 936 618 q 492 878 676 878 q 178 748 308 878 q 47 433 47 618 m 264 458 q 281 499 264 482 q 322 517 299 517 q 372 490 353 517 q 421 517 389 517 q 443 513 433 517 l 417 683 q 415 694 415 689 q 428 733 415 714 q 465 757 442 751 q 475 758 469 758 q 507 747 490 758 q 533 706 529 732 l 565 501 l 596 706 q 622 747 600 732 q 654 758 639 758 q 664 757 660 758 q 701 733 688 751 q 714 694 714 714 q 713 683 714 689 l 674 439 q 688 404 688 422 l 688 331 q 625 179 688 242 q 476 118 561 118 l 471 118 q 324 183 386 121 q 264 333 264 246 l 264 458 m 282 342 l 282 333 q 338 196 282 254 q 472 138 393 140 q 479 138 476 138 q 611 193 556 138 q 669 331 669 249 l 669 401 q 658 429 669 418 l 657 431 q 629 442 646 442 l 524 442 q 495 430 507 442 q 483 401 483 418 q 495 373 483 385 q 524 361 507 361 l 586 361 q 594 351 594 361 q 586 343 594 343 q 515 314 544 343 q 486 243 486 285 q 476 233 486 233 q 467 243 467 233 q 522 343 467 308 q 476 365 496 343 q 421 326 464 326 q 372 353 389 326 q 322 326 353 326 q 282 342 300 326 m 576 460 l 629 460 q 657 453 647 460 l 694 686 q 694 694 694 690 q 686 722 694 708 q 661 738 678 735 q 653 739 657 739 q 633 732 643 739 q 615 703 618 721 l 576 460 m 435 686 l 465 497 q 481 458 481 482 l 481 442 q 524 460 496 460 l 553 460 l 514 703 q 496 732 511 721 q 476 739 486 739 q 468 738 472 739 q 443 722 451 735 q 435 694 435 708 q 435 686 435 690 m 381 458 l 381 385 q 392 356 381 368 q 421 344 404 344 q 449 356 438 344 q 461 385 461 368 l 461 458 q 450 486 461 475 q 449 488 450 488 q 421 499 438 499 q 392 487 404 499 q 381 458 381 475 m 282 458 l 282 385 q 294 356 282 368 q 322 344 306 344 q 351 356 339 344 q 363 385 363 368 l 363 458 q 351 487 363 475 q 322 499 339 499 q 294 487 306 499 q 282 458 282 475 z "},"Ĥ":{"ha":982,"x_min":28,"x_max":954,"o":"m 164 760 q 490 896 299 896 q 818 760 682 896 q 954 432 954 624 q 818 105 954 240 q 490 -31 682 -31 q 163 105 299 -31 q 28 432 28 240 q 164 760 28 624 m 47 433 q 178 119 47 250 q 492 -11 308 -11 q 806 119 676 -11 q 936 433 936 250 q 806 748 936 618 q 492 878 676 878 q 178 748 308 878 q 47 433 47 618 m 264 458 q 281 499 264 482 q 322 517 299 517 q 372 490 353 517 q 421 517 389 517 q 443 513 433 517 l 417 683 q 415 694 415 689 q 428 733 415 714 q 465 757 442 751 q 475 758 469 758 q 507 747 490 758 q 533 706 529 732 l 565 501 l 596 706 q 622 747 600 732 q 654 758 639 758 q 664 757 660 758 q 701 733 688 751 q 714 694 714 714 q 713 683 714 689 l 674 439 q 688 404 688 422 l 688 331 q 625 179 688 242 q 476 118 561 118 l 471 118 q 324 183 386 121 q 264 333 264 246 l 264 458 m 282 342 l 282 333 q 338 196 282 254 q 472 138 393 140 q 479 138 476 138 q 611 193 556 138 q 669 331 669 249 l 669 401 q 658 429 669 418 l 657 431 q 629 442 646 442 l 524 442 q 495 430 507 442 q 483 401 483 418 q 495 373 483 385 q 524 361 507 361 l 586 361 q 594 351 594 361 q 586 343 594 343 q 515 314 544 343 q 486 243 486 285 q 476 233 486 233 q 467 243 467 233 q 522 343 467 308 q 476 365 496 343 q 421 326 464 326 q 372 353 389 326 q 322 326 353 326 q 282 342 300 326 m 576 460 l 629 460 q 657 453 647 460 l 694 686 q 694 694 694 690 q 686 722 694 708 q 661 738 678 735 q 653 739 657 739 q 633 732 643 739 q 615 703 618 721 l 576 460 m 435 686 l 465 497 q 481 458 481 482 l 481 442 q 524 460 496 460 l 553 460 l 514 703 q 496 732 511 721 q 476 739 486 739 q 468 738 472 739 q 443 722 451 735 q 435 694 435 708 q 435 686 435 690 m 381 458 l 381 385 q 392 356 381 368 q 421 344 404 344 q 449 356 438 344 q 461 385 461 368 l 461 458 q 450 486 461 475 q 449 488 450 488 q 421 499 438 499 q 392 487 404 499 q 381 458 381 475 m 282 458 l 282 385 q 294 356 282 368 q 322 344 306 344 q 351 356 339 344 q 363 385 363 368 l 363 458 q 351 487 363 475 q 322 499 339 499 q 294 487 306 499 q 282 458 282 475 z "},"ĥ":{"ha":982,"x_min":28,"x_max":954,"o":"m 164 760 q 490 896 299 896 q 818 760 682 896 q 954 432 954 624 q 818 105 954 240 q 490 -31 682 -31 q 163 105 299 -31 q 28 432 28 240 q 164 760 28 624 m 47 433 q 178 119 47 250 q 492 -11 308 -11 q 806 119 676 -11 q 936 433 936 250 q 806 748 936 618 q 492 878 676 878 q 178 748 308 878 q 47 433 47 618 m 264 458 q 281 499 264 482 q 322 517 299 517 q 372 490 353 517 q 421 517 389 517 q 443 513 433 517 l 417 683 q 415 694 415 689 q 428 733 415 714 q 465 757 442 751 q 475 758 469 758 q 507 747 490 758 q 533 706 529 732 l 565 501 l 596 706 q 622 747 600 732 q 654 758 639 758 q 664 757 660 758 q 701 733 688 751 q 714 694 714 714 q 713 683 714 689 l 674 439 q 688 404 688 422 l 688 331 q 625 179 688 242 q 476 118 561 118 l 471 118 q 324 183 386 121 q 264 333 264 246 l 264 458 m 282 342 l 282 333 q 338 196 282 254 q 472 138 393 140 q 479 138 476 138 q 611 193 556 138 q 669 331 669 249 l 669 401 q 658 429 669 418 l 657 431 q 629 442 646 442 l 524 442 q 495 430 507 442 q 483 401 483 418 q 495 373 483 385 q 524 361 507 361 l 586 361 q 594 351 594 361 q 586 343 594 343 q 515 314 544 343 q 486 243 486 285 q 476 233 486 233 q 467 243 467 233 q 522 343 467 308 q 476 365 496 343 q 421 326 464 326 q 372 353 389 326 q 322 326 353 326 q 282 342 300 326 m 576 460 l 629 460 q 657 453 647 460 l 694 686 q 694 694 694 690 q 686 722 694 708 q 661 738 678 735 q 653 739 657 739 q 633 732 643 739 q 615 703 618 721 l 576 460 m 435 686 l 465 497 q 481 458 481 482 l 481 442 q 524 460 496 460 l 553 460 l 514 703 q 496 732 511 721 q 476 739 486 739 q 468 738 472 739 q 443 722 451 735 q 435 694 435 708 q 435 686 435 690 m 381 458 l 381 385 q 392 356 381 368 q 421 344 404 344 q 449 356 438 344 q 461 385 461 368 l 461 458 q 450 486 461 475 q 449 488 450 488 q 421 499 438 499 q 392 487 404 499 q 381 458 381 475 m 282 458 l 282 385 q 294 356 282 368 q 322 344 306 344 q 351 356 339 344 q 363 385 363 368 l 363 458 q 351 487 363 475 q 322 499 339 499 q 294 487 306 499 q 282 458 282 475 z "},"Ĩ":{"ha":982,"x_min":28,"x_max":954,"o":"m 164 760 q 490 896 299 896 q 818 760 682 896 q 954 432 954 624 q 818 105 954 240 q 490 -31 682 -31 q 163 105 299 -31 q 28 432 28 240 q 164 760 28 624 m 47 433 q 178 119 47 250 q 492 -11 308 -11 q 806 119 676 -11 q 936 433 936 250 q 806 748 936 618 q 492 878 676 878 q 178 748 308 878 q 47 433 47 618 m 264 458 q 281 499 264 482 q 322 517 299 517 q 372 490 353 517 q 421 517 389 517 q 443 513 433 517 l 417 683 q 415 694 415 689 q 428 733 415 714 q 465 757 442 751 q 475 758 469 758 q 507 747 490 758 q 533 706 529 732 l 565 501 l 596 706 q 622 747 600 732 q 654 758 639 758 q 664 757 660 758 q 701 733 688 751 q 714 694 714 714 q 713 683 714 689 l 674 439 q 688 404 688 422 l 688 331 q 625 179 688 242 q 476 118 561 118 l 471 118 q 324 183 386 121 q 264 333 264 246 l 264 458 m 282 342 l 282 333 q 338 196 282 254 q 472 138 393 140 q 479 138 476 138 q 611 193 556 138 q 669 331 669 249 l 669 401 q 658 429 669 418 l 657 431 q 629 442 646 442 l 524 442 q 495 430 507 442 q 483 401 483 418 q 495 373 483 385 q 524 361 507 361 l 586 361 q 594 351 594 361 q 586 343 594 343 q 515 314 544 343 q 486 243 486 285 q 476 233 486 233 q 467 243 467 233 q 522 343 467 308 q 476 365 496 343 q 421 326 464 326 q 372 353 389 326 q 322 326 353 326 q 282 342 300 326 m 576 460 l 629 460 q 657 453 647 460 l 694 686 q 694 694 694 690 q 686 722 694 708 q 661 738 678 735 q 653 739 657 739 q 633 732 643 739 q 615 703 618 721 l 576 460 m 435 686 l 465 497 q 481 458 481 482 l 481 442 q 524 460 496 460 l 553 460 l 514 703 q 496 732 511 721 q 476 739 486 739 q 468 738 472 739 q 443 722 451 735 q 435 694 435 708 q 435 686 435 690 m 381 458 l 381 385 q 392 356 381 368 q 421 344 404 344 q 449 356 438 344 q 461 385 461 368 l 461 458 q 450 486 461 475 q 449 488 450 488 q 421 499 438 499 q 392 487 404 499 q 381 458 381 475 m 282 458 l 282 385 q 294 356 282 368 q 322 344 306 344 q 351 356 339 344 q 363 385 363 368 l 363 458 q 351 487 363 475 q 322 499 339 499 q 294 487 306 499 q 282 458 282 475 z "},"ĩ":{"ha":982,"x_min":28,"x_max":954,"o":"m 164 760 q 490 896 299 896 q 818 760 682 896 q 954 432 954 624 q 818 105 954 240 q 490 -31 682 -31 q 163 105 299 -31 q 28 432 28 240 q 164 760 28 624 m 47 433 q 178 119 47 250 q 492 -11 308 -11 q 806 119 676 -11 q 936 433 936 250 q 806 748 936 618 q 492 878 676 878 q 178 748 308 878 q 47 433 47 618 m 264 458 q 281 499 264 482 q 322 517 299 517 q 372 490 353 517 q 421 517 389 517 q 443 513 433 517 l 417 683 q 415 694 415 689 q 428 733 415 714 q 465 757 442 751 q 475 758 469 758 q 507 747 490 758 q 533 706 529 732 l 565 501 l 596 706 q 622 747 600 732 q 654 758 639 758 q 664 757 660 758 q 701 733 688 751 q 714 694 714 714 q 713 683 714 689 l 674 439 q 688 404 688 422 l 688 331 q 625 179 688 242 q 476 118 561 118 l 471 118 q 324 183 386 121 q 264 333 264 246 l 264 458 m 282 342 l 282 333 q 338 196 282 254 q 472 138 393 140 q 479 138 476 138 q 611 193 556 138 q 669 331 669 249 l 669 401 q 658 429 669 418 l 657 431 q 629 442 646 442 l 524 442 q 495 430 507 442 q 483 401 483 418 q 495 373 483 385 q 524 361 507 361 l 586 361 q 594 351 594 361 q 586 343 594 343 q 515 314 544 343 q 486 243 486 285 q 476 233 486 233 q 467 243 467 233 q 522 343 467 308 q 476 365 496 343 q 421 326 464 326 q 372 353 389 326 q 322 326 353 326 q 282 342 300 326 m 576 460 l 629 460 q 657 453 647 460 l 694 686 q 694 694 694 690 q 686 722 694 708 q 661 738 678 735 q 653 739 657 739 q 633 732 643 739 q 615 703 618 721 l 576 460 m 435 686 l 465 497 q 481 458 481 482 l 481 442 q 524 460 496 460 l 553 460 l 514 703 q 496 732 511 721 q 476 739 486 739 q 468 738 472 739 q 443 722 451 735 q 435 694 435 708 q 435 686 435 690 m 381 458 l 381 385 q 392 356 381 368 q 421 344 404 344 q 449 356 438 344 q 461 385 461 368 l 461 458 q 450 486 461 475 q 449 488 450 488 q 421 499 438 499 q 392 487 404 499 q 381 458 381 475 m 282 458 l 282 385 q 294 356 282 368 q 322 344 306 344 q 351 356 339 344 q 363 385 363 368 l 363 458 q 351 487 363 475 q 322 499 339 499 q 294 487 306 499 q 282 458 282 475 z "},"Ĭ":{"ha":982,"x_min":28,"x_max":954,"o":"m 164 760 q 490 896 299 896 q 818 760 682 896 q 954 432 954 624 q 818 105 954 240 q 490 -31 682 -31 q 163 105 299 -31 q 28 432 28 240 q 164 760 28 624 m 47 433 q 178 119 47 250 q 492 -11 308 -11 q 806 119 676 -11 q 936 433 936 250 q 806 748 936 618 q 492 878 676 878 q 178 748 308 878 q 47 433 47 618 m 264 458 q 281 499 264 482 q 322 517 299 517 q 372 490 353 517 q 421 517 389 517 q 443 513 433 517 l 417 683 q 415 694 415 689 q 428 733 415 714 q 465 757 442 751 q 475 758 469 758 q 507 747 490 758 q 533 706 529 732 l 565 501 l 596 706 q 622 747 600 732 q 654 758 639 758 q 664 757 660 758 q 701 733 688 751 q 714 694 714 714 q 713 683 714 689 l 674 439 q 688 404 688 422 l 688 331 q 625 179 688 242 q 476 118 561 118 l 471 118 q 324 183 386 121 q 264 333 264 246 l 264 458 m 282 342 l 282 333 q 338 196 282 254 q 472 138 393 140 q 479 138 476 138 q 611 193 556 138 q 669 331 669 249 l 669 401 q 658 429 669 418 l 657 431 q 629 442 646 442 l 524 442 q 495 430 507 442 q 483 401 483 418 q 495 373 483 385 q 524 361 507 361 l 586 361 q 594 351 594 361 q 586 343 594 343 q 515 314 544 343 q 486 243 486 285 q 476 233 486 233 q 467 243 467 233 q 522 343 467 308 q 476 365 496 343 q 421 326 464 326 q 372 353 389 326 q 322 326 353 326 q 282 342 300 326 m 576 460 l 629 460 q 657 453 647 460 l 694 686 q 694 694 694 690 q 686 722 694 708 q 661 738 678 735 q 653 739 657 739 q 633 732 643 739 q 615 703 618 721 l 576 460 m 435 686 l 465 497 q 481 458 481 482 l 481 442 q 524 460 496 460 l 553 460 l 514 703 q 496 732 511 721 q 476 739 486 739 q 468 738 472 739 q 443 722 451 735 q 435 694 435 708 q 435 686 435 690 m 381 458 l 381 385 q 392 356 381 368 q 421 344 404 344 q 449 356 438 344 q 461 385 461 368 l 461 458 q 450 486 461 475 q 449 488 450 488 q 421 499 438 499 q 392 487 404 499 q 381 458 381 475 m 282 458 l 282 385 q 294 356 282 368 q 322 344 306 344 q 351 356 339 344 q 363 385 363 368 l 363 458 q 351 487 363 475 q 322 499 339 499 q 294 487 306 499 q 282 458 282 475 z "},"ĭ":{"ha":982,"x_min":28,"x_max":954,"o":"m 164 760 q 490 896 299 896 q 818 760 682 896 q 954 432 954 624 q 818 105 954 240 q 490 -31 682 -31 q 163 105 299 -31 q 28 432 28 240 q 164 760 28 624 m 47 433 q 178 119 47 250 q 492 -11 308 -11 q 806 119 676 -11 q 936 433 936 250 q 806 748 936 618 q 492 878 676 878 q 178 748 308 878 q 47 433 47 618 m 264 458 q 281 499 264 482 q 322 517 299 517 q 372 490 353 517 q 421 517 389 517 q 443 513 433 517 l 417 683 q 415 694 415 689 q 428 733 415 714 q 465 757 442 751 q 475 758 469 758 q 507 747 490 758 q 533 706 529 732 l 565 501 l 596 706 q 622 747 600 732 q 654 758 639 758 q 664 757 660 758 q 701 733 688 751 q 714 694 714 714 q 713 683 714 689 l 674 439 q 688 404 688 422 l 688 331 q 625 179 688 242 q 476 118 561 118 l 471 118 q 324 183 386 121 q 264 333 264 246 l 264 458 m 282 342 l 282 333 q 338 196 282 254 q 472 138 393 140 q 479 138 476 138 q 611 193 556 138 q 669 331 669 249 l 669 401 q 658 429 669 418 l 657 431 q 629 442 646 442 l 524 442 q 495 430 507 442 q 483 401 483 418 q 495 373 483 385 q 524 361 507 361 l 586 361 q 594 351 594 361 q 586 343 594 343 q 515 314 544 343 q 486 243 486 285 q 476 233 486 233 q 467 243 467 233 q 522 343 467 308 q 476 365 496 343 q 421 326 464 326 q 372 353 389 326 q 322 326 353 326 q 282 342 300 326 m 576 460 l 629 460 q 657 453 647 460 l 694 686 q 694 694 694 690 q 686 722 694 708 q 661 738 678 735 q 653 739 657 739 q 633 732 643 739 q 615 703 618 721 l 576 460 m 435 686 l 465 497 q 481 458 481 482 l 481 442 q 524 460 496 460 l 553 460 l 514 703 q 496 732 511 721 q 476 739 486 739 q 468 738 472 739 q 443 722 451 735 q 435 694 435 708 q 435 686 435 690 m 381 458 l 381 385 q 392 356 381 368 q 421 344 404 344 q 449 356 438 344 q 461 385 461 368 l 461 458 q 450 486 461 475 q 449 488 450 488 q 421 499 438 499 q 392 487 404 499 q 381 458 381 475 m 282 458 l 282 385 q 294 356 282 368 q 322 344 306 344 q 351 356 339 344 q 363 385 363 368 l 363 458 q 351 487 363 475 q 322 499 339 499 q 294 487 306 499 q 282 458 282 475 z "},"Ĳ":{"ha":982,"x_min":28,"x_max":954,"o":"m 164 760 q 490 896 299 896 q 818 760 682 896 q 954 432 954 624 q 818 105 954 240 q 490 -31 682 -31 q 163 105 299 -31 q 28 432 28 240 q 164 760 28 624 m 47 433 q 178 119 47 250 q 492 -11 308 -11 q 806 119 676 -11 q 936 433 936 250 q 806 748 936 618 q 492 878 676 878 q 178 748 308 878 q 47 433 47 618 m 264 458 q 281 499 264 482 q 322 517 299 517 q 372 490 353 517 q 421 517 389 517 q 443 513 433 517 l 417 683 q 415 694 415 689 q 428 733 415 714 q 465 757 442 751 q 475 758 469 758 q 507 747 490 758 q 533 706 529 732 l 565 501 l 596 706 q 622 747 600 732 q 654 758 639 758 q 664 757 660 758 q 701 733 688 751 q 714 694 714 714 q 713 683 714 689 l 674 439 q 688 404 688 422 l 688 331 q 625 179 688 242 q 476 118 561 118 l 471 118 q 324 183 386 121 q 264 333 264 246 l 264 458 m 282 342 l 282 333 q 338 196 282 254 q 472 138 393 140 q 479 138 476 138 q 611 193 556 138 q 669 331 669 249 l 669 401 q 658 429 669 418 l 657 431 q 629 442 646 442 l 524 442 q 495 430 507 442 q 483 401 483 418 q 495 373 483 385 q 524 361 507 361 l 586 361 q 594 351 594 361 q 586 343 594 343 q 515 314 544 343 q 486 243 486 285 q 476 233 486 233 q 467 243 467 233 q 522 343 467 308 q 476 365 496 343 q 421 326 464 326 q 372 353 389 326 q 322 326 353 326 q 282 342 300 326 m 576 460 l 629 460 q 657 453 647 460 l 694 686 q 694 694 694 690 q 686 722 694 708 q 661 738 678 735 q 653 739 657 739 q 633 732 643 739 q 615 703 618 721 l 576 460 m 435 686 l 465 497 q 481 458 481 482 l 481 442 q 524 460 496 460 l 553 460 l 514 703 q 496 732 511 721 q 476 739 486 739 q 468 738 472 739 q 443 722 451 735 q 435 694 435 708 q 435 686 435 690 m 381 458 l 381 385 q 392 356 381 368 q 421 344 404 344 q 449 356 438 344 q 461 385 461 368 l 461 458 q 450 486 461 475 q 449 488 450 488 q 421 499 438 499 q 392 487 404 499 q 381 458 381 475 m 282 458 l 282 385 q 294 356 282 368 q 322 344 306 344 q 351 356 339 344 q 363 385 363 368 l 363 458 q 351 487 363 475 q 322 499 339 499 q 294 487 306 499 q 282 458 282 475 z "},"ĳ":{"ha":982,"x_min":28,"x_max":954,"o":"m 164 760 q 490 896 299 896 q 818 760 682 896 q 954 432 954 624 q 818 105 954 240 q 490 -31 682 -31 q 163 105 299 -31 q 28 432 28 240 q 164 760 28 624 m 47 433 q 178 119 47 250 q 492 -11 308 -11 q 806 119 676 -11 q 936 433 936 250 q 806 748 936 618 q 492 878 676 878 q 178 748 308 878 q 47 433 47 618 m 264 458 q 281 499 264 482 q 322 517 299 517 q 372 490 353 517 q 421 517 389 517 q 443 513 433 517 l 417 683 q 415 694 415 689 q 428 733 415 714 q 465 757 442 751 q 475 758 469 758 q 507 747 490 758 q 533 706 529 732 l 565 501 l 596 706 q 622 747 600 732 q 654 758 639 758 q 664 757 660 758 q 701 733 688 751 q 714 694 714 714 q 713 683 714 689 l 674 439 q 688 404 688 422 l 688 331 q 625 179 688 242 q 476 118 561 118 l 471 118 q 324 183 386 121 q 264 333 264 246 l 264 458 m 282 342 l 282 333 q 338 196 282 254 q 472 138 393 140 q 479 138 476 138 q 611 193 556 138 q 669 331 669 249 l 669 401 q 658 429 669 418 l 657 431 q 629 442 646 442 l 524 442 q 495 430 507 442 q 483 401 483 418 q 495 373 483 385 q 524 361 507 361 l 586 361 q 594 351 594 361 q 586 343 594 343 q 515 314 544 343 q 486 243 486 285 q 476 233 486 233 q 467 243 467 233 q 522 343 467 308 q 476 365 496 343 q 421 326 464 326 q 372 353 389 326 q 322 326 353 326 q 282 342 300 326 m 576 460 l 629 460 q 657 453 647 460 l 694 686 q 694 694 694 690 q 686 722 694 708 q 661 738 678 735 q 653 739 657 739 q 633 732 643 739 q 615 703 618 721 l 576 460 m 435 686 l 465 497 q 481 458 481 482 l 481 442 q 524 460 496 460 l 553 460 l 514 703 q 496 732 511 721 q 476 739 486 739 q 468 738 472 739 q 443 722 451 735 q 435 694 435 708 q 435 686 435 690 m 381 458 l 381 385 q 392 356 381 368 q 421 344 404 344 q 449 356 438 344 q 461 385 461 368 l 461 458 q 450 486 461 475 q 449 488 450 488 q 421 499 438 499 q 392 487 404 499 q 381 458 381 475 m 282 458 l 282 385 q 294 356 282 368 q 322 344 306 344 q 351 356 339 344 q 363 385 363 368 l 363 458 q 351 487 363 475 q 322 499 339 499 q 294 487 306 499 q 282 458 282 475 z "},"Ĵ":{"ha":982,"x_min":28,"x_max":954,"o":"m 164 760 q 490 896 299 896 q 818 760 682 896 q 954 432 954 624 q 818 105 954 240 q 490 -31 682 -31 q 163 105 299 -31 q 28 432 28 240 q 164 760 28 624 m 47 433 q 178 119 47 250 q 492 -11 308 -11 q 806 119 676 -11 q 936 433 936 250 q 806 748 936 618 q 492 878 676 878 q 178 748 308 878 q 47 433 47 618 m 264 458 q 281 499 264 482 q 322 517 299 517 q 372 490 353 517 q 421 517 389 517 q 443 513 433 517 l 417 683 q 415 694 415 689 q 428 733 415 714 q 465 757 442 751 q 475 758 469 758 q 507 747 490 758 q 533 706 529 732 l 565 501 l 596 706 q 622 747 600 732 q 654 758 639 758 q 664 757 660 758 q 701 733 688 751 q 714 694 714 714 q 713 683 714 689 l 674 439 q 688 404 688 422 l 688 331 q 625 179 688 242 q 476 118 561 118 l 471 118 q 324 183 386 121 q 264 333 264 246 l 264 458 m 282 342 l 282 333 q 338 196 282 254 q 472 138 393 140 q 479 138 476 138 q 611 193 556 138 q 669 331 669 249 l 669 401 q 658 429 669 418 l 657 431 q 629 442 646 442 l 524 442 q 495 430 507 442 q 483 401 483 418 q 495 373 483 385 q 524 361 507 361 l 586 361 q 594 351 594 361 q 586 343 594 343 q 515 314 544 343 q 486 243 486 285 q 476 233 486 233 q 467 243 467 233 q 522 343 467 308 q 476 365 496 343 q 421 326 464 326 q 372 353 389 326 q 322 326 353 326 q 282 342 300 326 m 576 460 l 629 460 q 657 453 647 460 l 694 686 q 694 694 694 690 q 686 722 694 708 q 661 738 678 735 q 653 739 657 739 q 633 732 643 739 q 615 703 618 721 l 576 460 m 435 686 l 465 497 q 481 458 481 482 l 481 442 q 524 460 496 460 l 553 460 l 514 703 q 496 732 511 721 q 476 739 486 739 q 468 738 472 739 q 443 722 451 735 q 435 694 435 708 q 435 686 435 690 m 381 458 l 381 385 q 392 356 381 368 q 421 344 404 344 q 449 356 438 344 q 461 385 461 368 l 461 458 q 450 486 461 475 q 449 488 450 488 q 421 499 438 499 q 392 487 404 499 q 381 458 381 475 m 282 458 l 282 385 q 294 356 282 368 q 322 344 306 344 q 351 356 339 344 q 363 385 363 368 l 363 458 q 351 487 363 475 q 322 499 339 499 q 294 487 306 499 q 282 458 282 475 z "},"ĸ":{"ha":982,"x_min":28,"x_max":954,"o":"m 164 760 q 490 896 299 896 q 818 760 682 896 q 954 432 954 624 q 818 105 954 240 q 490 -31 682 -31 q 163 105 299 -31 q 28 432 28 240 q 164 760 28 624 m 47 433 q 178 119 47 250 q 492 -11 308 -11 q 806 119 676 -11 q 936 433 936 250 q 806 748 936 618 q 492 878 676 878 q 178 748 308 878 q 47 433 47 618 m 264 458 q 281 499 264 482 q 322 517 299 517 q 372 490 353 517 q 421 517 389 517 q 443 513 433 517 l 417 683 q 415 694 415 689 q 428 733 415 714 q 465 757 442 751 q 475 758 469 758 q 507 747 490 758 q 533 706 529 732 l 565 501 l 596 706 q 622 747 600 732 q 654 758 639 758 q 664 757 660 758 q 701 733 688 751 q 714 694 714 714 q 713 683 714 689 l 674 439 q 688 404 688 422 l 688 331 q 625 179 688 242 q 476 118 561 118 l 471 118 q 324 183 386 121 q 264 333 264 246 l 264 458 m 282 342 l 282 333 q 338 196 282 254 q 472 138 393 140 q 479 138 476 138 q 611 193 556 138 q 669 331 669 249 l 669 401 q 658 429 669 418 l 657 431 q 629 442 646 442 l 524 442 q 495 430 507 442 q 483 401 483 418 q 495 373 483 385 q 524 361 507 361 l 586 361 q 594 351 594 361 q 586 343 594 343 q 515 314 544 343 q 486 243 486 285 q 476 233 486 233 q 467 243 467 233 q 522 343 467 308 q 476 365 496 343 q 421 326 464 326 q 372 353 389 326 q 322 326 353 326 q 282 342 300 326 m 576 460 l 629 460 q 657 453 647 460 l 694 686 q 694 694 694 690 q 686 722 694 708 q 661 738 678 735 q 653 739 657 739 q 633 732 643 739 q 615 703 618 721 l 576 460 m 435 686 l 465 497 q 481 458 481 482 l 481 442 q 524 460 496 460 l 553 460 l 514 703 q 496 732 511 721 q 476 739 486 739 q 468 738 472 739 q 443 722 451 735 q 435 694 435 708 q 435 686 435 690 m 381 458 l 381 385 q 392 356 381 368 q 421 344 404 344 q 449 356 438 344 q 461 385 461 368 l 461 458 q 450 486 461 475 q 449 488 450 488 q 421 499 438 499 q 392 487 404 499 q 381 458 381 475 m 282 458 l 282 385 q 294 356 282 368 q 322 344 306 344 q 351 356 339 344 q 363 385 363 368 l 363 458 q 351 487 363 475 q 322 499 339 499 q 294 487 306 499 q 282 458 282 475 z "},"Ŀ":{"ha":982,"x_min":28,"x_max":954,"o":"m 164 760 q 490 896 299 896 q 818 760 682 896 q 954 432 954 624 q 818 105 954 240 q 490 -31 682 -31 q 163 105 299 -31 q 28 432 28 240 q 164 760 28 624 m 47 433 q 178 119 47 250 q 492 -11 308 -11 q 806 119 676 -11 q 936 433 936 250 q 806 748 936 618 q 492 878 676 878 q 178 748 308 878 q 47 433 47 618 m 264 458 q 281 499 264 482 q 322 517 299 517 q 372 490 353 517 q 421 517 389 517 q 443 513 433 517 l 417 683 q 415 694 415 689 q 428 733 415 714 q 465 757 442 751 q 475 758 469 758 q 507 747 490 758 q 533 706 529 732 l 565 501 l 596 706 q 622 747 600 732 q 654 758 639 758 q 664 757 660 758 q 701 733 688 751 q 714 694 714 714 q 713 683 714 689 l 674 439 q 688 404 688 422 l 688 331 q 625 179 688 242 q 476 118 561 118 l 471 118 q 324 183 386 121 q 264 333 264 246 l 264 458 m 282 342 l 282 333 q 338 196 282 254 q 472 138 393 140 q 479 138 476 138 q 611 193 556 138 q 669 331 669 249 l 669 401 q 658 429 669 418 l 657 431 q 629 442 646 442 l 524 442 q 495 430 507 442 q 483 401 483 418 q 495 373 483 385 q 524 361 507 361 l 586 361 q 594 351 594 361 q 586 343 594 343 q 515 314 544 343 q 486 243 486 285 q 476 233 486 233 q 467 243 467 233 q 522 343 467 308 q 476 365 496 343 q 421 326 464 326 q 372 353 389 326 q 322 326 353 326 q 282 342 300 326 m 576 460 l 629 460 q 657 453 647 460 l 694 686 q 694 694 694 690 q 686 722 694 708 q 661 738 678 735 q 653 739 657 739 q 633 732 643 739 q 615 703 618 721 l 576 460 m 435 686 l 465 497 q 481 458 481 482 l 481 442 q 524 460 496 460 l 553 460 l 514 703 q 496 732 511 721 q 476 739 486 739 q 468 738 472 739 q 443 722 451 735 q 435 694 435 708 q 435 686 435 690 m 381 458 l 381 385 q 392 356 381 368 q 421 344 404 344 q 449 356 438 344 q 461 385 461 368 l 461 458 q 450 486 461 475 q 449 488 450 488 q 421 499 438 499 q 392 487 404 499 q 381 458 381 475 m 282 458 l 282 385 q 294 356 282 368 q 322 344 306 344 q 351 356 339 344 q 363 385 363 368 l 363 458 q 351 487 363 475 q 322 499 339 499 q 294 487 306 499 q 282 458 282 475 z "},"ŀ":{"ha":982,"x_min":28,"x_max":954,"o":"m 164 760 q 490 896 299 896 q 818 760 682 896 q 954 432 954 624 q 818 105 954 240 q 490 -31 682 -31 q 163 105 299 -31 q 28 432 28 240 q 164 760 28 624 m 47 433 q 178 119 47 250 q 492 -11 308 -11 q 806 119 676 -11 q 936 433 936 250 q 806 748 936 618 q 492 878 676 878 q 178 748 308 878 q 47 433 47 618 m 264 458 q 281 499 264 482 q 322 517 299 517 q 372 490 353 517 q 421 517 389 517 q 443 513 433 517 l 417 683 q 415 694 415 689 q 428 733 415 714 q 465 757 442 751 q 475 758 469 758 q 507 747 490 758 q 533 706 529 732 l 565 501 l 596 706 q 622 747 600 732 q 654 758 639 758 q 664 757 660 758 q 701 733 688 751 q 714 694 714 714 q 713 683 714 689 l 674 439 q 688 404 688 422 l 688 331 q 625 179 688 242 q 476 118 561 118 l 471 118 q 324 183 386 121 q 264 333 264 246 l 264 458 m 282 342 l 282 333 q 338 196 282 254 q 472 138 393 140 q 479 138 476 138 q 611 193 556 138 q 669 331 669 249 l 669 401 q 658 429 669 418 l 657 431 q 629 442 646 442 l 524 442 q 495 430 507 442 q 483 401 483 418 q 495 373 483 385 q 524 361 507 361 l 586 361 q 594 351 594 361 q 586 343 594 343 q 515 314 544 343 q 486 243 486 285 q 476 233 486 233 q 467 243 467 233 q 522 343 467 308 q 476 365 496 343 q 421 326 464 326 q 372 353 389 326 q 322 326 353 326 q 282 342 300 326 m 576 460 l 629 460 q 657 453 647 460 l 694 686 q 694 694 694 690 q 686 722 694 708 q 661 738 678 735 q 653 739 657 739 q 633 732 643 739 q 615 703 618 721 l 576 460 m 435 686 l 465 497 q 481 458 481 482 l 481 442 q 524 460 496 460 l 553 460 l 514 703 q 496 732 511 721 q 476 739 486 739 q 468 738 472 739 q 443 722 451 735 q 435 694 435 708 q 435 686 435 690 m 381 458 l 381 385 q 392 356 381 368 q 421 344 404 344 q 449 356 438 344 q 461 385 461 368 l 461 458 q 450 486 461 475 q 449 488 450 488 q 421 499 438 499 q 392 487 404 499 q 381 458 381 475 m 282 458 l 282 385 q 294 356 282 368 q 322 344 306 344 q 351 356 339 344 q 363 385 363 368 l 363 458 q 351 487 363 475 q 322 499 339 499 q 294 487 306 499 q 282 458 282 475 z "},"ŉ":{"ha":982,"x_min":28,"x_max":954,"o":"m 164 760 q 490 896 299 896 q 818 760 682 896 q 954 432 954 624 q 818 105 954 240 q 490 -31 682 -31 q 163 105 299 -31 q 28 432 28 240 q 164 760 28 624 m 47 433 q 178 119 47 250 q 492 -11 308 -11 q 806 119 676 -11 q 936 433 936 250 q 806 748 936 618 q 492 878 676 878 q 178 748 308 878 q 47 433 47 618 m 264 458 q 281 499 264 482 q 322 517 299 517 q 372 490 353 517 q 421 517 389 517 q 443 513 433 517 l 417 683 q 415 694 415 689 q 428 733 415 714 q 465 757 442 751 q 475 758 469 758 q 507 747 490 758 q 533 706 529 732 l 565 501 l 596 706 q 622 747 600 732 q 654 758 639 758 q 664 757 660 758 q 701 733 688 751 q 714 694 714 714 q 713 683 714 689 l 674 439 q 688 404 688 422 l 688 331 q 625 179 688 242 q 476 118 561 118 l 471 118 q 324 183 386 121 q 264 333 264 246 l 264 458 m 282 342 l 282 333 q 338 196 282 254 q 472 138 393 140 q 479 138 476 138 q 611 193 556 138 q 669 331 669 249 l 669 401 q 658 429 669 418 l 657 431 q 629 442 646 442 l 524 442 q 495 430 507 442 q 483 401 483 418 q 495 373 483 385 q 524 361 507 361 l 586 361 q 594 351 594 361 q 586 343 594 343 q 515 314 544 343 q 486 243 486 285 q 476 233 486 233 q 467 243 467 233 q 522 343 467 308 q 476 365 496 343 q 421 326 464 326 q 372 353 389 326 q 322 326 353 326 q 282 342 300 326 m 576 460 l 629 460 q 657 453 647 460 l 694 686 q 694 694 694 690 q 686 722 694 708 q 661 738 678 735 q 653 739 657 739 q 633 732 643 739 q 615 703 618 721 l 576 460 m 435 686 l 465 497 q 481 458 481 482 l 481 442 q 524 460 496 460 l 553 460 l 514 703 q 496 732 511 721 q 476 739 486 739 q 468 738 472 739 q 443 722 451 735 q 435 694 435 708 q 435 686 435 690 m 381 458 l 381 385 q 392 356 381 368 q 421 344 404 344 q 449 356 438 344 q 461 385 461 368 l 461 458 q 450 486 461 475 q 449 488 450 488 q 421 499 438 499 q 392 487 404 499 q 381 458 381 475 m 282 458 l 282 385 q 294 356 282 368 q 322 344 306 344 q 351 356 339 344 q 363 385 363 368 l 363 458 q 351 487 363 475 q 322 499 339 499 q 294 487 306 499 q 282 458 282 475 z "},"―":{"ha":982,"x_min":28,"x_max":954,"o":"m 164 760 q 490 896 299 896 q 818 760 682 896 q 954 432 954 624 q 818 105 954 240 q 490 -31 682 -31 q 163 105 299 -31 q 28 432 28 240 q 164 760 28 624 m 47 433 q 178 119 47 250 q 492 -11 308 -11 q 806 119 676 -11 q 936 433 936 250 q 806 748 936 618 q 492 878 676 878 q 178 748 308 878 q 47 433 47 618 m 264 458 q 281 499 264 482 q 322 517 299 517 q 372 490 353 517 q 421 517 389 517 q 443 513 433 517 l 417 683 q 415 694 415 689 q 428 733 415 714 q 465 757 442 751 q 475 758 469 758 q 507 747 490 758 q 533 706 529 732 l 565 501 l 596 706 q 622 747 600 732 q 654 758 639 758 q 664 757 660 758 q 701 733 688 751 q 714 694 714 714 q 713 683 714 689 l 674 439 q 688 404 688 422 l 688 331 q 625 179 688 242 q 476 118 561 118 l 471 118 q 324 183 386 121 q 264 333 264 246 l 264 458 m 282 342 l 282 333 q 338 196 282 254 q 472 138 393 140 q 479 138 476 138 q 611 193 556 138 q 669 331 669 249 l 669 401 q 658 429 669 418 l 657 431 q 629 442 646 442 l 524 442 q 495 430 507 442 q 483 401 483 418 q 495 373 483 385 q 524 361 507 361 l 586 361 q 594 351 594 361 q 586 343 594 343 q 515 314 544 343 q 486 243 486 285 q 476 233 486 233 q 467 243 467 233 q 522 343 467 308 q 476 365 496 343 q 421 326 464 326 q 372 353 389 326 q 322 326 353 326 q 282 342 300 326 m 576 460 l 629 460 q 657 453 647 460 l 694 686 q 694 694 694 690 q 686 722 694 708 q 661 738 678 735 q 653 739 657 739 q 633 732 643 739 q 615 703 618 721 l 576 460 m 435 686 l 465 497 q 481 458 481 482 l 481 442 q 524 460 496 460 l 553 460 l 514 703 q 496 732 511 721 q 476 739 486 739 q 468 738 472 739 q 443 722 451 735 q 435 694 435 708 q 435 686 435 690 m 381 458 l 381 385 q 392 356 381 368 q 421 344 404 344 q 449 356 438 344 q 461 385 461 368 l 461 458 q 450 486 461 475 q 449 488 450 488 q 421 499 438 499 q 392 487 404 499 q 381 458 381 475 m 282 458 l 282 385 q 294 356 282 368 q 322 344 306 344 q 351 356 339 344 q 363 385 363 368 l 363 458 q 351 487 363 475 q 322 499 339 499 q 294 487 306 499 q 282 458 282 475 z "},"‖":{"ha":982,"x_min":28,"x_max":954,"o":"m 164 760 q 490 896 299 896 q 818 760 682 896 q 954 432 954 624 q 818 105 954 240 q 490 -31 682 -31 q 163 105 299 -31 q 28 432 28 240 q 164 760 28 624 m 47 433 q 178 119 47 250 q 492 -11 308 -11 q 806 119 676 -11 q 936 433 936 250 q 806 748 936 618 q 492 878 676 878 q 178 748 308 878 q 47 433 47 618 m 264 458 q 281 499 264 482 q 322 517 299 517 q 372 490 353 517 q 421 517 389 517 q 443 513 433 517 l 417 683 q 415 694 415 689 q 428 733 415 714 q 465 757 442 751 q 475 758 469 758 q 507 747 490 758 q 533 706 529 732 l 565 501 l 596 706 q 622 747 600 732 q 654 758 639 758 q 664 757 660 758 q 701 733 688 751 q 714 694 714 714 q 713 683 714 689 l 674 439 q 688 404 688 422 l 688 331 q 625 179 688 242 q 476 118 561 118 l 471 118 q 324 183 386 121 q 264 333 264 246 l 264 458 m 282 342 l 282 333 q 338 196 282 254 q 472 138 393 140 q 479 138 476 138 q 611 193 556 138 q 669 331 669 249 l 669 401 q 658 429 669 418 l 657 431 q 629 442 646 442 l 524 442 q 495 430 507 442 q 483 401 483 418 q 495 373 483 385 q 524 361 507 361 l 586 361 q 594 351 594 361 q 586 343 594 343 q 515 314 544 343 q 486 243 486 285 q 476 233 486 233 q 467 243 467 233 q 522 343 467 308 q 476 365 496 343 q 421 326 464 326 q 372 353 389 326 q 322 326 353 326 q 282 342 300 326 m 576 460 l 629 460 q 657 453 647 460 l 694 686 q 694 694 694 690 q 686 722 694 708 q 661 738 678 735 q 653 739 657 739 q 633 732 643 739 q 615 703 618 721 l 576 460 m 435 686 l 465 497 q 481 458 481 482 l 481 442 q 524 460 496 460 l 553 460 l 514 703 q 496 732 511 721 q 476 739 486 739 q 468 738 472 739 q 443 722 451 735 q 435 694 435 708 q 435 686 435 690 m 381 458 l 381 385 q 392 356 381 368 q 421 344 404 344 q 449 356 438 344 q 461 385 461 368 l 461 458 q 450 486 461 475 q 449 488 450 488 q 421 499 438 499 q 392 487 404 499 q 381 458 381 475 m 282 458 l 282 385 q 294 356 282 368 q 322 344 306 344 q 351 356 339 344 q 363 385 363 368 l 363 458 q 351 487 363 475 q 322 499 339 499 q 294 487 306 499 q 282 458 282 475 z "},"‗":{"ha":982,"x_min":28,"x_max":954,"o":"m 164 760 q 490 896 299 896 q 818 760 682 896 q 954 432 954 624 q 818 105 954 240 q 490 -31 682 -31 q 163 105 299 -31 q 28 432 28 240 q 164 760 28 624 m 47 433 q 178 119 47 250 q 492 -11 308 -11 q 806 119 676 -11 q 936 433 936 250 q 806 748 936 618 q 492 878 676 878 q 178 748 308 878 q 47 433 47 618 m 264 458 q 281 499 264 482 q 322 517 299 517 q 372 490 353 517 q 421 517 389 517 q 443 513 433 517 l 417 683 q 415 694 415 689 q 428 733 415 714 q 465 757 442 751 q 475 758 469 758 q 507 747 490 758 q 533 706 529 732 l 565 501 l 596 706 q 622 747 600 732 q 654 758 639 758 q 664 757 660 758 q 701 733 688 751 q 714 694 714 714 q 713 683 714 689 l 674 439 q 688 404 688 422 l 688 331 q 625 179 688 242 q 476 118 561 118 l 471 118 q 324 183 386 121 q 264 333 264 246 l 264 458 m 282 342 l 282 333 q 338 196 282 254 q 472 138 393 140 q 479 138 476 138 q 611 193 556 138 q 669 331 669 249 l 669 401 q 658 429 669 418 l 657 431 q 629 442 646 442 l 524 442 q 495 430 507 442 q 483 401 483 418 q 495 373 483 385 q 524 361 507 361 l 586 361 q 594 351 594 361 q 586 343 594 343 q 515 314 544 343 q 486 243 486 285 q 476 233 486 233 q 467 243 467 233 q 522 343 467 308 q 476 365 496 343 q 421 326 464 326 q 372 353 389 326 q 322 326 353 326 q 282 342 300 326 m 576 460 l 629 460 q 657 453 647 460 l 694 686 q 694 694 694 690 q 686 722 694 708 q 661 738 678 735 q 653 739 657 739 q 633 732 643 739 q 615 703 618 721 l 576 460 m 435 686 l 465 497 q 481 458 481 482 l 481 442 q 524 460 496 460 l 553 460 l 514 703 q 496 732 511 721 q 476 739 486 739 q 468 738 472 739 q 443 722 451 735 q 435 694 435 708 q 435 686 435 690 m 381 458 l 381 385 q 392 356 381 368 q 421 344 404 344 q 449 356 438 344 q 461 385 461 368 l 461 458 q 450 486 461 475 q 449 488 450 488 q 421 499 438 499 q 392 487 404 499 q 381 458 381 475 m 282 458 l 282 385 q 294 356 282 368 q 322 344 306 344 q 351 356 339 344 q 363 385 363 368 l 363 458 q 351 487 363 475 q 322 499 339 499 q 294 487 306 499 q 282 458 282 475 z "},"‛":{"ha":982,"x_min":28,"x_max":954,"o":"m 164 760 q 490 896 299 896 q 818 760 682 896 q 954 432 954 624 q 818 105 954 240 q 490 -31 682 -31 q 163 105 299 -31 q 28 432 28 240 q 164 760 28 624 m 47 433 q 178 119 47 250 q 492 -11 308 -11 q 806 119 676 -11 q 936 433 936 250 q 806 748 936 618 q 492 878 676 878 q 178 748 308 878 q 47 433 47 618 m 264 458 q 281 499 264 482 q 322 517 299 517 q 372 490 353 517 q 421 517 389 517 q 443 513 433 517 l 417 683 q 415 694 415 689 q 428 733 415 714 q 465 757 442 751 q 475 758 469 758 q 507 747 490 758 q 533 706 529 732 l 565 501 l 596 706 q 622 747 600 732 q 654 758 639 758 q 664 757 660 758 q 701 733 688 751 q 714 694 714 714 q 713 683 714 689 l 674 439 q 688 404 688 422 l 688 331 q 625 179 688 242 q 476 118 561 118 l 471 118 q 324 183 386 121 q 264 333 264 246 l 264 458 m 282 342 l 282 333 q 338 196 282 254 q 472 138 393 140 q 479 138 476 138 q 611 193 556 138 q 669 331 669 249 l 669 401 q 658 429 669 418 l 657 431 q 629 442 646 442 l 524 442 q 495 430 507 442 q 483 401 483 418 q 495 373 483 385 q 524 361 507 361 l 586 361 q 594 351 594 361 q 586 343 594 343 q 515 314 544 343 q 486 243 486 285 q 476 233 486 233 q 467 243 467 233 q 522 343 467 308 q 476 365 496 343 q 421 326 464 326 q 372 353 389 326 q 322 326 353 326 q 282 342 300 326 m 576 460 l 629 460 q 657 453 647 460 l 694 686 q 694 694 694 690 q 686 722 694 708 q 661 738 678 735 q 653 739 657 739 q 633 732 643 739 q 615 703 618 721 l 576 460 m 435 686 l 465 497 q 481 458 481 482 l 481 442 q 524 460 496 460 l 553 460 l 514 703 q 496 732 511 721 q 476 739 486 739 q 468 738 472 739 q 443 722 451 735 q 435 694 435 708 q 435 686 435 690 m 381 458 l 381 385 q 392 356 381 368 q 421 344 404 344 q 449 356 438 344 q 461 385 461 368 l 461 458 q 450 486 461 475 q 449 488 450 488 q 421 499 438 499 q 392 487 404 499 q 381 458 381 475 m 282 458 l 282 385 q 294 356 282 368 q 322 344 306 344 q 351 356 339 344 q 363 385 363 368 l 363 458 q 351 487 363 475 q 322 499 339 499 q 294 487 306 499 q 282 458 282 475 z "},"‟":{"ha":982,"x_min":28,"x_max":954,"o":"m 164 760 q 490 896 299 896 q 818 760 682 896 q 954 432 954 624 q 818 105 954 240 q 490 -31 682 -31 q 163 105 299 -31 q 28 432 28 240 q 164 760 28 624 m 47 433 q 178 119 47 250 q 492 -11 308 -11 q 806 119 676 -11 q 936 433 936 250 q 806 748 936 618 q 492 878 676 878 q 178 748 308 878 q 47 433 47 618 m 264 458 q 281 499 264 482 q 322 517 299 517 q 372 490 353 517 q 421 517 389 517 q 443 513 433 517 l 417 683 q 415 694 415 689 q 428 733 415 714 q 465 757 442 751 q 475 758 469 758 q 507 747 490 758 q 533 706 529 732 l 565 501 l 596 706 q 622 747 600 732 q 654 758 639 758 q 664 757 660 758 q 701 733 688 751 q 714 694 714 714 q 713 683 714 689 l 674 439 q 688 404 688 422 l 688 331 q 625 179 688 242 q 476 118 561 118 l 471 118 q 324 183 386 121 q 264 333 264 246 l 264 458 m 282 342 l 282 333 q 338 196 282 254 q 472 138 393 140 q 479 138 476 138 q 611 193 556 138 q 669 331 669 249 l 669 401 q 658 429 669 418 l 657 431 q 629 442 646 442 l 524 442 q 495 430 507 442 q 483 401 483 418 q 495 373 483 385 q 524 361 507 361 l 586 361 q 594 351 594 361 q 586 343 594 343 q 515 314 544 343 q 486 243 486 285 q 476 233 486 233 q 467 243 467 233 q 522 343 467 308 q 476 365 496 343 q 421 326 464 326 q 372 353 389 326 q 322 326 353 326 q 282 342 300 326 m 576 460 l 629 460 q 657 453 647 460 l 694 686 q 694 694 694 690 q 686 722 694 708 q 661 738 678 735 q 653 739 657 739 q 633 732 643 739 q 615 703 618 721 l 576 460 m 435 686 l 465 497 q 481 458 481 482 l 481 442 q 524 460 496 460 l 553 460 l 514 703 q 496 732 511 721 q 476 739 486 739 q 468 738 472 739 q 443 722 451 735 q 435 694 435 708 q 435 686 435 690 m 381 458 l 381 385 q 392 356 381 368 q 421 344 404 344 q 449 356 438 344 q 461 385 461 368 l 461 458 q 450 486 461 475 q 449 488 450 488 q 421 499 438 499 q 392 487 404 499 q 381 458 381 475 m 282 458 l 282 385 q 294 356 282 368 q 322 344 306 344 q 351 356 339 344 q 363 385 363 368 l 363 458 q 351 487 363 475 q 322 499 339 499 q 294 487 306 499 q 282 458 282 475 z "}," ":{"ha":347,"x_min":0,"x_max":0,"o":""},"!":{"ha":317,"x_min":50,"x_max":267,"o":"m 250 893 l 232 282 l 85 282 l 67 893 l 250 893 m 50 100 q 81 178 50 146 q 157 210 113 210 q 235 178 203 210 q 267 100 267 146 q 235 24 267 56 q 157 -7 203 -7 q 82 24 114 -7 q 50 100 50 56 z "},"\"":{"ha":481,"x_min":49,"x_max":432,"o":"m 207 893 l 182 625 l 74 625 l 49 893 l 207 893 m 275 893 l 432 893 l 407 625 l 300 625 l 275 893 z "},"#":{"ha":988,"x_min":50,"x_max":938,"o":"m 200 356 l 229 485 l 115 485 l 115 625 l 263 625 l 325 893 l 507 893 l 444 625 l 639 625 l 701 893 l 883 893 l 821 625 l 938 625 l 938 485 l 788 485 l 758 356 l 871 356 l 871 215 l 725 215 l 675 0 l 493 0 l 543 215 l 347 215 l 297 0 l 117 0 l 167 215 l 50 215 l 50 356 l 200 356 m 381 356 l 576 356 l 606 485 l 411 485 l 381 356 z "},"$":{"ha":825,"x_min":22,"x_max":801,"o":"m 22 279 l 214 279 q 215 264 214 274 q 227 231 217 254 q 257 189 238 207 q 319 156 276 171 q 421 140 363 140 q 564 170 517 140 q 611 247 611 200 q 581 313 611 286 q 500 357 550 340 q 390 388 450 374 q 271 421 331 403 q 161 464 211 439 q 80 534 111 489 q 47 639 49 579 q 47 643 47 640 q 126 821 47 753 q 342 904 204 889 l 342 1010 l 511 1010 l 511 900 q 607 873 564 892 q 676 833 650 854 q 723 786 703 811 q 753 738 743 761 q 768 697 763 715 q 775 667 774 678 l 775 656 l 583 656 q 581 666 583 660 q 569 689 579 672 q 542 719 558 706 q 491 742 525 732 q 413 753 457 753 q 281 724 328 753 q 235 651 235 694 q 235 646 235 649 q 269 592 238 614 q 352 556 301 569 q 463 531 403 543 q 582 499 522 518 q 691 451 642 479 q 771 371 740 422 q 801 249 801 319 q 726 74 801 140 q 511 -8 650 7 l 511 -112 l 342 -112 l 342 -10 q 194 35 258 1 q 99 109 131 68 q 49 189 68 150 q 26 253 31 228 l 22 279 z "},"%":{"ha":940,"x_min":50,"x_max":890,"o":"m 50 679 q 100 846 50 783 q 244 908 150 908 q 389 847 342 908 q 436 679 436 785 q 389 513 436 575 q 244 451 342 451 q 100 514 150 451 q 50 679 50 576 m 504 210 q 554 376 504 314 q 699 439 604 439 q 843 377 796 439 q 890 210 890 315 q 843 44 890 106 q 699 -18 796 -18 q 554 44 604 -18 q 504 210 504 107 m 68 0 l 761 893 l 883 893 l 192 0 l 68 0 m 244 529 q 342 679 342 529 q 244 831 342 831 q 144 679 144 831 q 244 529 144 529 m 699 60 q 796 210 796 60 q 699 361 796 361 q 599 210 599 361 q 699 60 599 60 z "},"&":{"ha":932,"x_min":50,"x_max":882,"o":"m 50 258 q 193 478 50 413 q 99 649 99 535 q 199 824 99 756 q 444 893 299 893 q 705 817 603 893 q 807 649 807 740 l 615 649 q 569 719 615 685 q 444 753 524 753 q 319 726 367 753 q 267 649 271 700 q 265 633 265 640 q 297 558 265 589 q 401 528 329 528 l 882 528 l 882 392 l 807 392 l 807 197 q 817 160 807 171 q 853 150 826 150 l 882 150 l 882 0 l 847 0 q 706 17 754 0 q 639 81 658 33 q 406 -14 556 -14 q 142 59 235 -14 q 50 258 50 132 m 243 269 q 283 171 243 213 q 419 126 322 129 q 570 179 521 129 q 622 311 619 229 l 622 392 l 386 392 q 281 358 318 392 q 243 269 243 325 z "},"'":{"ha":256,"x_min":49,"x_max":207,"o":"m 207 893 l 182 625 l 74 625 l 49 893 l 207 893 z "},"(":{"ha":375,"x_min":50,"x_max":325,"o":"m 50 424 q 88 726 50 585 q 161 928 125 867 l 199 989 l 325 989 q 313 966 321 981 q 284 898 304 951 q 249 784 264 844 q 221 626 233 724 q 208 424 208 528 q 220 224 208 319 q 249 65 232 128 q 284 -47 267 1 q 314 -117 301 -94 l 325 -139 l 199 -139 q 183 -115 193 -131 q 147 -44 172 -99 q 101 70 121 10 q 66 226 82 131 q 50 424 50 322 z "},")":{"ha":375,"x_min":50,"x_max":325,"o":"m 176 989 q 192 965 182 981 q 228 894 203 949 q 274 779 254 840 q 309 622 293 718 q 325 424 325 525 q 310 228 325 322 q 273 69 294 133 q 229 -44 251 6 q 192 -117 207 -93 l 176 -139 l 50 -139 q 63 -116 54 -131 q 91 -48 71 -101 q 127 65 111 6 q 156 222 143 125 q 168 424 168 319 q 138 731 168 590 q 79 931 108 872 l 50 989 l 176 989 z "},"*":{"ha":474,"x_min":49,"x_max":425,"o":"m 425 719 l 314 689 l 385 600 l 303 539 l 236 638 l 169 540 l 88 600 l 158 689 l 49 719 l 79 817 l 190 776 l 186 893 l 288 893 l 283 776 l 394 817 l 425 719 z "},"+":{"ha":758,"x_min":117,"x_max":640,"o":"m 117 474 l 303 474 l 303 665 l 457 665 l 457 474 l 640 474 l 640 333 l 457 333 l 457 142 l 303 142 l 303 333 l 117 333 l 117 474 z "},",":{"ha":325,"x_min":44,"x_max":279,"o":"m 81 192 l 279 192 l 161 -110 l 44 -110 l 81 192 z "},"-":{"ha":758,"x_min":117,"x_max":640,"o":"m 640 276 l 117 276 l 117 417 l 640 417 l 640 276 z "},".":{"ha":306,"x_min":44,"x_max":261,"o":"m 44 100 q 76 178 44 146 q 151 210 107 210 q 229 178 197 210 q 261 100 261 146 q 229 24 261 56 q 151 -7 197 -7 q 76 24 108 -7 q 44 100 44 56 z "},"/":{"ha":654,"x_min":50,"x_max":604,"o":"m 221 0 l 50 0 l 433 893 l 604 893 l 221 0 z "},":":{"ha":306,"x_min":44,"x_max":261,"o":"m 44 500 q 76 578 44 546 q 151 610 107 610 q 229 578 197 610 q 261 500 261 546 q 229 424 261 456 q 151 393 197 393 q 76 424 108 393 q 44 500 44 456 m 76 178 q 151 210 107 210 q 229 178 197 210 q 261 100 261 146 q 229 24 261 56 q 151 -7 197 -7 q 76 24 108 -7 q 44 100 44 56 q 76 178 44 146 z "},";":{"ha":339,"x_min":44,"x_max":294,"o":"m 81 192 l 279 192 l 161 -110 l 44 -110 l 81 192 m 79 500 q 110 578 79 546 q 186 610 142 610 q 263 578 231 610 q 294 500 294 546 q 263 424 294 456 q 186 393 231 393 q 110 424 142 393 q 79 500 79 456 z "},"<":{"ha":758,"x_min":117,"x_max":640,"o":"m 640 654 l 640 515 l 288 403 l 640 290 l 640 150 l 117 319 l 117 485 l 640 654 z "},"=":{"ha":758,"x_min":117,"x_max":640,"o":"m 640 593 l 640 454 l 117 454 l 117 593 l 640 593 m 117 204 l 117 343 l 640 343 l 640 204 l 117 204 z "},">":{"ha":758,"x_min":117,"x_max":640,"o":"m 469 403 l 117 515 l 117 654 l 640 485 l 640 319 l 117 150 l 117 290 l 469 403 z "},"?":{"ha":733,"x_min":50,"x_max":683,"o":"m 50 625 q 51 641 50 631 q 57 681 51 651 q 73 736 63 710 q 107 795 83 763 q 163 851 131 828 q 247 891 194 875 q 367 907 300 907 q 602 838 521 907 q 683 660 683 769 q 683 649 683 654 q 656 549 682 590 q 592 483 629 508 q 519 434 556 458 q 456 369 483 410 q 428 271 429 328 l 268 271 q 268 279 268 275 q 289 398 268 347 q 342 477 310 449 q 406 528 374 506 q 464 580 439 550 q 493 649 489 610 q 494 661 494 656 q 462 727 494 701 q 372 753 429 753 q 367 753 369 753 q 300 738 328 751 q 260 706 272 725 q 242 669 249 688 q 235 638 235 650 l 235 625 l 50 625 m 272 178 q 347 210 303 210 q 425 178 393 210 q 457 100 457 146 q 425 24 457 56 q 347 -7 393 -7 q 272 24 303 -7 q 240 100 240 56 q 272 178 240 146 z "},"@":{"ha":1275,"x_min":28,"x_max":1247,"o":"m 31 431 q 133 715 44 596 q 356 890 221 833 q 658 947 492 947 q 952 888 818 947 q 1167 714 1086 828 q 1247 454 1247 600 q 1168 213 1247 311 q 976 114 1089 114 q 956 115 967 114 q 775 217 821 125 q 613 119 719 125 q 593 119 603 119 q 410 191 485 119 q 336 374 336 263 q 336 393 336 383 q 430 598 343 517 q 632 679 517 679 q 647 679 639 679 q 794 596 746 674 l 800 644 l 922 644 l 893 365 q 890 326 890 344 q 974 214 890 215 q 976 214 975 214 q 1069 285 1038 214 q 1100 454 1100 356 q 978 738 1100 636 q 658 839 856 839 q 328 730 457 839 q 186 419 200 621 q 185 374 185 396 q 318 66 185 182 q 678 -50 451 -50 q 794 -40 742 -50 q 877 -17 847 -31 q 928 9 907 -4 q 956 32 949 22 l 964 42 l 1143 42 q 1130 20 1139 33 q 1084 -28 1121 7 q 999 -90 1047 -62 q 865 -138 951 -117 q 676 -160 779 -160 q 411 -119 533 -160 q 200 -6 289 -79 q 69 170 111 68 q 28 378 28 272 q 31 431 28 404 m 521 271 q 618 229 561 229 q 622 229 621 229 q 725 281 686 231 q 771 401 764 332 q 772 432 772 418 q 739 535 772 497 q 643 572 706 572 q 640 572 642 572 q 536 524 582 572 q 485 393 490 476 q 485 375 485 383 q 521 271 485 307 z "},"A":{"ha":956,"x_min":0,"x_max":956,"o":"m 0 0 l 378 893 l 579 893 l 956 0 l 763 0 l 701 151 l 256 151 l 194 0 l 0 0 m 640 303 l 479 706 l 317 303 l 640 303 z "},"B":{"ha":869,"x_min":50,"x_max":835,"o":"m 50 893 l 446 893 q 790 649 790 893 q 672 482 790 538 q 835 261 835 421 q 740 72 835 144 q 472 0 644 0 l 50 0 l 50 893 m 463 150 q 642 269 642 150 q 595 359 642 333 q 461 385 549 385 l 231 385 l 231 150 l 463 150 m 231 743 l 231 536 l 453 536 q 573 558 531 536 q 615 638 615 581 q 446 743 615 743 l 231 743 z "},"C":{"ha":944,"x_min":28,"x_max":917,"o":"m 28 446 q 151 781 28 656 q 492 907 274 907 q 640 890 572 907 q 749 847 707 874 q 825 788 792 819 q 875 723 858 756 q 901 663 892 690 q 914 619 911 636 l 917 603 l 724 603 q 719 619 722 608 q 701 655 717 629 q 662 701 685 681 q 594 737 639 721 q 492 753 549 753 q 292 669 364 753 q 221 446 221 586 q 293 224 221 308 q 492 140 365 140 q 591 156 547 140 q 658 193 635 171 q 696 238 681 215 q 715 275 711 260 l 719 290 l 911 290 q 909 273 911 283 q 897 231 907 263 q 871 170 886 199 q 823 106 856 142 q 748 46 790 71 q 639 3 706 21 q 492 -14 572 -14 q 147 110 267 -14 q 28 446 28 233 z "},"D":{"ha":942,"x_min":50,"x_max":914,"o":"m 456 893 q 789 773 664 893 q 914 446 914 653 q 789 119 914 239 q 456 0 664 0 l 50 0 l 50 893 l 456 893 m 456 150 q 660 235 590 151 q 731 446 731 318 q 662 665 731 588 q 456 743 593 743 l 231 743 l 231 150 l 456 150 z "},"E":{"ha":769,"x_min":50,"x_max":735,"o":"m 50 893 l 721 893 l 721 743 l 231 743 l 231 522 l 654 522 l 654 371 l 231 371 l 231 150 l 735 150 l 735 0 l 50 0 l 50 893 z "},"F":{"ha":728,"x_min":50,"x_max":693,"o":"m 693 893 l 693 743 l 231 743 l 231 503 l 622 503 l 622 351 l 231 351 l 231 0 l 50 0 l 50 893 l 693 893 z "},"G":{"ha":968,"x_min":28,"x_max":938,"o":"m 28 446 q 151 782 28 657 q 499 907 274 907 q 647 890 579 907 q 757 847 714 874 q 833 788 800 819 q 884 723 867 756 q 912 663 901 690 q 925 619 922 636 l 928 603 l 735 603 q 731 619 733 608 q 712 655 728 629 q 672 701 696 681 q 603 737 649 721 q 500 753 558 753 q 292 670 363 753 q 221 446 221 588 q 294 224 221 308 q 499 140 368 140 q 614 159 564 140 q 691 208 664 178 q 732 265 718 238 q 753 319 746 292 l 497 319 l 497 469 l 936 469 q 938 413 938 440 q 826 101 938 215 q 499 -14 715 -14 q 150 110 272 -14 q 28 446 28 233 z "},"H":{"ha":933,"x_min":50,"x_max":883,"o":"m 231 893 l 231 522 l 703 522 l 703 893 l 883 893 l 883 0 l 703 0 l 703 371 l 231 371 l 231 0 l 50 0 l 50 893 l 231 893 z "},"I":{"ha":714,"x_min":28,"x_max":686,"o":"m 28 150 l 267 150 l 267 743 l 32 743 l 32 893 l 682 893 l 682 743 l 447 743 l 447 150 l 686 150 l 686 0 l 28 0 l 28 150 z "},"J":{"ha":807,"x_min":31,"x_max":757,"o":"m 31 365 l 217 365 q 218 358 218 364 q 217 345 218 353 q 217 332 217 338 q 225 282 217 313 q 248 219 233 251 q 301 164 263 188 q 394 140 340 140 q 536 198 496 140 q 576 357 576 256 l 576 893 l 757 893 l 757 357 q 674 85 757 183 q 394 -14 592 -14 q 232 11 301 -14 q 125 73 163 36 q 65 164 88 110 q 37 264 43 218 q 31 365 31 310 z "},"K":{"ha":839,"x_min":50,"x_max":833,"o":"m 50 0 l 50 893 l 231 893 l 231 496 l 578 893 l 800 893 l 453 511 l 833 0 l 614 0 l 333 379 l 231 267 l 231 0 l 50 0 z "},"L":{"ha":686,"x_min":50,"x_max":656,"o":"m 231 150 l 656 150 l 656 0 l 50 0 l 50 893 l 231 893 l 231 150 z "},"M":{"ha":1161,"x_min":50,"x_max":1111,"o":"m 50 0 l 50 893 l 244 893 l 581 169 l 917 893 l 1111 893 l 1111 0 l 931 0 l 931 571 l 669 0 l 492 0 l 231 571 l 231 0 l 50 0 z "},"N":{"ha":940,"x_min":50,"x_max":890,"o":"m 50 893 l 247 893 l 710 238 l 710 893 l 890 893 l 890 0 l 692 0 l 231 646 l 231 0 l 50 0 l 50 893 z "},"O":{"ha":1010,"x_min":28,"x_max":982,"o":"m 28 446 q 158 778 28 649 q 506 907 289 907 q 852 778 722 907 q 982 446 982 649 q 852 115 982 244 q 506 -14 722 -14 q 158 115 289 -14 q 28 446 28 244 m 218 446 q 293 224 218 308 q 506 140 368 140 q 719 225 644 140 q 793 446 793 308 q 719 668 793 583 q 506 753 644 753 q 294 667 369 753 q 218 446 218 582 z "},"P":{"ha":817,"x_min":50,"x_max":788,"o":"m 419 893 q 788 608 788 893 q 698 395 788 476 q 419 314 608 314 l 231 314 l 231 0 l 50 0 l 50 893 l 419 893 m 231 743 l 231 465 l 419 465 q 557 502 507 465 q 607 608 607 539 q 419 743 607 743 l 231 743 z "},"Q":{"ha":1010,"x_min":28,"x_max":982,"o":"m 28 446 q 158 778 28 649 q 506 907 289 907 q 852 778 722 907 q 982 446 982 649 q 875 140 982 265 q 586 -8 768 15 l 586 -19 q 597 -53 586 -43 q 632 -62 607 -62 l 693 -62 l 693 -183 l 632 -183 q 470 -151 513 -183 q 428 -19 428 -119 l 428 -10 q 136 139 244 14 q 28 446 28 264 m 272 251 q 428 149 326 171 l 428 253 l 585 253 l 585 149 q 740 250 686 171 q 793 446 793 329 q 719 668 793 583 q 506 753 644 753 q 294 667 369 753 q 218 446 218 582 q 272 251 218 331 z "},"R":{"ha":836,"x_min":50,"x_max":788,"o":"m 50 893 l 419 893 q 788 608 788 893 q 669 374 788 450 q 761 222 761 347 l 761 0 l 581 0 l 581 222 q 562 293 581 272 q 493 314 543 314 l 231 314 l 231 0 l 50 0 l 50 893 m 231 465 l 419 465 q 557 502 507 465 q 607 608 607 539 q 419 743 607 743 l 231 743 l 231 465 z "},"S":{"ha":825,"x_min":22,"x_max":801,"o":"m 214 279 q 215 264 214 274 q 227 231 217 254 q 257 189 238 207 q 319 156 276 171 q 421 140 363 140 q 564 170 517 140 q 611 247 611 200 q 581 313 611 286 q 500 357 550 340 q 390 388 450 374 q 271 421 331 403 q 161 464 211 439 q 80 534 111 489 q 47 639 49 579 q 47 643 47 640 q 145 837 47 767 q 411 907 243 907 q 585 881 511 907 q 694 818 660 856 q 749 744 729 781 q 772 681 769 707 l 775 656 l 583 656 q 581 666 583 660 q 569 689 579 672 q 542 719 558 706 q 491 742 525 732 q 413 753 457 753 q 281 724 328 753 q 235 651 235 694 q 235 646 235 649 q 269 592 238 614 q 352 556 301 569 q 463 531 403 543 q 582 499 522 518 q 691 451 642 479 q 771 371 740 422 q 801 249 801 319 q 701 55 801 124 q 421 -14 601 -14 q 281 2 344 -14 q 178 44 218 18 q 107 101 138 69 q 61 164 76 132 q 36 222 46 196 q 25 264 26 247 l 22 279 l 214 279 z "},"T":{"ha":831,"x_min":28,"x_max":803,"o":"m 28 893 l 803 893 l 803 743 l 506 743 l 506 0 l 325 0 l 325 743 l 28 743 l 28 893 z "},"U":{"ha":901,"x_min":50,"x_max":851,"o":"m 231 893 l 231 368 q 278 201 231 261 q 450 140 326 140 q 623 201 575 140 q 671 368 671 261 l 671 893 l 851 893 l 851 368 q 842 251 851 303 q 806 147 832 199 q 735 62 779 96 q 619 7 692 28 q 450 -14 547 -14 q 244 16 326 -14 q 121 103 161 46 q 65 222 81 160 q 50 368 50 283 l 50 893 l 231 893 z "},"V":{"ha":986,"x_min":15,"x_max":971,"o":"m 210 893 l 494 188 l 778 893 l 971 893 l 594 0 l 394 0 l 15 893 l 210 893 z "},"W":{"ha":1493,"x_min":15,"x_max":1478,"o":"m 210 893 l 429 224 l 664 893 l 829 893 l 1065 224 l 1285 893 l 1478 893 l 1168 0 l 979 0 l 747 658 l 517 0 l 326 0 l 15 893 l 210 893 z "},"X":{"ha":1031,"x_min":17,"x_max":1013,"o":"m 407 453 l 31 893 l 250 893 l 511 586 l 779 893 l 999 893 l 621 458 l 1013 0 l 793 0 l 517 324 l 236 0 l 17 0 l 407 453 z "},"Y":{"ha":975,"x_min":15,"x_max":960,"o":"m 219 893 l 489 481 l 757 893 l 960 893 l 578 321 l 578 0 l 397 0 l 397 321 l 15 893 l 219 893 z "},"Z":{"ha":990,"x_min":50,"x_max":940,"o":"m 296 150 l 940 150 l 940 0 l 50 0 l 50 150 l 682 743 l 74 743 l 74 893 l 935 893 l 935 751 l 296 150 z "},"[":{"ha":368,"x_min":50,"x_max":318,"o":"m 318 1043 l 318 917 l 207 917 l 207 -47 l 318 -47 l 318 -174 l 50 -174 l 50 1043 l 318 1043 z "},"\\":{"ha":571,"x_min":-33,"x_max":521,"o":"m 350 0 l -33 893 l 138 893 l 521 0 l 350 0 z "},"]":{"ha":368,"x_min":50,"x_max":318,"o":"m 50 917 l 50 1043 l 318 1043 l 318 -174 l 50 -174 l 50 -47 l 161 -47 l 161 917 l 50 917 z "},"^":{"ha":601,"x_min":49,"x_max":553,"o":"m 218 897 l 383 897 l 553 499 l 414 499 l 301 768 l 189 499 l 49 499 l 218 897 z "},"_":{"ha":918,"x_min":118,"x_max":800,"o":"m 800 -124 l 118 -124 l 118 17 l 800 17 l 800 -124 z "},"`":{"ha":379,"x_min":50,"x_max":329,"o":"m 260 857 l 329 694 l 175 694 l 50 857 l 260 857 z "},"a":{"ha":740,"x_min":25,"x_max":714,"o":"m 25 172 q 471 400 25 378 l 483 400 l 483 410 q 358 507 483 507 q 276 490 306 507 q 242 457 246 474 l 238 440 l 56 440 q 58 462 56 449 q 79 509 61 475 q 126 569 97 543 q 217 617 156 596 q 360 639 278 639 q 583 578 507 639 q 658 411 658 518 l 660 229 l 660 194 q 667 160 660 169 q 696 150 675 150 l 714 150 l 714 0 l 694 0 q 565 16 610 0 q 501 75 521 32 q 269 -14 428 -14 q 86 39 147 -14 q 25 172 25 92 m 208 176 q 235 133 208 149 q 301 117 261 118 q 307 117 304 117 q 427 153 371 117 q 483 254 483 189 l 483 290 q 394 282 428 286 q 310 267 360 278 q 234 233 260 256 q 208 176 208 210 z "},"b":{"ha":776,"x_min":50,"x_max":754,"o":"m 229 893 l 229 549 q 401 636 290 631 q 431 638 417 638 q 663 547 572 638 q 754 311 754 457 q 665 74 754 161 q 438 -12 575 -12 q 399 -11 418 -12 q 225 86 283 -3 l 225 0 l 50 0 l 50 893 l 229 893 m 274 176 q 399 129 319 129 q 522 176 474 129 q 571 311 571 224 q 523 448 571 400 q 399 496 475 496 q 226 313 226 496 q 274 176 226 224 z "},"c":{"ha":704,"x_min":24,"x_max":688,"o":"m 115 551 q 367 639 206 639 q 516 616 451 639 q 611 560 581 593 q 661 494 642 528 q 683 439 681 461 l 688 415 l 506 415 q 503 424 504 418 q 491 444 501 431 q 467 469 481 458 q 427 490 454 481 q 367 499 400 499 q 247 451 288 499 q 206 318 206 404 q 247 178 206 231 q 367 126 289 126 q 454 153 419 126 q 497 208 489 181 l 506 235 l 686 235 q 682 208 685 225 q 659 149 679 192 q 608 73 639 106 q 514 13 578 40 q 367 -14 450 -14 q 114 75 204 -14 q 24 318 24 164 q 115 551 24 463 z "},"d":{"ha":776,"x_min":24,"x_max":726,"o":"m 118 551 q 346 638 204 638 q 376 636 361 638 q 547 549 486 631 l 547 893 l 726 893 l 726 0 l 551 0 l 551 86 q 379 -11 493 -4 q 340 -12 360 -12 q 113 74 203 -12 q 24 311 24 161 q 118 551 24 457 m 206 311 q 255 176 206 224 q 379 129 304 129 q 504 176 457 129 q 551 313 551 224 q 505 452 551 408 q 379 496 458 496 q 254 448 303 496 q 206 311 206 400 z "},"e":{"ha":704,"x_min":24,"x_max":681,"o":"m 113 549 q 357 639 201 639 q 595 549 510 639 q 681 311 681 460 q 678 260 681 286 l 199 260 q 249 163 204 199 q 360 126 294 126 q 415 133 390 126 q 452 149 439 140 q 474 168 465 158 q 486 185 483 178 l 489 192 l 668 192 q 662 169 667 183 q 635 120 657 156 q 583 58 614 85 q 493 8 553 31 q 358 -14 433 -14 q 116 74 208 -14 q 24 311 24 163 q 113 549 24 457 m 507 379 q 507 383 507 381 q 465 467 507 436 q 358 499 424 499 q 249 465 292 499 q 199 379 207 432 l 507 379 z "},"f":{"ha":458,"x_min":22,"x_max":431,"o":"m 96 625 l 96 696 q 144 854 96 815 q 321 893 192 893 l 431 893 l 431 743 l 321 743 q 285 733 294 743 q 275 696 275 722 l 275 625 l 431 625 l 431 475 l 275 475 l 275 0 l 96 0 l 96 475 l 22 475 l 22 625 l 96 625 z "},"g":{"ha":776,"x_min":24,"x_max":726,"o":"m 24 311 q 114 547 24 457 q 346 638 204 638 q 376 636 361 638 q 551 543 490 631 l 551 625 l 726 625 l 726 -58 q 678 -217 726 -179 q 501 -254 631 -254 l 83 -254 l 83 -107 l 501 -107 q 538 -97 528 -107 q 547 -58 547 -86 l 547 79 q 379 -11 489 -3 q 340 -12 360 -12 q 113 74 203 -12 q 24 311 24 161 m 206 311 q 255 176 206 224 q 379 129 304 129 q 504 176 457 129 q 551 313 551 224 q 505 452 551 408 q 379 496 458 496 q 254 448 303 496 q 206 311 206 400 z "},"h":{"ha":736,"x_min":50,"x_max":699,"o":"m 50 893 l 229 893 l 229 549 q 410 639 292 638 q 421 639 415 639 q 636 559 574 639 q 699 328 699 479 l 699 0 l 519 0 l 519 328 q 394 497 519 496 q 390 497 392 497 q 268 442 307 497 q 229 286 229 388 l 229 0 l 50 0 l 50 893 z "},"i":{"ha":317,"x_min":50,"x_max":267,"o":"m 247 625 l 247 0 l 69 0 l 69 625 l 247 625 m 50 799 q 81 876 50 844 q 157 908 113 908 q 235 876 203 908 q 267 799 267 844 q 235 723 267 754 q 157 692 203 692 q 82 724 114 692 q 50 799 50 756 z "},"j":{"ha":322,"x_min":-71,"x_max":272,"o":"m 29 -104 q 65 -94 56 -104 q 75 -57 75 -83 l 76 625 l 254 625 l 254 -57 q 206 -215 254 -176 q 29 -254 158 -254 l -71 -254 l -71 -104 l 29 -104 m 56 799 q 87 876 56 844 q 163 908 118 908 q 240 876 208 908 q 272 799 272 844 q 240 723 272 754 q 163 692 208 692 q 88 724 119 692 q 56 799 56 756 z "},"k":{"ha":688,"x_min":50,"x_max":696,"o":"m 50 0 l 50 893 l 229 893 l 229 372 l 458 625 l 668 625 l 426 361 l 696 0 l 500 0 l 317 240 l 229 144 l 229 0 l 50 0 z "},"l":{"ha":342,"x_min":46,"x_max":321,"o":"m 46 893 l 225 893 l 225 197 q 235 160 225 171 q 271 150 244 150 l 321 150 l 321 0 l 271 0 q 94 39 142 0 q 46 197 46 78 l 46 893 z "},"m":{"ha":1167,"x_min":44,"x_max":1129,"o":"m 217 625 l 217 536 q 403 639 276 635 q 415 639 408 639 q 642 524 583 639 q 856 639 714 635 q 871 639 864 639 q 1069 563 1010 639 q 1129 339 1129 488 l 1129 0 l 950 0 l 950 339 q 919 457 950 417 q 832 497 888 497 q 712 446 747 497 q 676 286 676 394 l 676 0 l 497 0 l 497 339 q 466 457 497 417 q 379 497 435 497 q 259 446 294 497 q 224 286 224 394 l 224 0 l 44 0 l 44 625 l 217 625 z "},"n":{"ha":731,"x_min":44,"x_max":693,"o":"m 217 625 l 217 538 q 406 639 281 638 q 415 639 411 639 q 631 558 568 639 q 693 328 693 478 l 693 0 l 514 0 l 514 328 q 389 497 514 496 q 385 497 386 497 q 263 442 301 497 q 224 286 224 388 l 224 0 l 44 0 l 44 625 l 217 625 z "},"o":{"ha":758,"x_min":24,"x_max":735,"o":"m 119 546 q 379 639 214 639 q 640 546 544 639 q 735 313 735 453 q 640 79 735 171 q 379 -14 544 -14 q 119 80 214 -14 q 24 313 24 174 q 119 546 24 453 m 206 313 q 250 179 206 232 q 379 126 294 126 q 508 180 463 126 q 553 313 553 233 q 508 447 553 396 q 379 499 464 499 q 250 447 294 499 q 206 313 206 396 z "},"p":{"ha":774,"x_min":47,"x_max":750,"o":"m 47 625 l 222 625 l 222 543 q 397 636 283 631 q 428 638 413 638 q 660 547 569 638 q 750 311 750 457 q 660 74 750 161 q 433 -12 571 -12 q 394 -11 414 -12 q 226 79 285 -3 l 226 -254 l 47 -254 l 47 625 m 222 313 q 269 176 222 224 q 394 129 317 129 q 519 176 469 129 q 568 311 568 224 q 519 448 568 400 q 394 496 471 496 q 269 452 315 496 q 222 313 222 408 z "},"q":{"ha":772,"x_min":24,"x_max":726,"o":"m 118 551 q 346 638 204 638 q 376 636 361 638 q 551 543 490 631 l 551 625 l 726 625 l 726 -254 l 547 -254 l 547 79 q 379 -11 489 -3 q 340 -12 360 -12 q 113 74 203 -12 q 24 311 24 161 q 118 551 24 457 m 206 311 q 255 176 206 224 q 379 129 304 129 q 504 176 457 129 q 551 313 551 224 q 505 452 551 408 q 379 496 458 496 q 254 448 303 496 q 206 311 206 400 z "},"r":{"ha":478,"x_min":44,"x_max":461,"o":"m 44 625 l 219 625 l 219 532 q 388 625 275 625 l 461 625 l 461 475 l 392 475 q 253 422 282 475 q 224 190 224 368 l 224 0 l 44 0 l 44 625 z "},"s":{"ha":665,"x_min":24,"x_max":642,"o":"m 24 213 l 204 213 q 205 202 204 208 q 213 179 206 196 q 232 150 219 163 q 272 127 244 138 q 339 117 300 117 q 343 117 342 117 q 454 183 454 117 q 454 186 454 185 q 390 240 453 219 q 252 273 328 261 q 110 326 176 285 q 40 436 44 367 q 40 449 40 443 q 117 581 40 522 q 325 639 193 639 q 469 619 407 639 q 559 569 531 599 q 604 511 588 540 q 624 461 621 482 l 626 442 l 444 442 q 443 449 444 444 q 435 465 442 454 q 417 485 428 476 q 382 502 406 494 q 326 510 358 510 q 244 492 274 510 q 217 451 217 475 q 218 435 217 450 q 263 404 219 421 q 367 376 307 388 q 489 347 428 364 q 594 293 550 331 q 642 197 639 256 q 642 182 642 190 q 564 42 642 97 q 328 -14 486 -14 q 184 10 246 -14 q 93 67 122 33 q 47 133 64 100 q 26 189 29 165 l 24 213 z "},"t":{"ha":446,"x_min":3,"x_max":413,"o":"m 3 625 l 83 625 l 83 808 l 263 808 l 263 625 l 413 625 l 413 475 l 264 475 l 264 197 q 274 160 264 171 q 308 150 283 150 l 413 150 l 413 0 l 308 0 q 131 39 179 0 q 83 197 83 78 l 83 475 l 3 475 l 3 625 z "},"u":{"ha":711,"x_min":38,"x_max":661,"o":"m 217 625 l 217 286 q 247 162 217 200 q 346 124 278 124 q 420 140 392 124 q 462 190 449 156 q 478 258 475 224 q 482 346 482 292 l 482 625 l 661 625 l 661 0 l 486 0 l 486 76 q 318 -14 428 -12 q 307 -14 313 -14 q 100 60 163 -14 q 38 286 38 135 l 38 625 l 217 625 z "},"v":{"ha":726,"x_min":-6,"x_max":732,"o":"m 182 625 l 363 188 l 544 625 l 732 625 l 451 0 l 274 0 l -6 625 l 182 625 z "},"w":{"ha":1071,"x_min":-6,"x_max":1076,"o":"m 182 625 l 311 210 l 458 625 l 614 625 l 758 210 l 890 625 l 1076 625 l 844 0 l 679 0 l 535 418 l 390 0 l 224 0 l -6 625 l 182 625 z "},"x":{"ha":788,"x_min":4,"x_max":785,"o":"m 290 318 l 13 625 l 221 625 l 388 440 l 556 625 l 763 625 l 492 325 l 785 0 l 576 0 l 393 203 l 211 0 l 4 0 l 290 318 z "},"y":{"ha":674,"x_min":-6,"x_max":679,"o":"m -6 625 l 182 625 l 333 208 l 493 625 l 679 625 l 401 -57 q 370 -131 382 -107 q 339 -184 358 -156 q 297 -225 319 -212 q 240 -246 275 -237 q 157 -254 206 -254 l 44 -254 l 44 -104 l 157 -104 q 205 -95 192 -104 q 231 -57 218 -86 l 254 6 l -6 625 z "},"z":{"ha":653,"x_min":17,"x_max":636,"o":"m 244 150 l 636 150 l 636 0 l 17 0 l 17 150 l 383 475 l 35 475 l 35 625 l 617 625 l 617 481 l 244 150 z "},"{":{"ha":379,"x_min":50,"x_max":329,"o":"m 114 549 l 114 843 q 292 989 114 989 l 329 989 l 329 871 l 303 871 q 264 860 274 871 q 254 822 254 850 l 254 549 q 200 421 254 464 q 254 292 254 376 l 254 28 q 264 -10 254 0 q 303 -21 274 -21 l 329 -21 l 329 -139 l 292 -139 q 114 7 114 -139 l 114 292 q 97 358 114 340 q 50 375 81 375 l 50 465 q 114 549 114 465 z "},"|":{"ha":267,"x_min":50,"x_max":217,"o":"m 217 -97 l 50 -97 l 50 990 l 217 990 l 217 -97 z "},"}":{"ha":379,"x_min":50,"x_max":329,"o":"m 50 -21 l 76 -21 q 115 -10 106 -21 q 125 28 125 0 l 125 292 q 179 421 125 376 q 125 549 125 464 l 125 822 q 115 860 125 850 q 76 871 106 871 l 50 871 l 50 989 l 88 989 q 221 955 176 989 q 265 843 265 921 l 265 549 q 329 465 265 465 l 329 375 q 282 358 299 375 q 265 292 265 340 l 265 7 q 221 -105 265 -71 q 88 -139 176 -139 l 50 -139 l 50 -21 z "},"~":{"ha":890,"x_min":117,"x_max":774,"o":"m 174 467 q 317 532 231 532 q 456 487 383 532 q 563 442 528 442 q 635 464 608 442 q 667 508 663 486 l 671 529 l 774 529 q 717 372 774 438 q 574 307 660 307 q 437 352 507 307 q 328 397 367 397 q 277 388 299 397 q 245 366 256 379 q 228 340 235 353 q 221 319 222 328 l 219 310 l 117 310 q 174 467 117 401 z "},"¡":{"ha":271,"x_min":50,"x_max":267,"o":"m 67 0 l 85 611 l 232 611 l 250 0 l 67 0 m 50 793 q 82 868 50 836 q 157 900 114 900 q 235 869 203 900 q 267 793 267 838 q 235 715 267 747 q 157 683 203 683 q 81 715 113 683 q 50 793 50 747 z "},"¢":{"ha":704,"x_min":24,"x_max":688,"o":"m 92 526 q 281 632 158 610 l 281 738 l 451 738 l 451 632 q 561 596 514 622 q 631 540 608 569 q 668 481 654 510 q 685 433 682 453 l 688 415 l 506 415 q 503 424 504 418 q 491 444 501 431 q 467 469 481 458 q 427 490 454 481 q 367 499 400 499 q 247 451 288 499 q 206 318 206 404 q 247 178 206 231 q 367 126 289 126 q 454 153 419 126 q 497 208 489 181 l 506 235 l 686 235 q 683 213 685 226 q 666 163 681 200 q 628 96 651 126 q 559 35 606 65 q 451 -7 513 6 l 451 -112 l 281 -112 l 281 -7 q 90 101 157 15 q 24 318 24 186 q 92 526 24 442 z "},"£":{"ha":754,"x_min":50,"x_max":704,"o":"m 50 150 q 121 321 118 210 l 50 321 l 50 472 l 108 472 q 94 631 94 578 q 103 708 94 671 q 135 783 113 746 q 190 847 157 819 q 276 890 224 874 q 396 907 329 907 q 553 878 488 907 q 646 808 618 849 q 689 725 674 767 q 704 654 704 683 l 704 625 l 511 625 l 511 639 q 506 669 511 647 q 490 708 500 692 q 455 739 479 725 q 396 753 431 753 q 281 636 281 753 q 281 631 281 633 q 288 558 282 613 q 296 472 293 503 l 439 472 l 439 321 l 297 321 q 246 150 288 213 l 682 150 l 682 0 l 50 0 l 50 150 z "},"¤":{"ha":711,"x_min":28,"x_max":682,"o":"m 128 775 l 210 694 q 356 733 276 733 q 501 694 435 733 l 582 775 l 682 675 l 601 594 q 642 446 642 525 q 601 297 642 367 l 672 226 l 571 126 l 500 197 q 356 158 435 158 q 210 197 276 158 l 139 126 l 38 226 l 108 297 q 67 446 67 365 q 108 594 67 526 l 28 675 l 128 775 m 214 446 q 255 345 214 388 q 354 303 296 303 q 456 345 414 303 q 497 446 497 388 q 455 547 497 506 q 354 589 413 589 q 254 547 294 589 q 214 446 214 506 z "},"¥":{"ha":975,"x_min":15,"x_max":960,"o":"m 15 893 l 219 893 l 489 481 l 757 893 l 960 893 l 647 425 l 782 425 l 782 285 l 578 285 l 578 222 l 782 222 l 782 82 l 578 82 l 578 0 l 397 0 l 397 82 l 196 82 l 196 222 l 397 222 l 397 285 l 196 285 l 196 425 l 328 425 l 15 893 z "},"¦":{"ha":267,"x_min":50,"x_max":217,"o":"m 217 990 l 217 539 l 50 539 l 50 990 l 217 990 m 50 -96 l 50 356 l 217 356 l 217 -96 l 50 -96 z "},"§":{"ha":642,"x_min":50,"x_max":592,"o":"m 190 190 l 190 179 q 197 155 190 172 q 217 124 204 138 q 257 100 229 111 q 324 89 285 89 q 422 110 389 89 q 454 168 454 132 q 415 225 454 203 q 319 261 375 247 q 206 293 263 275 q 110 350 150 311 q 71 447 71 389 q 153 601 71 544 q 72 726 72 646 q 138 857 72 807 q 315 907 203 907 q 431 890 381 907 q 506 851 481 874 q 548 801 532 828 q 567 758 564 774 q 571 735 571 743 l 431 735 q 429 742 431 738 q 421 760 428 747 q 403 783 414 774 q 369 801 392 793 q 317 808 347 808 q 233 789 261 808 q 206 736 206 769 q 247 685 207 706 q 343 652 286 665 q 456 620 400 639 q 552 558 513 601 q 592 450 592 515 q 513 313 592 363 q 590 169 590 263 q 522 35 590 83 q 324 -14 454 -14 q 189 7 246 -14 q 103 62 132 28 q 63 128 75 96 q 50 190 50 160 l 190 190 m 206 446 q 221 419 210 431 q 256 399 232 408 q 292 385 279 389 q 344 371 306 381 l 394 358 q 454 449 450 392 q 454 456 454 451 q 451 476 454 465 q 435 497 447 488 q 412 514 422 507 q 378 528 401 521 q 343 540 356 536 q 300 551 331 543 q 258 563 269 560 q 200 476 200 526 q 206 446 200 461 z "},"¨":{"ha":510,"x_min":50,"x_max":460,"o":"m 50 783 q 76 849 50 822 q 139 875 101 875 q 204 849 178 875 q 231 783 231 822 q 204 720 231 746 q 139 694 178 694 q 76 721 103 694 q 50 783 50 747 m 307 849 q 369 875 333 875 q 434 849 408 875 q 460 783 460 822 q 434 721 460 747 q 369 694 408 694 q 307 721 333 694 q 281 783 281 747 q 307 849 281 822 z "},"©":{"ha":1035,"x_min":28,"x_max":1007,"o":"m 28 446 q 172 793 28 649 q 518 936 315 936 q 864 792 721 936 q 1007 446 1007 649 q 863 101 1007 244 q 518 -43 719 -43 q 172 101 315 -43 q 28 446 28 244 m 261 188 q 518 78 368 78 q 776 187 668 78 q 883 446 883 296 q 776 707 883 599 q 518 815 668 815 q 260 706 367 815 q 153 446 153 597 q 261 188 153 296 m 271 451 q 339 630 271 563 q 526 697 407 697 q 638 680 590 697 q 709 637 686 663 q 746 586 732 611 q 763 544 760 561 l 765 526 l 631 526 q 628 533 631 529 q 619 549 626 538 q 602 568 613 560 q 572 583 592 576 q 526 590 551 590 q 436 553 467 590 q 406 451 406 517 q 437 344 406 385 q 526 304 468 304 q 592 325 567 304 q 625 367 618 346 l 631 388 l 764 388 l 761 367 q 744 322 758 354 q 706 264 729 289 q 636 218 683 239 q 526 197 589 197 q 338 265 406 197 q 271 451 271 333 z "},"«":{"ha":856,"x_min":117,"x_max":738,"o":"m 303 581 l 469 581 l 283 318 l 469 53 l 303 53 l 117 318 l 303 581 m 386 318 l 572 581 l 738 581 l 551 318 l 738 53 l 572 53 l 386 318 z "},"¬":{"ha":758,"x_min":117,"x_max":640,"o":"m 117 465 l 640 465 l 640 243 l 486 243 l 486 325 l 117 325 l 117 465 z "},"®":{"ha":551,"x_min":49,"x_max":503,"o":"m 115 846 q 276 913 182 913 q 437 846 371 913 q 503 685 503 779 q 436 525 503 592 q 276 458 369 458 q 115 524 182 458 q 49 685 49 590 q 115 846 49 779 m 93 685 q 147 556 93 610 q 276 501 200 501 q 405 556 351 501 q 458 685 458 610 q 405 816 458 763 q 276 869 351 869 q 147 815 200 869 q 93 685 93 761 m 186 568 l 186 807 l 285 807 q 383 732 383 807 q 351 668 383 690 q 375 628 375 661 l 375 568 l 328 568 l 328 628 q 304 653 328 653 l 235 653 l 235 568 l 186 568 m 285 693 q 335 732 335 693 q 285 767 335 767 l 235 767 l 235 693 l 285 693 z "},"¯":{"ha":485,"x_min":50,"x_max":435,"o":"m 435 694 l 50 694 l 50 813 l 435 813 l 435 694 z "},"°":{"ha":467,"x_min":49,"x_max":418,"o":"m 103 839 q 233 893 157 893 q 365 840 311 893 q 418 708 418 786 q 364 578 418 632 q 233 524 310 524 q 103 578 157 524 q 49 708 49 632 q 103 839 49 785 m 153 708 q 177 651 153 675 q 233 628 201 628 q 290 651 265 628 q 314 708 314 675 q 290 766 314 742 q 233 790 267 790 q 177 766 201 790 q 153 708 153 742 z "},"±":{"ha":758,"x_min":117,"x_max":640,"o":"m 117 408 l 117 547 l 303 547 l 303 753 l 457 753 l 457 547 l 640 547 l 640 408 l 457 408 l 457 300 l 303 300 l 303 408 l 117 408 m 117 233 l 640 233 l 640 94 l 117 94 l 117 233 z "},"²":{"ha":486,"x_min":49,"x_max":438,"o":"m 49 458 q 78 567 49 518 q 149 646 107 615 q 232 701 190 676 q 303 752 274 726 q 335 806 333 778 q 335 813 335 808 q 251 876 335 876 q 196 857 215 876 q 175 818 176 838 l 174 799 l 67 799 q 67 819 67 808 q 78 858 68 829 q 105 907 88 886 q 160 945 122 928 q 251 963 199 963 q 388 921 339 963 q 438 806 438 879 q 406 719 438 757 q 333 660 374 681 q 247 607 293 639 q 179 542 200 575 l 438 542 l 438 458 l 49 458 z "},"³":{"ha":499,"x_min":49,"x_max":450,"o":"m 156 608 q 156 601 156 606 q 163 583 157 596 q 177 561 168 571 q 205 544 186 551 q 249 536 224 536 q 316 556 292 536 q 343 611 340 576 q 343 615 343 613 q 321 667 343 649 q 276 687 299 686 q 242 688 253 688 q 196 686 219 688 l 196 756 q 210 756 203 756 q 319 822 319 756 q 300 863 319 847 q 244 878 281 878 q 186 860 206 878 q 167 824 167 842 l 165 806 l 58 806 q 60 823 58 813 q 71 860 61 833 q 98 908 81 888 q 153 946 115 929 q 244 963 192 963 q 381 921 336 963 q 425 822 425 879 q 361 725 425 754 q 450 606 450 696 q 393 495 450 540 q 249 450 336 450 q 154 466 194 450 q 95 506 114 482 q 65 553 76 529 q 50 592 53 576 l 49 608 l 156 608 z "},"´":{"ha":379,"x_min":50,"x_max":329,"o":"m 119 857 l 329 857 l 204 694 l 50 694 l 119 857 z "},"¶":{"ha":750,"x_min":50,"x_max":700,"o":"m 50 657 q 119 824 50 756 q 283 893 188 893 l 457 893 l 457 0 l 283 0 l 283 425 q 119 493 188 425 q 50 657 50 561 m 700 893 l 700 0 l 525 0 l 525 893 l 700 893 z "},"·":{"ha":317,"x_min":50,"x_max":267,"o":"m 82 471 q 157 503 113 503 q 235 471 203 503 q 267 394 267 439 q 235 319 267 350 q 157 288 203 288 q 82 319 114 288 q 50 394 50 350 q 82 471 50 439 z "},"¸":{"ha":333,"x_min":50,"x_max":283,"o":"m 50 -71 l 107 -71 q 135 -62 126 -71 q 143 -35 143 -54 l 143 28 l 283 28 l 283 -35 q 245 -156 283 -126 q 107 -186 207 -186 l 50 -186 l 50 -71 z "},"¹":{"ha":403,"x_min":49,"x_max":353,"o":"m 49 542 l 154 542 l 154 793 q 124 790 135 790 l 49 790 l 49 874 l 124 874 q 154 907 154 874 l 154 954 l 254 954 l 254 542 l 353 542 l 353 458 l 49 458 l 49 542 z "},"»":{"ha":856,"x_min":117,"x_max":738,"o":"m 117 53 l 303 318 l 117 581 l 283 581 l 469 318 l 283 53 l 117 53 m 572 318 l 386 581 l 551 581 l 738 318 l 551 53 l 386 53 l 572 318 z "},"¼":{"ha":976,"x_min":50,"x_max":926,"o":"m 450 97 l 450 181 l 701 496 l 801 496 l 801 181 l 867 181 l 867 97 l 801 97 l 801 0 l 701 0 l 701 97 l 450 97 m 803 893 l 926 893 l 233 0 l 111 0 l 803 893 m 156 481 l 156 731 q 125 728 136 728 l 50 728 l 50 813 l 125 813 q 156 844 156 813 l 156 893 l 256 893 l 256 481 l 356 481 l 356 397 l 50 397 l 50 481 l 156 481 m 701 181 l 701 358 l 557 181 l 701 181 z "},"½":{"ha":1008,"x_min":50,"x_max":958,"o":"m 801 893 l 925 893 l 232 0 l 110 0 l 801 893 m 599 108 q 669 188 628 157 q 753 243 711 218 q 824 294 794 268 q 856 347 854 319 q 856 354 856 351 q 836 400 856 382 q 779 418 817 418 q 774 418 776 418 q 696 340 696 417 l 589 340 q 590 360 589 350 q 599 399 590 369 q 626 449 608 428 q 682 487 643 469 q 774 504 721 504 q 910 463 861 504 q 958 349 958 421 q 926 261 958 300 q 854 201 894 222 q 767 149 814 181 q 700 83 721 117 l 958 83 l 958 0 l 569 0 q 599 108 569 60 m 125 813 q 156 844 156 813 l 156 893 l 256 893 l 256 481 l 356 481 l 356 397 l 50 397 l 50 481 l 156 481 l 156 731 q 125 728 136 728 l 50 728 l 50 813 l 125 813 z "},"¾":{"ha":1025,"x_min":50,"x_max":975,"o":"m 494 97 l 494 181 l 746 496 l 846 496 l 846 181 l 911 181 l 911 97 l 846 97 l 846 0 l 746 0 l 746 97 l 494 97 m 853 893 l 975 893 l 283 0 l 160 0 l 853 893 m 50 542 l 157 542 q 158 534 157 539 q 164 517 158 529 q 178 494 169 504 q 206 477 188 485 q 250 469 225 469 q 318 490 293 469 q 344 544 343 511 q 344 549 344 546 q 322 601 344 582 q 277 620 300 619 q 243 621 254 621 q 197 619 221 621 l 197 689 q 214 689 206 689 q 321 757 321 689 q 246 811 321 811 q 188 793 207 811 q 167 757 168 775 l 167 739 l 60 739 q 61 756 60 746 q 72 794 63 767 q 99 842 82 821 q 155 879 117 863 q 246 896 193 896 q 382 855 338 896 q 426 757 426 814 q 363 660 426 689 q 451 539 451 628 q 451 536 451 538 q 395 428 451 472 q 250 383 339 383 q 156 399 196 383 q 97 439 115 415 q 66 486 78 463 q 53 525 54 510 l 50 542 m 746 181 l 746 358 l 601 181 l 746 181 z "},"¿":{"ha":733,"x_min":50,"x_max":683,"o":"m 50 247 q 71 333 51 296 q 118 392 90 371 q 178 438 146 414 q 238 482 210 461 q 285 540 265 503 q 306 625 304 576 l 465 625 q 465 617 465 621 q 444 498 465 549 q 392 419 424 447 q 327 368 360 390 q 269 316 294 346 q 240 247 244 286 q 239 235 239 240 q 272 169 239 194 q 363 143 306 143 q 397 144 365 143 q 462 176 429 144 q 497 239 494 208 l 499 271 l 683 271 l 683 256 q 678 215 683 244 q 662 160 672 186 q 628 101 651 133 q 572 44 604 68 q 488 5 540 21 q 368 -11 435 -11 q 132 58 214 -11 q 50 240 50 126 q 50 247 50 243 m 276 796 q 309 871 276 839 q 386 903 342 903 q 462 871 431 903 q 493 796 493 839 q 462 718 493 750 q 386 686 431 686 q 309 718 342 686 q 276 796 276 750 z "},"À":{"ha":956,"x_min":0,"x_max":956,"o":"m 378 893 l 579 893 l 956 0 l 763 0 l 701 151 l 256 151 l 194 0 l 0 0 l 378 893 m 317 303 l 640 303 l 479 706 l 317 303 m 482 1125 l 551 963 l 396 963 l 271 1125 l 482 1125 z "},"Á":{"ha":956,"x_min":0,"x_max":956,"o":"m 0 0 l 378 893 l 579 893 l 956 0 l 763 0 l 701 151 l 256 151 l 194 0 l 0 0 m 640 303 l 479 706 l 317 303 l 640 303 m 411 963 l 481 1125 l 690 1125 l 565 963 l 411 963 z "},"Â":{"ha":956,"x_min":0,"x_max":956,"o":"m 378 893 l 579 893 l 956 0 l 763 0 l 701 151 l 256 151 l 194 0 l 0 0 l 378 893 m 640 303 l 479 706 l 317 303 l 640 303 m 396 1125 l 561 1125 l 726 963 l 572 963 l 479 1051 l 385 963 l 231 963 l 396 1125 z "},"Ã":{"ha":956,"x_min":0,"x_max":956,"o":"m 378 893 l 579 893 l 956 0 l 763 0 l 701 151 l 256 151 l 194 0 l 0 0 l 378 893 m 640 303 l 479 706 l 317 303 l 640 303 m 240 964 q 279 1074 240 1028 q 399 1122 318 1119 q 403 1122 401 1122 q 501 1097 449 1122 q 583 1071 553 1072 q 592 1071 588 1071 q 652 1082 626 1071 q 685 1106 678 1093 l 692 1119 l 740 1119 q 701 1009 740 1056 q 582 963 661 963 q 481 985 535 963 q 399 1010 428 1008 q 390 1010 394 1010 q 331 999 357 1010 q 297 976 306 989 l 289 964 l 240 964 z "},"Ä":{"ha":956,"x_min":0,"x_max":956,"o":"m 0 0 l 378 893 l 579 893 l 956 0 l 763 0 l 701 151 l 256 151 l 194 0 l 0 0 m 640 303 l 479 706 l 317 303 l 640 303 m 299 1113 q 361 1139 324 1139 q 426 1113 400 1139 q 453 1047 453 1086 q 426 984 453 1010 q 361 958 400 958 q 299 985 325 958 q 272 1047 272 1011 q 299 1113 272 1086 m 501 1047 q 528 1113 501 1086 q 592 1139 554 1139 q 656 1113 629 1139 q 682 1047 682 1086 q 656 985 682 1011 q 592 958 629 958 q 528 985 556 958 q 501 1047 501 1011 z "},"Å":{"ha":956,"x_min":0,"x_max":956,"o":"m 0 0 l 378 893 l 579 893 l 956 0 l 763 0 l 701 151 l 256 151 l 194 0 l 0 0 m 640 303 l 479 706 l 317 303 l 640 303 m 390 1165 q 479 1203 428 1203 q 568 1165 531 1203 q 606 1076 606 1128 q 568 988 606 1025 q 479 950 531 950 q 390 988 428 950 q 353 1076 353 1025 q 390 1165 353 1128 m 440 1038 q 479 1022 456 1022 q 519 1038 503 1022 q 535 1076 535 1054 q 518 1116 535 1100 q 479 1132 501 1132 q 440 1116 456 1132 q 424 1076 424 1100 q 440 1038 424 1053 z "},"Æ":{"ha":1256,"x_min":0,"x_max":1221,"o":"m 0 0 l 468 893 l 1207 893 l 1207 743 l 717 743 l 717 522 l 1142 522 l 1142 371 l 717 371 l 717 150 l 1221 150 l 1221 0 l 536 0 l 536 142 l 249 142 l 175 0 l 0 0 m 536 293 l 536 689 l 329 293 l 536 293 z "},"Ç":{"ha":944,"x_min":28,"x_max":917,"o":"m 151 782 q 492 907 274 907 q 640 890 572 907 q 749 847 707 874 q 825 788 792 819 q 875 723 858 756 q 901 663 892 690 q 914 619 911 636 l 917 603 l 724 603 q 719 619 722 608 q 701 655 717 629 q 662 701 685 681 q 594 737 639 721 q 492 753 549 753 q 292 669 364 753 q 221 446 221 586 q 293 224 221 308 q 492 140 365 140 q 591 156 547 140 q 658 193 635 171 q 696 238 681 215 q 715 275 711 260 l 719 290 l 911 290 q 907 261 910 279 q 883 195 904 243 q 827 108 861 147 q 723 34 793 69 q 561 -11 653 -1 l 561 -35 q 523 -156 561 -126 q 385 -186 485 -186 l 328 -186 l 328 -71 l 385 -71 q 413 -62 406 -71 q 421 -35 421 -54 l 421 -10 q 128 131 229 10 q 28 446 28 251 q 151 782 28 656 z "},"È":{"ha":769,"x_min":50,"x_max":735,"o":"m 50 893 l 721 893 l 721 743 l 231 743 l 231 522 l 654 522 l 654 371 l 231 371 l 231 150 l 735 150 l 735 0 l 50 0 l 50 893 m 382 1125 l 450 963 l 296 963 l 171 1125 l 382 1125 z "},"É":{"ha":769,"x_min":50,"x_max":735,"o":"m 50 893 l 721 893 l 721 743 l 231 743 l 231 522 l 654 522 l 654 371 l 231 371 l 231 150 l 735 150 l 735 0 l 50 0 l 50 893 m 381 1125 l 590 1125 l 465 963 l 311 963 l 381 1125 z "},"Ê":{"ha":769,"x_min":50,"x_max":735,"o":"m 721 893 l 721 743 l 231 743 l 231 522 l 654 522 l 654 371 l 231 371 l 231 150 l 735 150 l 735 0 l 50 0 l 50 893 l 721 893 m 131 963 l 296 1125 l 461 1125 l 626 963 l 472 963 l 379 1051 l 285 963 l 131 963 z "},"Ë":{"ha":769,"x_min":50,"x_max":735,"o":"m 50 893 l 721 893 l 721 743 l 231 743 l 231 522 l 654 522 l 654 371 l 231 371 l 231 150 l 735 150 l 735 0 l 50 0 l 50 893 m 199 1113 q 261 1139 224 1139 q 326 1113 300 1139 q 353 1047 353 1086 q 326 984 353 1010 q 261 958 300 958 q 199 985 225 958 q 172 1047 172 1011 q 199 1113 172 1086 m 401 1047 q 428 1113 401 1086 q 490 1139 454 1139 q 556 1113 529 1139 q 582 1047 582 1086 q 556 985 582 1011 q 490 958 529 958 q 428 985 454 958 q 401 1047 401 1011 z "},"Ì":{"ha":714,"x_min":28,"x_max":686,"o":"m 28 0 l 28 150 l 267 150 l 267 743 l 32 743 l 32 893 l 682 893 l 682 743 l 447 743 l 447 150 l 686 150 l 686 0 l 28 0 m 360 1125 l 429 963 l 275 963 l 149 1125 l 360 1125 z "},"Í":{"ha":714,"x_min":28,"x_max":686,"o":"m 267 150 l 267 743 l 32 743 l 32 893 l 682 893 l 682 743 l 447 743 l 447 150 l 686 150 l 686 0 l 28 0 l 28 150 l 267 150 m 289 963 l 358 1125 l 568 1125 l 444 963 l 289 963 z "},"Î":{"ha":714,"x_min":28,"x_max":686,"o":"m 267 150 l 267 743 l 32 743 l 32 893 l 682 893 l 682 743 l 447 743 l 447 150 l 686 150 l 686 0 l 28 0 l 28 150 l 267 150 m 274 1125 l 439 1125 l 604 963 l 450 963 l 357 1051 l 263 963 l 108 963 l 274 1125 z "},"Ï":{"ha":714,"x_min":28,"x_max":686,"o":"m 267 150 l 267 743 l 32 743 l 32 893 l 682 893 l 682 743 l 447 743 l 447 150 l 686 150 l 686 0 l 28 0 l 28 150 l 267 150 m 176 1113 q 239 1139 201 1139 q 304 1113 278 1139 q 331 1047 331 1086 q 304 984 331 1010 q 239 958 278 958 q 176 985 203 958 q 150 1047 150 1011 q 176 1113 150 1086 m 379 1047 q 406 1113 379 1086 q 469 1139 433 1139 q 534 1113 508 1139 q 560 1047 560 1086 q 534 985 560 1011 q 469 958 508 958 q 406 985 433 958 q 379 1047 379 1011 z "},"Ð":{"ha":1053,"x_min":50,"x_max":1025,"o":"m 50 389 l 50 506 l 161 506 l 161 893 l 567 893 q 900 773 775 893 q 1025 446 1025 653 q 900 119 1025 239 q 567 0 775 0 l 161 0 l 161 389 l 50 389 m 342 506 l 513 506 l 513 389 l 342 389 l 342 150 l 567 150 q 772 235 701 151 q 842 446 842 318 q 773 665 842 588 q 567 743 704 743 l 342 743 l 342 506 z "},"Ñ":{"ha":940,"x_min":50,"x_max":890,"o":"m 247 893 l 710 238 l 710 893 l 890 893 l 890 0 l 692 0 l 231 646 l 231 0 l 50 0 l 50 893 l 247 893 m 244 964 q 283 1074 244 1028 q 403 1122 322 1119 q 407 1122 406 1122 q 505 1097 453 1122 q 588 1071 557 1072 q 596 1071 592 1071 q 656 1082 631 1071 q 689 1106 682 1093 l 696 1119 l 744 1119 q 705 1009 744 1056 q 586 963 665 963 q 485 985 539 963 q 403 1010 432 1008 q 394 1010 399 1010 q 335 999 361 1010 q 301 976 310 989 l 293 964 l 244 964 z "},"Ò":{"ha":1010,"x_min":28,"x_max":982,"o":"m 28 446 q 158 778 28 649 q 506 907 289 907 q 852 778 722 907 q 982 446 982 649 q 852 115 982 244 q 506 -14 722 -14 q 158 115 289 -14 q 28 446 28 244 m 218 446 q 293 224 218 308 q 506 140 368 140 q 719 225 644 140 q 793 446 793 308 q 719 668 793 583 q 506 753 644 753 q 294 667 369 753 q 218 446 218 582 m 299 1125 l 508 1125 l 578 963 l 424 963 l 299 1125 z "},"Ó":{"ha":1010,"x_min":28,"x_max":982,"o":"m 28 446 q 158 778 28 649 q 506 907 289 907 q 852 778 722 907 q 982 446 982 649 q 852 115 982 244 q 506 -14 722 -14 q 158 115 289 -14 q 28 446 28 244 m 218 446 q 293 224 218 308 q 506 140 368 140 q 719 225 644 140 q 793 446 793 308 q 719 668 793 583 q 506 753 644 753 q 294 667 369 753 q 218 446 218 582 m 438 963 l 507 1125 l 718 1125 l 593 963 l 438 963 z "},"Ô":{"ha":1010,"x_min":28,"x_max":982,"o":"m 28 446 q 158 778 28 649 q 506 907 289 907 q 852 778 722 907 q 982 446 982 649 q 852 115 982 244 q 506 -14 722 -14 q 158 115 289 -14 q 28 446 28 244 m 218 446 q 293 224 218 308 q 506 140 368 140 q 719 224 644 140 q 793 446 793 308 q 719 668 793 583 q 506 753 644 753 q 294 667 369 753 q 218 446 218 582 m 257 963 l 422 1125 l 589 1125 l 754 963 l 599 963 l 506 1051 l 413 963 l 257 963 z "},"Õ":{"ha":1010,"x_min":28,"x_max":982,"o":"m 28 446 q 158 778 28 649 q 506 907 289 907 q 852 778 722 907 q 982 446 982 649 q 852 115 982 244 q 506 -14 722 -14 q 158 115 289 -14 q 28 446 28 244 m 293 225 q 506 140 368 140 q 719 225 644 140 q 793 446 793 308 q 719 668 793 583 q 506 753 644 753 q 294 667 369 753 q 218 446 218 582 q 293 225 218 308 m 267 964 q 306 1074 267 1028 q 425 1122 344 1119 q 429 1122 428 1122 q 527 1097 475 1122 q 610 1071 579 1072 q 618 1071 614 1071 q 678 1082 653 1071 q 711 1106 704 1093 l 718 1119 l 767 1119 q 727 1009 767 1056 q 608 963 688 963 q 508 985 561 963 q 425 1010 454 1008 q 417 1010 421 1010 q 358 999 383 1010 q 324 976 332 989 l 315 964 l 267 964 z "},"Ö":{"ha":1010,"x_min":28,"x_max":982,"o":"m 158 778 q 506 907 289 907 q 852 778 722 907 q 982 446 982 649 q 852 115 982 244 q 506 -14 722 -14 q 158 115 289 -14 q 28 446 28 244 q 158 778 28 649 m 293 225 q 506 140 368 140 q 719 225 644 140 q 793 446 793 308 q 719 668 793 583 q 506 753 644 753 q 294 667 369 753 q 218 446 218 582 q 293 225 218 308 m 299 1047 q 325 1113 299 1086 q 389 1139 351 1139 q 454 1113 428 1139 q 481 1047 481 1086 q 454 985 481 1011 q 389 958 428 958 q 325 985 351 958 q 299 1047 299 1011 m 556 1113 q 618 1139 582 1139 q 683 1113 657 1139 q 708 1047 708 1086 q 682 985 708 1011 q 618 958 656 958 q 556 985 582 958 q 529 1047 529 1011 q 556 1113 529 1086 z "},"×":{"ha":704,"x_min":117,"x_max":586,"o":"m 586 543 l 451 408 l 586 272 l 488 172 l 351 308 l 217 174 l 118 272 l 253 407 l 117 543 l 217 642 l 353 507 l 488 642 l 586 543 z "},"Ø":{"ha":1010,"x_min":28,"x_max":982,"o":"m 28 446 q 158 778 28 649 q 506 907 289 907 q 800 821 676 907 l 879 900 l 964 824 l 883 743 q 982 446 982 621 q 852 115 982 244 q 506 -14 722 -14 q 213 71 335 -14 l 136 -7 l 50 72 l 128 150 q 28 446 28 269 m 256 278 l 681 701 q 506 753 613 753 q 294 667 369 753 q 218 446 218 582 q 256 278 218 349 m 332 190 q 506 140 404 140 q 719 224 644 140 q 793 446 793 308 q 756 615 793 542 l 332 190 z "},"Ù":{"ha":901,"x_min":50,"x_max":851,"o":"m 50 368 l 50 893 l 231 893 l 231 368 q 278 201 231 261 q 450 140 326 140 q 623 201 575 140 q 671 368 671 261 l 671 893 l 851 893 l 851 368 q 842 251 851 303 q 806 147 832 199 q 735 62 779 96 q 619 7 692 28 q 450 -14 547 -14 q 244 16 326 -14 q 121 103 161 46 q 65 222 81 160 q 50 368 50 283 m 454 1125 l 524 963 l 368 963 l 243 1125 l 454 1125 z "},"Ú":{"ha":901,"x_min":50,"x_max":851,"o":"m 50 368 l 50 893 l 231 893 l 231 368 q 278 201 231 261 q 450 140 326 140 q 623 201 575 140 q 671 368 671 261 l 671 893 l 851 893 l 851 368 q 842 251 851 303 q 806 147 832 199 q 735 62 779 96 q 619 7 692 28 q 450 -14 547 -14 q 244 16 326 -14 q 121 103 161 46 q 65 222 81 160 q 50 368 50 283 m 383 963 l 453 1125 l 663 1125 l 538 963 l 383 963 z "},"Û":{"ha":901,"x_min":50,"x_max":851,"o":"m 50 368 l 50 893 l 231 893 l 231 368 q 278 201 231 261 q 450 140 326 140 q 623 201 575 140 q 671 368 671 261 l 671 893 l 851 893 l 851 368 q 842 251 851 303 q 806 147 832 199 q 735 62 779 96 q 619 7 692 28 q 450 -14 547 -14 q 244 16 326 -14 q 121 103 161 46 q 65 222 81 160 q 50 368 50 283 m 368 1125 l 533 1125 l 699 963 l 544 963 l 451 1051 l 357 963 l 203 963 l 368 1125 z "},"Ü":{"ha":901,"x_min":50,"x_max":851,"o":"m 50 893 l 231 893 l 231 368 q 278 201 231 261 q 450 140 326 140 q 623 201 575 140 q 671 368 671 261 l 671 893 l 851 893 l 851 368 q 842 251 851 303 q 806 147 832 199 q 735 62 779 96 q 619 7 692 28 q 450 -14 547 -14 q 244 16 326 -14 q 121 103 161 46 q 65 222 81 160 q 50 368 50 283 l 50 893 m 271 1113 q 333 1139 296 1139 q 399 1113 372 1139 q 425 1047 425 1086 q 399 984 425 1010 q 333 958 372 958 q 271 985 297 958 q 244 1047 244 1011 q 271 1113 244 1086 m 474 1047 q 500 1113 474 1086 q 564 1139 526 1139 q 628 1113 603 1139 q 654 1047 654 1086 q 628 985 654 1011 q 564 958 603 958 q 501 985 528 958 q 474 1047 474 1011 z "},"Ý":{"ha":975,"x_min":15,"x_max":960,"o":"m 219 893 l 489 481 l 757 893 l 960 893 l 578 321 l 578 0 l 397 0 l 397 321 l 15 893 l 219 893 m 421 963 l 490 1125 l 700 1125 l 575 963 l 421 963 z "},"Þ":{"ha":814,"x_min":50,"x_max":786,"o":"m 50 0 l 50 893 l 231 893 l 231 736 l 404 736 q 786 451 786 736 q 694 238 786 319 q 404 157 603 157 l 231 157 l 231 0 l 50 0 m 231 596 l 231 297 l 404 297 q 550 338 499 297 q 601 451 601 378 q 404 596 601 596 l 231 596 z "},"ß":{"ha":790,"x_min":50,"x_max":756,"o":"m 50 608 q 133 825 50 743 q 372 907 215 907 q 608 838 529 907 q 686 669 686 768 q 686 667 686 668 q 586 494 686 544 q 756 264 756 432 q 660 71 756 142 q 404 0 564 0 l 321 0 l 321 143 l 404 143 q 521 176 479 143 q 563 264 563 208 q 374 404 563 404 q 321 401 349 404 l 321 551 q 336 551 329 551 q 460 577 413 551 q 508 660 508 603 q 508 669 508 665 q 379 760 504 760 q 243 608 243 760 l 243 0 l 50 0 l 50 608 z "},"à":{"ha":740,"x_min":25,"x_max":714,"o":"m 25 172 q 471 400 25 378 l 483 400 l 483 410 q 358 507 483 507 q 276 490 306 507 q 242 457 246 474 l 238 440 l 56 440 q 58 462 56 449 q 79 509 61 475 q 126 569 97 543 q 217 617 156 596 q 360 639 278 639 q 583 578 507 639 q 658 411 658 518 l 660 229 l 660 194 q 667 160 660 169 q 696 150 675 150 l 714 150 l 714 0 l 694 0 q 565 16 610 0 q 501 75 521 32 q 269 -14 428 -14 q 86 39 147 -14 q 25 172 25 92 m 208 176 q 235 133 208 149 q 301 117 261 118 q 307 117 304 117 q 427 153 371 117 q 483 254 483 189 l 483 290 q 394 282 428 286 q 310 267 360 278 q 234 233 260 256 q 208 176 208 210 m 361 857 l 431 694 l 276 694 l 151 857 l 361 857 z "},"á":{"ha":740,"x_min":25,"x_max":714,"o":"m 25 172 q 471 400 25 378 l 483 400 l 483 410 q 358 507 483 507 q 276 490 306 507 q 242 457 246 474 l 238 440 l 56 440 q 58 462 56 449 q 79 509 61 475 q 126 569 97 543 q 217 617 156 596 q 360 639 278 639 q 583 578 507 639 q 658 411 658 518 l 660 229 l 660 194 q 667 160 660 169 q 696 150 675 150 l 714 150 l 714 0 l 694 0 q 565 16 610 0 q 501 75 521 32 q 269 -14 428 -14 q 86 39 147 -14 q 25 172 25 92 m 235 133 q 301 117 261 118 q 307 117 304 117 q 427 153 371 117 q 483 254 483 189 l 483 290 q 394 282 428 286 q 310 267 360 278 q 234 233 260 256 q 208 176 208 210 q 235 133 208 149 m 360 857 l 571 857 l 446 694 l 290 694 l 360 857 z "},"â":{"ha":740,"x_min":25,"x_max":714,"o":"m 25 172 q 471 400 25 378 l 483 400 l 483 410 q 358 507 483 507 q 276 490 306 507 q 242 457 246 474 l 238 440 l 56 440 q 58 462 56 449 q 79 509 61 475 q 126 569 97 543 q 217 617 156 596 q 360 639 278 639 q 583 578 507 639 q 658 411 658 518 l 660 229 l 660 194 q 667 160 660 169 q 696 150 675 150 l 714 150 l 714 0 l 694 0 q 565 16 610 0 q 501 75 521 32 q 269 -14 428 -14 q 86 39 147 -14 q 25 172 25 92 m 110 694 l 275 857 l 442 857 l 607 694 l 451 694 l 358 783 l 265 694 l 110 694 m 235 133 q 301 117 261 118 q 307 117 304 117 q 427 153 371 117 q 483 254 483 189 l 483 290 q 394 282 428 286 q 310 267 360 278 q 234 233 260 256 q 208 176 208 210 q 235 133 208 149 z "},"ã":{"ha":740,"x_min":25,"x_max":714,"o":"m 25 172 q 471 400 25 378 l 483 400 l 483 410 q 358 507 483 507 q 276 490 306 507 q 242 457 246 474 l 238 440 l 56 440 q 58 462 56 449 q 79 509 61 475 q 126 569 97 543 q 217 617 156 596 q 360 639 278 639 q 583 578 507 639 q 658 411 658 518 l 660 229 l 660 194 q 667 160 660 169 q 696 150 675 150 l 714 150 l 714 0 l 694 0 q 565 16 610 0 q 501 75 521 32 q 269 -14 428 -14 q 86 39 147 -14 q 25 172 25 92 m 119 696 q 158 806 119 760 q 278 854 197 851 q 282 854 281 854 q 380 829 328 854 q 463 803 432 804 q 471 803 467 803 q 531 814 506 803 q 564 839 557 825 l 571 851 l 619 851 q 580 741 619 788 q 461 694 540 694 q 360 717 414 694 q 278 742 307 740 q 269 742 274 742 q 210 731 236 742 q 176 708 185 721 l 168 696 l 119 696 m 208 176 q 235 133 208 149 q 301 117 261 118 q 307 117 304 117 q 427 153 371 117 q 483 254 483 189 l 483 290 q 394 282 428 286 q 310 267 360 278 q 234 233 260 256 q 208 176 208 210 z "},"ä":{"ha":740,"x_min":25,"x_max":714,"o":"m 471 400 l 483 400 l 483 410 q 358 507 483 507 q 276 490 306 507 q 242 457 246 474 l 238 440 l 56 440 q 58 462 56 449 q 79 509 61 475 q 126 569 97 543 q 217 617 156 596 q 360 639 278 639 q 583 578 507 639 q 658 411 658 518 l 660 229 l 660 194 q 667 160 660 169 q 696 150 675 150 l 714 150 l 714 0 l 694 0 q 565 16 610 0 q 501 75 521 32 q 269 -14 428 -14 q 86 39 147 -14 q 25 172 25 92 q 471 400 25 378 m 235 133 q 301 117 261 118 q 307 117 304 117 q 427 153 371 117 q 483 254 483 189 l 483 290 q 394 282 428 286 q 310 267 360 278 q 234 233 260 256 q 208 176 208 210 q 235 133 208 149 m 151 779 q 177 844 151 818 q 240 871 203 871 q 307 844 281 871 q 333 779 333 818 q 306 717 333 743 q 240 690 279 690 q 178 717 204 690 q 151 779 151 743 m 382 779 q 408 844 382 818 q 471 871 435 871 q 535 844 510 871 q 561 779 561 818 q 535 716 561 742 q 471 690 508 690 q 408 717 435 690 q 382 779 382 743 z "},"å":{"ha":740,"x_min":25,"x_max":714,"o":"m 471 400 l 483 400 l 483 410 q 358 507 483 507 q 276 490 306 507 q 242 457 246 474 l 238 440 l 56 440 q 58 462 56 449 q 79 509 61 475 q 126 569 97 543 q 217 617 156 596 q 360 639 278 639 q 583 578 507 639 q 658 411 658 518 l 660 229 l 660 194 q 667 160 660 169 q 696 150 675 150 l 714 150 l 714 0 l 694 0 q 565 16 610 0 q 501 75 521 32 q 269 -14 428 -14 q 86 39 147 -14 q 25 172 25 92 q 471 400 25 378 m 232 808 q 269 898 232 861 q 358 935 306 935 q 448 898 411 935 q 485 808 485 861 q 449 719 485 756 q 358 682 411 682 q 269 719 306 682 q 232 808 232 756 m 208 176 q 235 133 208 149 q 301 117 261 118 q 307 117 304 117 q 427 153 371 117 q 483 254 483 189 l 483 290 q 394 282 428 286 q 310 267 360 278 q 234 233 260 256 q 208 176 208 210 m 319 769 q 358 754 335 754 q 398 770 382 754 q 414 808 414 786 q 397 848 414 832 q 358 864 381 864 q 319 848 335 864 q 303 808 303 832 q 319 769 303 785 z "},"æ":{"ha":1161,"x_min":25,"x_max":1139,"o":"m 25 172 q 50 258 25 221 q 121 318 75 296 q 213 354 167 340 q 317 374 258 368 q 410 382 376 381 q 482 383 444 383 l 482 399 q 450 486 482 456 q 358 517 418 517 q 272 499 303 517 q 236 463 240 481 l 232 444 l 50 444 q 54 466 51 453 q 76 513 57 479 q 124 572 94 546 q 215 618 153 597 q 360 639 278 639 q 581 557 513 639 q 815 639 669 639 q 1053 549 967 639 q 1139 311 1139 460 q 1136 260 1139 286 l 657 260 q 708 163 663 199 q 818 126 753 126 q 873 133 849 126 q 910 149 897 140 q 933 168 924 158 q 944 185 942 178 l 947 192 l 1126 192 q 1120 169 1125 183 q 1094 120 1115 156 q 1042 58 1072 85 q 951 8 1011 31 q 817 -14 892 -14 q 549 103 642 -14 q 268 -14 450 -14 q 85 39 146 -14 q 25 172 25 92 m 965 379 q 965 383 965 381 q 924 467 965 436 q 817 499 882 499 q 708 465 750 499 q 657 379 665 432 l 965 379 m 240 133 q 304 117 265 118 q 313 117 308 117 q 428 153 374 117 q 483 254 483 189 l 486 254 l 486 257 q 400 255 436 257 q 315 246 364 253 q 241 222 267 239 q 215 176 215 204 q 240 133 215 149 z "},"ç":{"ha":704,"x_min":24,"x_max":688,"o":"m 115 551 q 367 639 206 639 q 516 616 451 639 q 611 560 581 593 q 661 494 642 528 q 683 439 681 461 l 688 415 l 506 415 q 503 424 504 418 q 491 444 501 431 q 467 469 481 458 q 427 490 454 481 q 367 499 400 499 q 247 451 288 499 q 206 318 206 404 q 247 178 206 231 q 367 126 289 126 q 454 153 419 126 q 497 208 489 181 l 506 235 l 686 235 q 683 212 685 226 q 665 160 681 197 q 624 92 649 122 q 551 31 600 61 q 436 -8 501 1 l 436 -35 q 398 -156 436 -126 q 260 -186 360 -186 l 204 -186 l 204 -71 l 260 -71 q 288 -62 281 -71 q 296 -35 296 -54 l 296 -8 q 94 97 165 10 q 24 318 24 183 q 115 551 24 463 z "},"è":{"ha":704,"x_min":24,"x_max":681,"o":"m 24 311 q 113 548 24 457 q 357 639 201 639 q 595 549 510 639 q 681 311 681 460 q 678 260 681 286 l 199 260 q 249 163 204 199 q 360 126 294 126 q 415 133 390 126 q 452 149 439 140 q 474 168 465 158 q 486 185 483 178 l 489 192 l 668 192 q 662 169 667 183 q 635 120 657 156 q 583 58 614 85 q 493 8 553 31 q 358 -14 433 -14 q 116 74 208 -14 q 24 311 24 163 m 199 379 l 507 379 q 507 383 507 381 q 465 467 507 436 q 358 499 424 499 q 249 465 292 499 q 199 379 207 432 m 154 857 l 364 857 l 433 694 l 279 694 l 154 857 z "},"é":{"ha":704,"x_min":24,"x_max":681,"o":"m 24 311 q 113 548 24 457 q 357 639 201 639 q 595 549 510 639 q 681 311 681 460 q 678 260 681 286 l 199 260 q 249 163 204 199 q 360 126 294 126 q 415 133 390 126 q 452 149 439 140 q 474 168 465 158 q 486 185 483 178 l 489 192 l 668 192 q 662 169 667 183 q 635 120 657 156 q 583 58 614 85 q 493 8 553 31 q 358 -14 433 -14 q 116 74 208 -14 q 24 311 24 163 m 199 379 l 507 379 q 507 383 507 381 q 465 467 507 436 q 358 499 424 499 q 249 465 292 499 q 199 379 207 432 m 293 694 l 363 857 l 574 857 l 449 694 l 293 694 z "},"ê":{"ha":704,"x_min":24,"x_max":681,"o":"m 113 549 q 357 639 201 639 q 595 549 510 639 q 681 311 681 460 q 678 260 681 286 l 199 260 q 249 163 204 199 q 360 126 294 126 q 415 133 390 126 q 452 149 439 140 q 474 168 465 158 q 486 185 483 178 l 489 192 l 668 192 q 662 169 667 183 q 635 120 657 156 q 583 58 614 85 q 493 8 553 31 q 358 -14 433 -14 q 116 74 208 -14 q 24 311 24 163 q 113 549 24 457 m 113 694 l 278 857 l 444 857 l 610 694 l 454 694 l 361 783 l 268 694 l 113 694 m 199 379 l 507 379 q 507 383 507 381 q 465 467 507 436 q 358 499 424 499 q 249 465 292 499 q 199 379 207 432 z "},"ë":{"ha":704,"x_min":24,"x_max":681,"o":"m 113 549 q 357 639 201 639 q 595 549 510 639 q 681 311 681 460 q 678 260 681 286 l 199 260 q 249 163 204 199 q 360 126 294 126 q 415 133 390 126 q 452 149 439 140 q 474 168 465 158 q 486 185 483 178 l 489 192 l 668 192 q 662 169 667 183 q 635 120 657 156 q 583 58 614 85 q 493 8 553 31 q 358 -14 433 -14 q 116 74 208 -14 q 24 311 24 163 q 113 549 24 457 m 199 379 l 507 379 q 507 383 507 381 q 465 467 507 436 q 358 499 424 499 q 249 465 292 499 q 199 379 207 432 m 154 779 q 180 844 154 818 q 243 871 206 871 q 310 844 283 871 q 336 779 336 818 q 309 717 336 743 q 243 690 282 690 q 181 717 207 690 q 154 779 154 743 m 411 844 q 474 871 438 871 q 538 844 513 871 q 564 779 564 818 q 538 716 564 742 q 474 690 511 690 q 411 717 438 690 q 385 779 385 743 q 411 844 385 818 z "},"ì":{"ha":397,"x_min":50,"x_max":347,"o":"m 260 857 l 329 694 l 175 694 l 50 857 l 260 857 m 347 0 l 168 0 l 168 625 l 347 625 l 347 0 z "},"í":{"ha":401,"x_min":50,"x_max":351,"o":"m 142 857 l 351 857 l 226 694 l 72 694 l 142 857 m 229 0 l 50 0 l 50 625 l 229 625 l 229 0 z "},"î":{"ha":597,"x_min":50,"x_max":547,"o":"m 210 625 l 389 625 l 389 0 l 210 0 l 210 625 m 50 694 l 215 857 l 382 857 l 547 694 l 392 694 l 299 783 l 206 694 l 50 694 z "},"ï":{"ha":510,"x_min":50,"x_max":460,"o":"m 346 625 l 346 0 l 167 0 l 167 625 l 346 625 m 50 779 q 76 844 50 818 q 139 871 101 871 q 204 845 178 871 q 231 779 231 819 q 204 716 231 742 q 139 690 178 690 q 76 717 103 690 q 50 779 50 743 m 281 779 q 307 844 281 818 q 369 871 333 871 q 434 844 408 871 q 460 779 460 818 q 434 716 460 742 q 369 690 408 690 q 307 717 333 690 q 281 779 281 743 z "},"ð":{"ha":788,"x_min":28,"x_max":760,"o":"m 626 750 q 760 403 760 606 q 662 99 760 213 q 388 -15 564 -15 q 124 74 219 -15 q 28 301 28 164 q 117 515 28 432 q 346 599 207 599 q 483 573 424 599 q 561 522 542 547 l 581 497 q 500 663 581 578 l 429 613 l 350 693 l 406 732 q 243 771 328 772 l 244 908 q 536 826 408 910 l 606 875 l 688 793 l 626 750 m 388 129 q 513 176 461 129 q 564 299 564 224 q 517 422 564 378 q 388 465 471 465 q 264 421 313 465 q 215 301 215 376 q 260 179 215 229 q 388 129 304 129 z "},"ñ":{"ha":731,"x_min":44,"x_max":693,"o":"m 217 625 l 217 538 q 406 639 281 638 q 415 639 411 639 q 631 558 568 639 q 693 328 693 478 l 693 0 l 514 0 l 514 328 q 389 497 514 496 q 385 497 386 497 q 263 442 301 497 q 224 286 224 388 l 224 0 l 44 0 l 44 625 l 217 625 m 153 699 q 192 808 153 763 q 311 857 231 854 q 315 857 314 857 q 413 832 361 857 q 496 806 465 807 q 504 806 500 806 q 565 817 539 806 q 597 842 590 829 l 604 854 l 653 854 q 613 744 653 790 q 494 697 574 697 q 394 720 447 697 q 311 744 340 743 q 303 744 307 744 q 244 734 269 744 q 210 711 218 724 l 201 699 l 153 699 z "},"ò":{"ha":758,"x_min":24,"x_max":735,"o":"m 24 313 q 119 546 24 453 q 379 639 214 639 q 640 546 544 639 q 735 313 735 453 q 640 79 735 171 q 379 -14 544 -14 q 119 80 214 -14 q 24 313 24 174 m 250 179 q 379 126 294 126 q 508 180 463 126 q 553 313 553 233 q 508 447 553 396 q 379 499 464 499 q 250 447 294 499 q 206 313 206 396 q 250 179 206 232 m 172 857 l 382 857 l 451 694 l 297 694 l 172 857 z "},"ó":{"ha":758,"x_min":24,"x_max":735,"o":"m 24 313 q 119 546 24 453 q 379 639 214 639 q 640 546 544 639 q 735 313 735 453 q 640 79 735 171 q 379 -14 544 -14 q 119 80 214 -14 q 24 313 24 174 m 250 179 q 379 126 294 126 q 508 180 463 126 q 553 313 553 233 q 508 447 553 396 q 379 499 464 499 q 250 447 294 499 q 206 313 206 396 q 250 179 206 232 m 311 694 l 381 857 l 592 857 l 467 694 l 311 694 z "},"ô":{"ha":758,"x_min":24,"x_max":735,"o":"m 24 313 q 119 546 24 453 q 379 639 214 639 q 640 546 544 639 q 735 313 735 453 q 640 78 735 171 q 379 -14 544 -14 q 119 80 214 -14 q 24 313 24 174 m 206 313 q 250 179 206 232 q 379 126 294 126 q 508 180 463 126 q 553 313 553 233 q 508 447 553 396 q 379 499 464 499 q 250 447 294 499 q 206 313 206 396 m 131 694 l 296 857 l 463 857 l 628 694 l 472 694 l 379 783 l 286 694 l 131 694 z "},"õ":{"ha":758,"x_min":24,"x_max":735,"o":"m 119 546 q 379 639 214 639 q 640 546 544 639 q 735 313 735 453 q 640 79 735 171 q 379 -14 544 -14 q 119 80 214 -14 q 24 313 24 174 q 119 546 24 453 m 206 313 q 250 179 206 232 q 379 126 294 126 q 508 180 463 126 q 553 313 553 233 q 508 447 553 396 q 379 499 464 499 q 250 447 294 499 q 206 313 206 396 m 181 806 q 299 854 219 851 q 303 854 301 854 q 401 829 349 854 q 483 803 453 804 q 492 803 488 803 q 552 814 526 803 q 585 839 578 825 l 592 851 l 640 851 q 601 741 640 788 q 482 694 561 694 q 381 717 435 694 q 299 742 328 740 q 290 742 294 742 q 231 731 257 742 q 197 708 206 721 l 189 696 l 140 696 q 181 806 140 760 z "},"ö":{"ha":758,"x_min":24,"x_max":735,"o":"m 119 546 q 379 639 214 639 q 640 546 544 639 q 735 313 735 453 q 640 79 735 171 q 379 -14 544 -14 q 119 80 214 -14 q 24 313 24 174 q 119 546 24 453 m 250 179 q 379 126 294 126 q 508 180 463 126 q 553 313 553 233 q 508 447 553 396 q 379 499 464 499 q 250 447 294 499 q 206 313 206 396 q 250 179 206 232 m 199 844 q 263 871 225 871 q 328 844 301 871 q 354 779 354 818 q 328 717 354 743 q 263 690 301 690 q 199 717 225 690 q 172 779 172 743 q 199 844 172 818 m 403 779 q 429 844 403 818 q 492 871 456 871 q 556 844 531 871 q 582 779 582 818 q 556 716 582 742 q 492 690 531 690 q 429 717 456 690 q 403 779 403 743 z "},"÷":{"ha":758,"x_min":117,"x_max":640,"o":"m 488 640 q 456 565 488 596 q 378 533 424 533 q 302 565 333 533 q 271 640 271 597 q 302 718 271 686 q 378 750 333 750 q 456 718 424 750 q 488 640 488 686 m 640 333 l 117 333 l 117 474 l 640 474 l 640 333 m 456 246 q 472 230 456 246 q 488 169 488 214 q 456 94 488 125 q 378 63 424 63 q 302 94 333 63 q 271 169 271 125 q 302 246 271 214 q 378 278 333 278 q 456 246 424 278 z "},"ø":{"ha":758,"x_min":24,"x_max":735,"o":"m 24 313 q 119 546 24 453 q 379 639 214 639 q 576 592 494 639 l 621 636 l 707 558 l 665 517 q 735 313 735 432 q 640 78 735 171 q 379 -14 544 -14 q 183 33 265 -14 l 139 -11 l 51 67 l 93 108 q 24 313 24 193 m 218 233 l 465 481 q 379 499 426 499 q 250 447 294 499 q 206 313 206 396 q 218 233 206 271 m 294 144 q 379 126 333 126 q 508 180 463 126 q 553 313 553 233 q 540 392 553 356 l 294 144 z "},"ù":{"ha":711,"x_min":38,"x_max":661,"o":"m 217 625 l 217 286 q 247 162 217 200 q 346 124 278 124 q 420 140 392 124 q 462 190 449 156 q 478 258 475 224 q 482 346 482 292 l 482 625 l 661 625 l 661 0 l 486 0 l 486 76 q 318 -14 428 -12 q 307 -14 313 -14 q 100 60 163 -14 q 38 286 38 135 l 38 625 l 217 625 m 354 857 l 424 694 l 268 694 l 143 857 l 354 857 z "},"ú":{"ha":711,"x_min":38,"x_max":661,"o":"m 217 625 l 217 286 q 247 162 217 200 q 346 124 278 124 q 420 140 392 124 q 462 190 449 156 q 478 258 475 224 q 482 346 482 292 l 482 625 l 661 625 l 661 0 l 486 0 l 486 76 q 318 -14 428 -12 q 307 -14 313 -14 q 100 60 163 -14 q 38 286 38 135 l 38 625 l 217 625 m 283 694 l 353 857 l 563 857 l 438 694 l 283 694 z "},"û":{"ha":711,"x_min":38,"x_max":661,"o":"m 38 625 l 217 625 l 217 286 q 247 162 217 200 q 346 124 278 124 q 420 140 392 124 q 462 190 449 156 q 478 258 475 224 q 482 346 482 292 l 482 625 l 661 625 l 661 0 l 486 0 l 486 76 q 318 -14 428 -12 q 307 -14 313 -14 q 100 60 163 -14 q 38 286 38 135 l 38 625 m 103 694 l 268 857 l 433 857 l 599 694 l 444 694 l 351 783 l 257 694 l 103 694 z "},"ü":{"ha":711,"x_min":38,"x_max":661,"o":"m 38 625 l 217 625 l 217 286 q 247 162 217 200 q 346 124 278 124 q 420 140 392 124 q 462 190 449 156 q 478 258 475 224 q 482 346 482 292 l 482 625 l 661 625 l 661 0 l 486 0 l 486 76 q 318 -14 428 -12 q 307 -14 313 -14 q 100 60 163 -14 q 38 286 38 135 l 38 625 m 171 844 q 233 871 196 871 q 299 845 272 871 q 325 779 325 819 q 299 716 325 742 q 233 690 272 690 q 171 717 197 690 q 144 779 144 743 q 171 844 144 818 m 400 844 q 464 871 426 871 q 528 844 501 871 q 554 779 554 818 q 528 717 554 743 q 464 690 501 690 q 401 717 428 690 q 374 779 374 743 q 400 844 374 818 z "},"ý":{"ha":674,"x_min":-6,"x_max":679,"o":"m 182 625 l 333 208 l 493 625 l 679 625 l 401 -57 q 370 -131 382 -107 q 339 -184 358 -156 q 297 -225 319 -212 q 240 -246 275 -237 q 157 -254 206 -254 l 44 -254 l 44 -104 l 157 -104 q 205 -95 192 -104 q 231 -57 218 -86 l 254 6 l -6 625 l 182 625 m 269 694 l 339 857 l 550 857 l 425 694 l 269 694 z "},"þ":{"ha":774,"x_min":50,"x_max":750,"o":"m 50 893 l 226 893 l 226 549 q 397 636 288 631 q 428 638 413 638 q 660 547 569 638 q 750 311 750 457 q 660 74 750 161 q 433 -12 571 -12 q 394 -11 414 -12 q 226 79 285 -3 l 226 -254 l 50 -254 l 50 893 m 269 176 q 394 129 317 129 q 519 176 469 129 q 568 311 568 224 q 519 448 568 400 q 394 496 471 496 q 269 452 315 496 q 222 313 222 408 q 269 176 222 224 z "},"ÿ":{"ha":674,"x_min":-6,"x_max":679,"o":"m -6 625 l 182 625 l 333 208 l 493 625 l 679 625 l 401 -57 q 370 -131 382 -107 q 339 -184 358 -156 q 297 -225 319 -212 q 240 -246 275 -237 q 157 -254 206 -254 l 44 -254 l 44 -104 l 157 -104 q 205 -95 192 -104 q 231 -57 218 -86 l 254 6 l -6 625 m 131 779 q 156 844 131 818 q 219 871 182 871 q 285 845 258 871 q 311 779 311 819 q 285 716 311 742 q 219 690 258 690 q 157 717 183 690 q 131 779 131 743 m 361 779 q 388 844 361 818 q 450 871 414 871 q 515 844 489 871 q 540 779 540 818 q 515 716 540 742 q 450 690 489 690 q 388 717 414 690 q 361 779 361 743 z "},"Ā":{"ha":956,"x_min":0,"x_max":956,"o":"m 0 0 l 378 893 l 579 893 l 956 0 l 763 0 l 701 151 l 256 151 l 194 0 l 0 0 m 317 303 l 640 303 l 479 706 l 317 303 m 286 1081 l 671 1081 l 671 963 l 286 963 l 286 1081 z "},"ā":{"ha":740,"x_min":25,"x_max":714,"o":"m 25 172 q 471 400 25 378 l 483 400 l 483 410 q 358 507 483 507 q 276 490 306 507 q 242 457 246 474 l 238 440 l 56 440 q 58 462 56 449 q 79 509 61 475 q 126 569 97 543 q 217 617 156 596 q 360 639 278 639 q 583 578 507 639 q 658 411 658 518 l 660 229 l 660 194 q 667 160 660 169 q 696 150 675 150 l 714 150 l 714 0 l 694 0 q 565 16 610 0 q 501 75 521 32 q 269 -14 428 -14 q 86 39 147 -14 q 25 172 25 92 m 165 813 l 550 813 l 550 694 l 165 694 l 165 813 m 235 133 q 301 117 261 118 q 307 117 304 117 q 427 153 371 117 q 483 254 483 189 l 483 290 q 394 282 428 286 q 310 267 360 278 q 234 233 260 256 q 208 176 208 210 q 235 133 208 149 z "},"Ă":{"ha":956,"x_min":0,"x_max":956,"o":"m 0 0 l 378 893 l 579 893 l 956 0 l 763 0 l 701 151 l 256 151 l 194 0 l 0 0 m 640 303 l 479 706 l 317 303 l 640 303 m 244 1136 l 354 1136 q 355 1128 354 1133 q 363 1112 356 1124 q 383 1091 371 1100 q 419 1074 394 1082 q 479 1067 444 1067 q 538 1074 513 1067 q 576 1091 564 1081 q 594 1112 588 1101 q 603 1129 601 1122 l 604 1136 l 713 1136 q 709 1117 711 1129 q 692 1076 707 1106 q 656 1023 678 1046 q 588 982 633 1000 q 479 963 540 963 q 371 981 418 963 q 301 1024 324 999 q 264 1075 278 1050 q 247 1118 250 1100 l 244 1136 z "},"ă":{"ha":740,"x_min":25,"x_max":714,"o":"m 25 172 q 471 400 25 378 l 483 400 l 483 410 q 358 507 483 507 q 276 490 306 507 q 242 457 246 474 l 238 440 l 56 440 q 58 462 56 449 q 79 509 61 475 q 126 569 97 543 q 217 617 156 596 q 360 639 278 639 q 583 578 507 639 q 658 411 658 518 l 660 229 l 660 194 q 667 160 660 169 q 696 150 675 150 l 714 150 l 714 0 l 694 0 q 565 16 610 0 q 501 75 521 32 q 269 -14 428 -14 q 86 39 147 -14 q 25 172 25 92 m 233 868 q 234 860 233 865 q 242 844 235 856 q 262 823 250 832 q 299 806 274 814 q 358 799 324 799 q 417 806 392 799 q 455 823 443 813 q 474 844 467 833 q 482 861 481 854 l 483 868 l 593 868 q 590 849 592 861 q 573 808 588 838 q 535 755 558 778 q 467 714 513 732 q 358 694 419 694 q 250 713 297 694 q 180 756 203 731 q 143 806 157 781 q 126 850 129 832 l 124 868 l 233 868 m 235 133 q 301 117 261 118 q 307 117 304 117 q 427 153 371 117 q 483 254 483 189 l 483 290 q 394 282 428 286 q 310 267 360 278 q 234 233 260 256 q 208 176 208 210 q 235 133 208 149 z "},"Ą":{"ha":956,"x_min":0,"x_max":956,"o":"m 378 893 l 579 893 l 956 0 l 856 0 l 856 -18 q 861 -38 856 -33 q 882 -43 867 -43 l 918 -43 l 918 -129 l 882 -129 q 779 -108 807 -129 q 751 -18 751 -86 l 751 28 l 701 151 l 256 151 l 194 0 l 0 0 l 378 893 m 640 303 l 479 706 l 317 303 l 640 303 z "},"ą":{"ha":740,"x_min":25,"x_max":738,"o":"m 25 172 q 471 400 25 378 l 483 400 l 483 410 q 358 507 483 507 q 276 490 306 507 q 242 457 246 474 l 238 440 l 56 440 q 58 462 56 449 q 79 509 61 475 q 126 569 97 543 q 217 617 156 596 q 360 639 278 639 q 583 578 507 639 q 658 411 658 518 l 660 229 l 660 194 q 667 160 660 169 q 696 150 675 150 l 714 150 l 714 0 l 675 0 l 675 -18 q 681 -38 675 -33 q 700 -43 686 -43 l 738 -43 l 738 -129 l 700 -129 q 599 -108 626 -129 q 571 -18 571 -86 l 571 14 q 501 75 522 31 q 269 -14 428 -14 q 86 39 147 -14 q 25 172 25 92 m 208 176 q 235 133 208 149 q 301 117 261 118 q 307 117 304 117 q 427 153 371 117 q 483 254 483 189 l 483 290 q 394 282 428 286 q 310 267 360 278 q 234 233 260 256 q 208 176 208 210 z "},"Ć":{"ha":944,"x_min":28,"x_max":917,"o":"m 151 782 q 492 907 274 907 q 640 890 572 907 q 749 847 707 874 q 825 788 792 819 q 875 723 858 756 q 901 663 892 690 q 914 619 911 636 l 917 603 l 724 603 q 719 619 722 608 q 701 655 717 629 q 662 701 685 681 q 594 737 639 721 q 492 753 549 753 q 292 669 364 753 q 221 446 221 586 q 293 224 221 308 q 492 140 365 140 q 591 156 547 140 q 658 193 635 171 q 696 238 681 215 q 715 275 711 260 l 719 290 l 911 290 q 909 273 911 283 q 897 231 907 263 q 871 170 886 199 q 823 106 856 142 q 748 46 790 71 q 639 3 706 21 q 492 -14 572 -14 q 147 110 267 -14 q 28 446 28 233 q 151 782 28 656 m 490 1125 l 701 1125 l 576 963 l 421 963 l 490 1125 z "},"ć":{"ha":704,"x_min":24,"x_max":688,"o":"m 115 551 q 367 639 206 639 q 516 616 451 639 q 611 560 581 593 q 661 494 642 528 q 683 439 681 461 l 688 415 l 506 415 q 503 424 504 418 q 491 444 501 431 q 467 469 481 458 q 427 490 454 481 q 367 499 400 499 q 247 451 288 499 q 206 318 206 404 q 247 178 206 231 q 367 126 289 126 q 454 153 419 126 q 497 208 489 181 l 506 235 l 686 235 q 682 208 685 225 q 659 149 679 192 q 608 73 639 106 q 514 13 578 40 q 367 -14 450 -14 q 114 75 204 -14 q 24 318 24 164 q 115 551 24 463 m 351 857 l 561 857 l 436 694 l 282 694 l 351 857 z "},"Ċ":{"ha":944,"x_min":28,"x_max":917,"o":"m 151 782 q 492 907 274 907 q 640 890 572 907 q 749 847 707 874 q 825 788 792 819 q 875 723 858 756 q 901 663 892 690 q 914 619 911 636 l 917 603 l 724 603 q 719 619 722 608 q 701 655 717 629 q 662 701 685 681 q 594 737 639 721 q 492 753 549 753 q 292 669 364 753 q 221 446 221 586 q 293 224 221 308 q 492 140 365 140 q 591 156 547 140 q 658 193 635 171 q 696 238 681 215 q 715 275 711 260 l 719 290 l 911 290 q 909 273 911 283 q 897 231 907 263 q 871 170 886 199 q 823 106 856 142 q 748 46 790 71 q 639 3 706 21 q 492 -14 572 -14 q 147 110 267 -14 q 28 446 28 233 q 151 782 28 656 m 418 1136 q 489 1167 447 1167 q 563 1136 532 1167 q 593 1063 593 1106 q 563 991 593 1021 q 489 961 532 961 q 417 991 447 961 q 388 1063 388 1021 q 418 1136 388 1106 z "},"ċ":{"ha":704,"x_min":24,"x_max":688,"o":"m 115 551 q 367 639 206 639 q 516 616 451 639 q 611 560 581 593 q 661 494 642 528 q 683 439 681 461 l 688 415 l 506 415 q 503 424 504 418 q 491 444 501 431 q 467 469 481 458 q 427 490 454 481 q 367 499 400 499 q 247 451 288 499 q 206 318 206 404 q 247 178 206 231 q 367 126 289 126 q 454 153 419 126 q 497 208 489 181 l 506 235 l 686 235 q 682 208 685 225 q 659 149 679 192 q 608 73 639 106 q 514 13 578 40 q 367 -14 450 -14 q 114 75 204 -14 q 24 318 24 164 q 115 551 24 463 m 249 794 q 278 868 249 838 q 350 899 308 899 q 423 868 393 899 q 453 794 453 838 q 423 723 453 753 q 350 693 393 693 q 278 723 308 693 q 249 794 249 753 z "},"Č":{"ha":944,"x_min":28,"x_max":917,"o":"m 151 782 q 492 907 274 907 q 640 890 572 907 q 749 847 707 874 q 825 788 792 819 q 875 723 858 756 q 901 663 892 690 q 914 619 911 636 l 917 603 l 724 603 q 719 619 722 608 q 701 655 717 629 q 662 701 685 681 q 594 737 639 721 q 492 753 549 753 q 292 669 364 753 q 221 446 221 586 q 293 224 221 308 q 492 140 365 140 q 591 156 547 140 q 658 193 635 171 q 696 238 681 215 q 715 275 711 260 l 719 290 l 911 290 q 909 273 911 283 q 897 231 907 263 q 871 170 886 199 q 823 106 856 142 q 748 46 790 71 q 639 3 706 21 q 492 -14 572 -14 q 147 110 267 -14 q 28 446 28 233 q 151 782 28 656 m 396 1125 l 489 1036 l 582 1125 l 738 1125 l 572 963 l 406 963 l 240 1125 l 396 1125 z "},"č":{"ha":704,"x_min":24,"x_max":688,"o":"m 115 551 q 367 639 206 639 q 516 616 451 639 q 611 560 581 593 q 661 494 642 528 q 683 439 681 461 l 688 415 l 506 415 q 503 424 504 418 q 491 444 501 431 q 467 469 481 458 q 427 490 454 481 q 367 499 400 499 q 247 451 288 499 q 206 318 206 404 q 247 178 206 231 q 367 126 289 126 q 454 153 419 126 q 497 208 489 181 l 506 235 l 686 235 q 682 208 685 225 q 659 149 679 192 q 608 73 639 106 q 514 13 578 40 q 367 -14 450 -14 q 114 75 204 -14 q 24 318 24 164 q 115 551 24 463 m 257 857 l 350 768 l 443 857 l 599 857 l 433 694 l 267 694 l 101 857 l 257 857 z "},"Ď":{"ha":942,"x_min":50,"x_max":914,"o":"m 456 893 q 789 773 664 893 q 914 446 914 653 q 789 119 914 239 q 456 0 664 0 l 50 0 l 50 893 l 456 893 m 231 743 l 231 150 l 456 150 q 660 235 590 151 q 731 446 731 318 q 662 665 731 588 q 456 743 593 743 l 231 743 m 275 1125 l 368 1036 l 461 1125 l 617 1125 l 451 963 l 285 963 l 119 1125 l 275 1125 z "},"ď":{"ha":1108,"x_min":24,"x_max":1058,"o":"m 24 311 q 114 547 24 457 q 346 638 204 638 q 376 636 361 638 q 547 549 486 631 l 547 893 l 726 893 l 726 0 l 551 0 l 551 86 q 379 -11 493 -4 q 340 -12 360 -12 q 113 74 203 -12 q 24 311 24 161 m 256 176 q 379 129 304 129 q 504 176 457 129 q 551 313 551 224 q 505 452 551 408 q 379 496 458 496 q 254 448 303 496 q 206 311 206 400 q 256 176 206 224 m 779 731 l 849 893 l 1058 893 l 933 731 l 779 731 z "},"Đ":{"ha":1053,"x_min":50,"x_max":1025,"o":"m 50 389 l 50 506 l 161 506 l 161 893 l 567 893 q 900 773 775 893 q 1025 446 1025 653 q 900 119 1025 239 q 567 0 775 0 l 161 0 l 161 389 l 50 389 m 342 506 l 513 506 l 513 389 l 342 389 l 342 150 l 567 150 q 772 235 701 151 q 842 446 842 318 q 773 665 842 588 q 567 743 704 743 l 342 743 l 342 506 z "},"đ":{"ha":840,"x_min":24,"x_max":790,"o":"m 118 551 q 346 638 204 638 q 376 636 361 638 q 547 549 486 631 l 547 692 l 433 692 l 433 808 l 547 808 l 547 893 l 726 893 l 726 808 l 790 808 l 790 692 l 726 692 l 726 0 l 551 0 l 551 86 q 379 -11 493 -4 q 340 -12 360 -12 q 113 74 203 -12 q 24 311 24 161 q 118 551 24 457 m 206 311 q 255 176 206 224 q 379 129 304 129 q 504 176 457 129 q 551 313 551 224 q 505 452 551 408 q 379 496 458 496 q 254 448 303 496 q 206 311 206 400 z "},"Ē":{"ha":769,"x_min":50,"x_max":735,"o":"m 50 893 l 721 893 l 721 743 l 231 743 l 231 522 l 654 522 l 654 371 l 231 371 l 231 150 l 735 150 l 735 0 l 50 0 l 50 893 m 186 963 l 186 1081 l 571 1081 l 571 963 l 186 963 z "},"ē":{"ha":704,"x_min":24,"x_max":681,"o":"m 24 311 q 113 548 24 457 q 357 639 201 639 q 595 549 510 639 q 681 311 681 460 q 678 260 681 286 l 199 260 q 249 163 204 199 q 360 126 294 126 q 415 133 390 126 q 452 149 439 140 q 474 168 465 158 q 486 185 483 178 l 489 192 l 668 192 q 662 169 667 183 q 635 120 657 156 q 583 58 614 85 q 493 8 553 31 q 358 -14 433 -14 q 116 74 208 -14 q 24 311 24 163 m 168 813 l 553 813 l 553 694 l 168 694 l 168 813 m 199 379 l 507 379 q 507 383 507 381 q 465 467 507 436 q 358 499 424 499 q 249 465 292 499 q 199 379 207 432 z "},"Ė":{"ha":769,"x_min":50,"x_max":735,"o":"m 50 893 l 721 893 l 721 743 l 231 743 l 231 522 l 654 522 l 654 371 l 231 371 l 231 150 l 735 150 l 735 0 l 50 0 l 50 893 m 308 1136 q 379 1167 338 1167 q 452 1136 422 1167 q 482 1063 482 1106 q 452 991 482 1021 q 379 961 422 961 q 308 991 338 961 q 278 1063 278 1021 q 308 1136 278 1106 z "},"ė":{"ha":704,"x_min":24,"x_max":681,"o":"m 113 549 q 357 639 201 639 q 595 549 510 639 q 681 311 681 460 q 678 260 681 286 l 199 260 q 249 163 204 199 q 360 126 294 126 q 415 133 390 126 q 452 149 439 140 q 474 168 465 158 q 486 185 483 178 l 489 192 l 668 192 q 662 169 667 183 q 635 120 657 156 q 583 58 614 85 q 493 8 553 31 q 358 -14 433 -14 q 116 74 208 -14 q 24 311 24 163 q 113 549 24 457 m 260 794 q 290 868 260 838 q 361 899 319 899 q 435 868 404 899 q 465 794 465 838 q 435 723 465 753 q 361 693 404 693 q 290 723 319 693 q 260 794 260 753 m 507 379 q 507 383 507 381 q 465 467 507 436 q 358 499 424 499 q 249 465 292 499 q 199 379 207 432 l 507 379 z "},"Ę":{"ha":769,"x_min":50,"x_max":735,"o":"m 50 0 l 50 893 l 721 893 l 721 743 l 231 743 l 231 522 l 654 522 l 654 371 l 231 371 l 231 150 l 735 150 l 735 0 l 633 0 l 633 -18 q 660 -43 633 -43 l 697 -43 l 697 -129 l 660 -129 q 557 -108 585 -129 q 529 -18 529 -86 l 529 0 l 50 0 z "},"ę":{"ha":704,"x_min":24,"x_max":681,"o":"m 24 311 q 113 548 24 457 q 357 639 201 639 q 595 549 510 639 q 681 311 681 460 q 678 260 681 286 l 199 260 q 249 163 204 199 q 360 126 294 126 q 415 133 390 126 q 452 149 439 140 q 474 168 465 158 q 486 185 483 178 l 489 192 l 668 192 q 664 178 667 186 q 649 144 661 169 q 621 98 638 119 q 572 51 604 76 q 501 11 540 26 l 501 -18 q 528 -43 501 -43 l 565 -43 l 565 -129 l 528 -129 q 425 -108 453 -129 q 397 -18 397 -86 l 397 -12 q 358 -14 385 -14 q 116 74 208 -14 q 24 311 24 163 m 199 379 l 507 379 q 507 383 507 381 q 465 467 507 436 q 358 499 424 499 q 249 465 292 499 q 199 379 207 432 z "},"Ě":{"ha":769,"x_min":50,"x_max":735,"o":"m 50 0 l 50 893 l 721 893 l 721 743 l 231 743 l 231 522 l 654 522 l 654 371 l 231 371 l 231 150 l 735 150 l 735 0 l 50 0 m 131 1125 l 285 1125 l 379 1036 l 472 1125 l 626 1125 l 461 963 l 296 963 l 131 1125 z "},"ě":{"ha":704,"x_min":24,"x_max":681,"o":"m 113 549 q 357 639 201 639 q 595 549 510 639 q 681 311 681 460 q 678 260 681 286 l 199 260 q 249 163 204 199 q 360 126 294 126 q 415 133 390 126 q 452 149 439 140 q 474 168 465 158 q 486 185 483 178 l 489 192 l 668 192 q 662 169 667 183 q 635 120 657 156 q 583 58 614 85 q 493 8 553 31 q 358 -14 433 -14 q 116 74 208 -14 q 24 311 24 163 q 113 549 24 457 m 113 857 l 268 857 l 361 768 l 454 857 l 610 857 l 444 694 l 278 694 l 113 857 m 199 379 l 507 379 q 507 383 507 381 q 465 467 507 436 q 358 499 424 499 q 249 465 292 499 q 199 379 207 432 z "},"Ğ":{"ha":968,"x_min":28,"x_max":938,"o":"m 28 446 q 151 782 28 657 q 499 907 274 907 q 647 890 579 907 q 757 847 714 874 q 833 788 800 819 q 884 723 867 756 q 912 663 901 690 q 925 619 922 636 l 928 603 l 735 603 q 731 619 733 608 q 712 655 728 629 q 672 701 696 681 q 603 737 649 721 q 500 753 558 753 q 292 670 363 753 q 221 446 221 588 q 294 224 221 308 q 499 140 368 140 q 614 159 564 140 q 691 208 664 178 q 732 265 718 238 q 753 319 746 292 l 497 319 l 497 469 l 936 469 q 938 413 938 440 q 826 101 938 215 q 499 -14 715 -14 q 150 110 272 -14 q 28 446 28 233 m 369 1136 q 370 1128 369 1133 q 378 1112 371 1124 q 398 1091 386 1100 q 435 1074 410 1082 q 494 1067 460 1067 q 553 1074 528 1067 q 591 1091 579 1081 q 610 1112 603 1101 q 618 1129 617 1122 l 619 1136 l 729 1136 q 726 1117 728 1129 q 709 1076 724 1106 q 672 1023 694 1046 q 603 982 649 1000 q 494 963 556 963 q 386 981 433 963 q 316 1024 339 999 q 279 1075 293 1050 q 263 1118 265 1100 l 260 1136 l 369 1136 z "},"ğ":{"ha":776,"x_min":24,"x_max":726,"o":"m 118 551 q 346 638 204 638 q 376 636 361 638 q 551 543 490 631 l 551 625 l 726 625 l 726 -58 q 678 -217 726 -179 q 501 -254 631 -254 l 83 -254 l 83 -107 l 501 -107 q 538 -97 528 -107 q 547 -58 547 -86 l 547 79 q 379 -11 489 -3 q 340 -12 360 -12 q 113 74 203 -12 q 24 311 24 161 q 118 551 24 457 m 256 176 q 379 129 304 129 q 504 176 457 129 q 551 313 551 224 q 505 452 551 408 q 379 496 458 496 q 254 448 303 496 q 206 311 206 400 q 256 176 206 224 m 146 868 l 256 868 q 256 860 256 865 q 265 844 257 856 q 284 823 272 832 q 321 806 296 814 q 381 799 346 799 q 440 806 414 799 q 477 823 465 813 q 496 844 489 833 q 504 861 503 854 l 506 868 l 614 868 q 610 849 613 861 q 594 808 608 838 q 557 755 579 778 q 489 714 535 732 q 381 694 442 694 q 272 713 319 694 q 202 756 225 731 q 165 806 179 781 q 149 850 151 832 l 146 868 z "},"Ġ":{"ha":968,"x_min":28,"x_max":938,"o":"m 28 446 q 151 782 28 657 q 499 907 274 907 q 647 890 579 907 q 757 847 714 874 q 833 788 800 819 q 884 723 867 756 q 912 663 901 690 q 925 619 922 636 l 928 603 l 735 603 q 731 619 733 608 q 712 655 728 629 q 672 701 696 681 q 603 737 649 721 q 500 753 558 753 q 292 670 363 753 q 221 446 221 588 q 294 224 221 308 q 499 140 368 140 q 614 159 564 140 q 691 208 664 178 q 732 265 718 238 q 753 319 746 292 l 497 319 l 497 469 l 936 469 q 938 413 938 440 q 826 101 938 215 q 499 -14 715 -14 q 150 110 272 -14 q 28 446 28 233 m 393 1063 q 423 1136 393 1106 q 494 1167 453 1167 q 567 1136 538 1167 q 597 1063 597 1106 q 567 991 597 1021 q 494 961 538 961 q 423 991 453 961 q 393 1063 393 1021 z "},"ġ":{"ha":776,"x_min":24,"x_max":726,"o":"m 118 551 q 346 638 204 638 q 376 636 361 638 q 551 543 490 631 l 551 625 l 726 625 l 726 -58 q 678 -217 726 -179 q 501 -254 631 -254 l 83 -254 l 83 -107 l 501 -107 q 538 -97 528 -107 q 547 -58 547 -86 l 547 79 q 379 -11 489 -3 q 340 -12 360 -12 q 113 74 203 -12 q 24 311 24 161 q 118 551 24 457 m 256 176 q 379 129 304 129 q 504 176 457 129 q 551 313 551 224 q 505 452 551 408 q 379 496 458 496 q 254 448 303 496 q 206 311 206 400 q 256 176 206 224 m 279 794 q 309 868 279 838 q 381 899 339 899 q 453 868 424 899 q 483 794 483 838 q 453 723 483 753 q 381 693 424 693 q 309 723 339 693 q 279 794 279 753 z "},"Ģ":{"ha":968,"x_min":28,"x_max":938,"o":"m 151 782 q 499 907 274 907 q 647 890 579 907 q 757 847 714 874 q 833 788 800 819 q 884 723 867 756 q 912 663 901 690 q 925 619 922 636 l 928 603 l 735 603 q 731 619 733 608 q 712 655 728 629 q 672 701 696 681 q 603 737 649 721 q 500 753 558 753 q 292 670 363 753 q 221 446 221 588 q 294 224 221 308 q 499 140 368 140 q 614 159 564 140 q 691 208 664 178 q 732 265 718 238 q 753 319 746 292 l 497 319 l 497 469 l 936 469 q 938 413 938 440 q 826 101 938 215 q 499 -14 715 -14 q 150 110 272 -14 q 28 446 28 233 q 151 782 28 657 m 431 -56 l 597 -56 l 506 -219 l 389 -219 l 431 -56 z "},"ģ":{"ha":776,"x_min":24,"x_max":726,"o":"m 24 311 q 114 547 24 457 q 346 638 204 638 q 376 636 361 638 q 551 543 490 631 l 551 625 l 726 625 l 726 -58 q 678 -217 726 -179 q 501 -254 631 -254 l 83 -254 l 83 -107 l 501 -107 q 538 -97 528 -107 q 547 -58 547 -86 l 547 79 q 379 -11 489 -3 q 340 -12 360 -12 q 113 74 203 -12 q 24 311 24 161 m 256 176 q 379 129 304 129 q 504 176 457 129 q 551 313 551 224 q 505 452 551 408 q 379 496 458 496 q 254 448 303 496 q 206 311 206 400 q 256 176 206 224 m 321 696 l 363 860 l 528 860 l 436 696 l 321 696 z "},"Ħ":{"ha":1032,"x_min":50,"x_max":982,"o":"m 50 631 l 50 747 l 100 747 l 100 893 l 282 893 l 282 747 l 753 747 l 753 893 l 933 893 l 933 747 l 982 747 l 982 631 l 933 631 l 933 0 l 753 0 l 753 371 l 282 371 l 282 0 l 100 0 l 100 631 l 50 631 m 282 522 l 753 522 l 753 631 l 282 631 l 282 522 z "},"ħ":{"ha":808,"x_min":50,"x_max":771,"o":"m 122 813 l 122 893 l 301 893 l 301 813 l 396 813 l 396 696 l 301 696 l 301 547 q 483 639 364 638 q 493 639 489 639 q 708 558 646 639 q 771 328 771 478 l 771 0 l 592 0 l 592 328 q 467 497 592 496 q 463 497 464 497 q 340 442 379 497 q 301 286 301 388 l 301 0 l 122 0 l 122 696 l 50 696 l 50 813 l 122 813 z "},"Ī":{"ha":714,"x_min":28,"x_max":686,"o":"m 267 150 l 267 743 l 32 743 l 32 893 l 682 893 l 682 743 l 447 743 l 447 150 l 686 150 l 686 0 l 28 0 l 28 150 l 267 150 m 164 1081 l 549 1081 l 549 963 l 164 963 l 164 1081 z "},"ī":{"ha":485,"x_min":50,"x_max":435,"o":"m 435 694 l 50 694 l 50 813 l 435 813 l 435 694 m 333 0 l 154 0 l 154 625 l 333 625 l 333 0 z "},"Į":{"ha":714,"x_min":28,"x_max":686,"o":"m 267 150 l 267 743 l 32 743 l 32 893 l 682 893 l 682 743 l 447 743 l 447 150 l 686 150 l 686 0 l 408 0 l 408 -18 q 435 -43 408 -43 l 472 -43 l 472 -129 l 435 -129 q 332 -108 360 -129 q 304 -18 304 -86 l 304 0 l 28 0 l 28 150 l 267 150 z "},"į":{"ha":317,"x_min":50,"x_max":267,"o":"m 151 693 q 81 723 111 693 q 50 794 50 753 q 81 868 50 838 q 151 899 111 899 q 225 868 194 899 q 256 794 256 838 q 225 723 256 753 q 151 693 194 693 m 229 -43 l 267 -43 l 267 -129 l 229 -129 q 128 -108 156 -129 q 100 -18 100 -86 l 100 0 l 63 0 l 63 625 l 242 625 l 242 0 l 204 0 l 204 -18 q 209 -38 204 -33 q 229 -43 214 -43 z "},"İ":{"ha":714,"x_min":28,"x_max":686,"o":"m 28 0 l 28 150 l 267 150 l 267 743 l 32 743 l 32 893 l 682 893 l 682 743 l 447 743 l 447 150 l 686 150 l 686 0 l 28 0 m 286 1136 q 357 1167 315 1167 q 430 1136 400 1167 q 460 1063 460 1106 q 430 991 460 1021 q 357 961 400 961 q 285 991 315 961 q 256 1063 256 1021 q 286 1136 256 1106 z "},"ı":{"ha":279,"x_min":50,"x_max":229,"o":"m 229 0 l 50 0 l 50 625 l 229 625 l 229 0 z "},"ĵ":{"ha":311,"x_min":-76,"x_max":421,"o":"m 256 857 l 421 694 l 265 694 l 172 783 l 79 694 l -76 694 l 89 857 l 256 857 m 82 -56 l 82 625 l 261 625 l 261 -56 q 208 -210 261 -167 q 25 -253 156 -253 l -71 -253 l -71 -112 l 25 -112 q 70 -100 58 -112 q 82 -56 82 -87 z "},"Ķ":{"ha":839,"x_min":50,"x_max":833,"o":"m 50 0 l 50 893 l 231 893 l 231 496 l 578 893 l 800 893 l 453 511 l 833 0 l 614 0 l 333 379 l 231 267 l 231 0 l 50 0 m 321 -56 l 488 -56 l 396 -219 l 279 -219 l 321 -56 z "},"ķ":{"ha":688,"x_min":50,"x_max":696,"o":"m 50 0 l 50 893 l 229 893 l 229 372 l 458 625 l 668 625 l 426 361 l 696 0 l 500 0 l 317 240 l 229 144 l 229 0 l 50 0 m 250 -56 l 415 -56 l 324 -219 l 208 -219 l 250 -56 z "},"Ĺ":{"ha":686,"x_min":50,"x_max":656,"o":"m 351 1125 l 226 963 l 72 963 l 142 1125 l 351 1125 m 231 150 l 656 150 l 656 0 l 50 0 l 50 893 l 231 893 l 231 150 z "},"ĺ":{"ha":342,"x_min":46,"x_max":349,"o":"m 225 893 l 225 197 q 235 160 225 171 q 271 150 244 150 l 321 150 l 321 0 l 271 0 q 94 39 142 0 q 46 197 46 78 l 46 893 l 225 893 m 139 1125 l 349 1125 l 224 963 l 69 963 l 139 1125 z "},"Ļ":{"ha":686,"x_min":50,"x_max":656,"o":"m 231 150 l 656 150 l 656 0 l 50 0 l 50 893 l 231 893 l 231 150 m 249 -219 l 290 -56 l 457 -56 l 365 -219 l 249 -219 z "},"ļ":{"ha":342,"x_min":46,"x_max":321,"o":"m 225 893 l 225 197 q 235 160 225 171 q 271 150 244 150 l 321 150 l 321 0 l 271 0 q 94 39 142 0 q 46 197 46 78 l 46 893 l 225 893 m 99 -219 l 140 -56 l 306 -56 l 214 -219 l 99 -219 z "},"Ľ":{"ha":686,"x_min":50,"x_max":656,"o":"m 50 893 l 231 893 l 231 150 l 656 150 l 656 0 l 50 0 l 50 893 m 288 731 l 357 893 l 567 893 l 442 731 l 288 731 z "},"ľ":{"ha":632,"x_min":50,"x_max":582,"o":"m 50 893 l 229 893 l 229 197 q 239 160 229 171 q 275 150 249 150 l 325 150 l 325 0 l 275 0 q 98 39 146 0 q 50 197 50 78 l 50 893 m 303 731 l 372 893 l 582 893 l 457 731 l 303 731 z "},"Ł":{"ha":788,"x_min":50,"x_max":757,"o":"m 50 367 l 153 432 l 153 893 l 333 893 l 333 549 l 472 638 l 472 508 l 333 419 l 333 150 l 757 150 l 757 0 l 153 0 l 153 303 l 50 238 l 50 367 z "},"ł":{"ha":507,"x_min":50,"x_max":457,"o":"m 50 275 l 50 404 l 131 456 l 131 893 l 310 893 l 310 569 l 457 664 l 457 536 l 310 442 l 310 197 q 319 160 310 171 q 354 150 329 150 l 404 150 l 404 0 l 354 0 q 178 39 225 0 q 131 197 131 78 l 131 326 l 50 275 z "},"Ń":{"ha":940,"x_min":50,"x_max":890,"o":"m 247 893 l 710 238 l 710 893 l 890 893 l 890 0 l 692 0 l 231 646 l 231 0 l 50 0 l 50 893 l 247 893 m 415 963 l 485 1125 l 694 1125 l 569 963 l 415 963 z "},"ń":{"ha":731,"x_min":44,"x_max":693,"o":"m 217 625 l 217 538 q 406 639 281 638 q 415 639 411 639 q 631 558 568 639 q 693 328 693 478 l 693 0 l 514 0 l 514 328 q 389 497 514 496 q 385 497 386 497 q 263 442 301 497 q 224 286 224 388 l 224 0 l 44 0 l 44 625 l 217 625 m 393 860 l 603 860 l 478 697 l 324 697 l 393 860 z "},"Ņ":{"ha":940,"x_min":50,"x_max":890,"o":"m 50 0 l 50 893 l 247 893 l 710 238 l 710 893 l 890 893 l 890 0 l 692 0 l 231 646 l 231 0 l 50 0 m 371 -56 l 538 -56 l 446 -219 l 329 -219 l 371 -56 z "},"ņ":{"ha":731,"x_min":44,"x_max":693,"o":"m 44 625 l 217 625 l 217 538 q 406 639 281 638 q 415 639 411 639 q 631 558 568 639 q 693 328 693 478 l 693 0 l 514 0 l 514 328 q 389 497 514 496 q 385 497 386 497 q 263 442 301 497 q 224 286 224 388 l 224 0 l 44 0 l 44 625 m 231 -219 l 272 -56 l 438 -56 l 346 -219 l 231 -219 z "},"Ň":{"ha":940,"x_min":50,"x_max":890,"o":"m 50 893 l 247 893 l 710 238 l 710 893 l 890 893 l 890 0 l 692 0 l 231 646 l 231 0 l 50 0 l 50 893 m 235 1125 l 390 1125 l 483 1036 l 576 1125 l 732 1125 l 567 963 l 400 963 l 235 1125 z "},"ň":{"ha":731,"x_min":44,"x_max":693,"o":"m 44 0 l 44 625 l 217 625 l 217 538 q 406 639 281 638 q 415 639 411 639 q 631 558 568 639 q 693 328 693 478 l 693 0 l 514 0 l 514 328 q 389 497 514 496 q 385 497 386 497 q 263 442 301 497 q 224 286 224 388 l 224 0 l 44 0 m 143 860 l 297 860 l 392 771 l 485 860 l 639 860 l 474 697 l 308 697 l 143 860 z "},"Ŋ":{"ha":926,"x_min":50,"x_max":876,"o":"m 697 893 l 876 893 l 876 -56 q 823 -210 876 -168 q 639 -253 769 -253 l 543 -253 l 543 -114 l 639 -114 q 684 -101 672 -114 q 696 -56 696 -89 l 696 0 l 231 651 l 231 0 l 50 0 l 50 893 l 257 893 l 696 269 l 697 893 z "},"ŋ":{"ha":731,"x_min":44,"x_max":693,"o":"m 44 625 l 217 625 l 217 538 q 406 639 281 638 q 415 639 411 639 q 631 558 568 639 q 693 328 693 478 l 693 -56 q 640 -210 693 -167 q 456 -253 586 -253 l 361 -253 l 361 -112 l 456 -112 q 501 -101 489 -112 q 513 -56 513 -89 l 514 186 l 514 328 q 389 497 514 496 q 385 497 386 497 q 263 442 301 497 q 224 286 224 388 l 224 0 l 44 0 l 44 625 z "},"Ō":{"ha":1010,"x_min":28,"x_max":982,"o":"m 158 778 q 506 907 289 907 q 852 778 722 907 q 982 446 982 649 q 852 115 982 244 q 506 -14 722 -14 q 158 115 289 -14 q 28 446 28 244 q 158 778 28 649 m 293 225 q 506 140 368 140 q 719 225 644 140 q 793 446 793 308 q 719 668 793 583 q 506 753 644 753 q 294 667 369 753 q 218 446 218 582 q 293 225 218 308 m 313 1081 l 697 1081 l 697 963 l 313 963 l 313 1081 z "},"ō":{"ha":758,"x_min":24,"x_max":735,"o":"m 24 313 q 119 546 24 453 q 379 639 214 639 q 640 546 544 639 q 735 313 735 453 q 640 79 735 171 q 379 -14 544 -14 q 119 80 214 -14 q 24 313 24 174 m 206 313 q 250 179 206 232 q 379 126 294 126 q 508 180 463 126 q 553 313 553 233 q 508 447 553 396 q 379 499 464 499 q 250 447 294 499 q 206 313 206 396 m 571 813 l 571 694 l 186 694 l 186 813 l 571 813 z "},"Ő":{"ha":1010,"x_min":28,"x_max":982,"o":"m 158 778 q 506 907 289 907 q 852 778 722 907 q 982 446 982 649 q 852 115 982 244 q 506 -14 722 -14 q 158 115 289 -14 q 28 446 28 244 q 158 778 28 649 m 293 225 q 506 140 368 140 q 719 225 644 140 q 793 446 793 308 q 719 668 793 583 q 506 753 644 753 q 294 667 369 753 q 218 446 218 582 q 293 225 218 308 m 389 1125 l 600 1125 l 475 963 l 319 963 l 389 1125 m 650 1125 l 860 1125 l 735 963 l 581 963 l 650 1125 z "},"ő":{"ha":758,"x_min":24,"x_max":735,"o":"m 24 313 q 119 546 24 453 q 379 639 214 639 q 640 546 544 639 q 735 313 735 453 q 640 79 735 171 q 379 -14 544 -14 q 119 80 214 -14 q 24 313 24 174 m 250 179 q 379 126 294 126 q 508 180 463 126 q 553 313 553 233 q 508 447 553 396 q 379 499 464 499 q 250 447 294 499 q 206 313 206 396 q 250 179 206 232 m 263 857 l 474 857 l 349 694 l 193 694 l 263 857 m 454 694 l 524 857 l 733 857 l 608 694 l 454 694 z "},"Œ":{"ha":1569,"x_min":28,"x_max":1535,"o":"m 158 778 q 506 907 289 907 q 851 778 719 907 l 851 893 l 1521 893 l 1521 743 l 1032 743 l 1032 522 l 1456 522 l 1456 371 l 1032 371 l 1032 150 l 1535 150 l 1535 0 l 851 0 l 851 115 q 506 -14 719 -14 q 158 115 289 -14 q 28 446 28 244 q 158 778 28 649 m 218 446 q 293 224 218 308 q 506 140 368 140 q 719 224 644 140 q 793 446 793 308 q 719 668 793 583 q 506 753 644 753 q 294 667 369 753 q 218 446 218 582 z "},"œ":{"ha":1264,"x_min":24,"x_max":1242,"o":"m 119 546 q 379 639 214 639 q 656 529 556 639 q 917 639 747 639 q 1156 549 1069 639 q 1242 311 1242 460 q 1239 260 1242 286 l 758 260 q 809 163 764 199 q 919 126 854 126 q 974 133 950 126 q 1012 149 999 140 q 1034 168 1025 158 q 1046 185 1043 178 l 1049 192 l 1229 192 q 1223 169 1228 183 q 1197 120 1218 156 q 1144 58 1175 85 q 1053 8 1113 31 q 918 -14 993 -14 q 656 96 750 -14 q 379 -14 560 -14 q 119 80 214 -14 q 24 313 24 174 q 119 546 24 453 m 250 179 q 379 126 294 126 q 508 180 463 126 q 553 313 553 233 q 508 447 553 396 q 379 499 464 499 q 250 447 294 499 q 206 313 206 396 q 250 179 206 232 m 758 379 l 1067 379 q 1067 383 1067 381 q 1025 467 1067 436 q 918 499 983 499 q 809 465 851 499 q 758 379 767 432 z "},"Ŕ":{"ha":836,"x_min":50,"x_max":788,"o":"m 50 893 l 419 893 q 788 608 788 893 q 669 374 788 450 q 761 222 761 347 l 761 0 l 581 0 l 581 222 q 562 293 581 272 q 493 314 543 314 l 231 314 l 231 0 l 50 0 l 50 893 m 231 465 l 419 465 q 557 502 507 465 q 607 608 607 539 q 419 743 607 743 l 231 743 l 231 465 m 378 1125 l 588 1125 l 463 963 l 308 963 l 378 1125 z "},"ŕ":{"ha":478,"x_min":44,"x_max":472,"o":"m 44 0 l 44 625 l 219 625 l 219 532 q 388 625 275 625 l 461 625 l 461 475 l 392 475 q 253 422 282 475 q 224 190 224 368 l 224 0 l 44 0 m 193 694 l 263 857 l 472 857 l 347 694 l 193 694 z "},"Ŗ":{"ha":836,"x_min":50,"x_max":788,"o":"m 419 893 q 788 608 788 893 q 669 374 788 450 q 761 222 761 347 l 761 0 l 581 0 l 581 222 q 562 293 581 272 q 493 314 543 314 l 231 314 l 231 0 l 50 0 l 50 893 l 419 893 m 231 743 l 231 465 l 419 465 q 557 502 507 465 q 607 608 607 539 q 419 743 607 743 l 231 743 m 283 -219 l 325 -56 l 490 -56 l 399 -219 l 283 -219 z "},"ŗ":{"ha":478,"x_min":8,"x_max":461,"o":"m 44 625 l 219 625 l 219 532 q 388 625 275 625 l 461 625 l 461 475 l 392 475 q 253 422 282 475 q 224 190 224 368 l 224 0 l 44 0 l 44 625 m 8 -219 l 50 -56 l 215 -56 l 124 -219 l 8 -219 z "},"Ř":{"ha":836,"x_min":50,"x_max":788,"o":"m 50 893 l 419 893 q 788 608 788 893 q 669 374 788 450 q 761 222 761 347 l 761 0 l 581 0 l 581 222 q 562 293 581 272 q 493 314 543 314 l 231 314 l 231 0 l 50 0 l 50 893 m 231 743 l 231 465 l 419 465 q 557 502 507 465 q 607 608 607 539 q 419 743 607 743 l 231 743 m 282 1125 l 376 1036 l 469 1125 l 624 1125 l 458 963 l 293 963 l 128 1125 l 282 1125 z "},"ř":{"ha":478,"x_min":13,"x_max":510,"o":"m 44 625 l 219 625 l 219 532 q 388 625 275 625 l 461 625 l 461 475 l 392 475 q 253 422 282 475 q 224 190 224 368 l 224 0 l 44 0 l 44 625 m 13 857 l 168 857 l 261 768 l 354 857 l 510 857 l 344 694 l 178 694 l 13 857 z "},"Ś":{"ha":825,"x_min":22,"x_max":801,"o":"m 214 279 q 215 264 214 274 q 227 231 217 254 q 257 189 238 207 q 319 156 276 171 q 421 140 363 140 q 564 170 517 140 q 611 247 611 200 q 581 313 611 286 q 500 357 550 340 q 390 388 450 374 q 271 421 331 403 q 161 464 211 439 q 80 534 111 489 q 47 639 49 579 q 47 643 47 640 q 145 837 47 767 q 411 907 243 907 q 585 881 511 907 q 694 818 660 856 q 749 744 729 781 q 772 681 769 707 l 775 656 l 583 656 q 581 666 583 660 q 569 689 579 672 q 542 719 558 706 q 491 742 525 732 q 413 753 457 753 q 281 724 328 753 q 235 651 235 694 q 235 646 235 649 q 269 592 238 614 q 352 556 301 569 q 463 531 403 543 q 582 499 522 518 q 691 451 642 479 q 771 371 740 422 q 801 249 801 319 q 701 55 801 124 q 421 -14 601 -14 q 281 2 344 -14 q 178 44 218 18 q 107 101 138 69 q 61 164 76 132 q 36 222 46 196 q 25 264 26 247 l 22 279 l 214 279 m 407 1125 l 617 1125 l 492 963 l 338 963 l 407 1125 z "},"ś":{"ha":665,"x_min":24,"x_max":642,"o":"m 24 213 l 204 213 q 205 202 204 208 q 213 179 206 196 q 232 150 219 163 q 272 127 244 138 q 339 117 300 117 q 343 117 342 117 q 454 183 454 117 q 454 186 454 185 q 390 240 453 219 q 252 273 328 261 q 110 326 176 285 q 40 436 44 367 q 40 449 40 443 q 117 581 40 522 q 325 639 193 639 q 469 619 407 639 q 559 569 531 599 q 604 511 588 540 q 624 461 621 482 l 626 442 l 444 442 q 443 449 444 444 q 435 465 442 454 q 417 485 428 476 q 382 502 406 494 q 326 510 358 510 q 244 492 274 510 q 217 451 217 475 q 218 435 217 450 q 263 404 219 421 q 367 376 307 388 q 489 347 428 364 q 594 293 550 331 q 642 197 639 256 q 642 182 642 190 q 564 42 642 97 q 328 -14 486 -14 q 184 10 246 -14 q 93 67 122 33 q 47 133 64 100 q 26 189 29 165 l 24 213 m 333 857 l 543 857 l 418 694 l 264 694 l 333 857 z "},"Ş":{"ha":825,"x_min":22,"x_max":801,"o":"m 214 279 q 215 264 214 274 q 227 231 217 254 q 257 189 238 207 q 319 156 276 171 q 421 140 363 140 q 564 170 517 140 q 611 247 611 200 q 581 313 611 286 q 500 357 550 340 q 390 388 450 374 q 271 421 331 403 q 161 464 211 439 q 80 534 111 489 q 47 639 49 579 q 47 643 47 640 q 145 837 47 767 q 411 907 243 907 q 585 881 511 907 q 694 818 660 856 q 749 744 729 781 q 772 681 769 707 l 775 656 l 583 656 q 581 666 583 660 q 569 689 579 672 q 542 719 558 706 q 491 742 525 732 q 413 753 457 753 q 281 724 328 753 q 235 651 235 694 q 235 646 235 649 q 269 592 238 614 q 352 556 301 569 q 463 531 403 543 q 582 499 522 518 q 691 451 642 479 q 771 371 740 422 q 801 249 801 319 q 723 72 801 139 q 501 -10 644 6 l 501 -35 q 464 -156 501 -126 q 326 -186 426 -186 l 269 -186 l 269 -71 l 326 -71 q 354 -62 346 -71 q 363 -35 363 -54 l 363 -11 q 206 30 274 -3 q 104 103 138 63 q 51 185 71 144 q 26 253 31 225 l 22 279 l 214 279 z "},"ş":{"ha":665,"x_min":24,"x_max":642,"o":"m 24 213 l 204 213 q 205 202 204 208 q 213 179 206 196 q 232 150 219 163 q 272 127 244 138 q 339 117 300 117 q 343 117 342 117 q 454 183 454 117 q 454 186 454 185 q 390 240 453 219 q 252 273 328 261 q 110 326 176 285 q 40 436 44 367 q 40 449 40 443 q 117 581 40 522 q 325 639 193 639 q 469 619 407 639 q 559 569 531 599 q 604 511 588 540 q 624 461 621 482 l 626 442 l 444 442 q 443 449 444 444 q 435 465 442 454 q 417 485 428 476 q 382 502 406 494 q 326 510 358 510 q 245 492 274 510 q 217 451 217 475 q 218 435 217 450 q 263 404 219 421 q 367 376 307 388 q 489 347 428 364 q 594 293 550 331 q 642 197 639 256 q 642 183 642 190 q 590 63 642 113 q 431 -6 539 13 l 431 -35 q 392 -156 431 -126 q 254 -186 354 -186 l 199 -186 l 199 -71 l 254 -71 q 283 -62 275 -71 q 292 -35 292 -54 l 292 -12 q 165 18 219 -7 q 84 75 110 43 q 43 138 58 107 q 25 192 28 169 l 24 213 z "},"Š":{"ha":825,"x_min":22,"x_max":801,"o":"m 22 279 l 214 279 q 215 264 214 274 q 227 231 217 254 q 257 189 238 207 q 319 156 276 171 q 421 140 363 140 q 564 170 517 140 q 611 247 611 200 q 581 313 611 286 q 500 357 550 340 q 390 388 450 374 q 271 421 331 403 q 161 464 211 439 q 80 534 111 489 q 47 639 49 579 q 47 643 47 640 q 145 837 47 767 q 411 907 243 907 q 585 881 511 907 q 694 818 660 856 q 749 744 729 781 q 772 681 769 707 l 775 656 l 583 656 q 581 666 583 660 q 569 689 579 672 q 542 719 558 706 q 491 742 525 732 q 413 753 457 753 q 281 724 328 753 q 235 651 235 694 q 235 646 235 649 q 269 592 238 614 q 352 556 301 569 q 463 531 403 543 q 582 499 522 518 q 691 451 642 479 q 771 371 740 422 q 801 249 801 319 q 701 55 801 124 q 421 -14 601 -14 q 281 2 344 -14 q 178 44 218 18 q 107 101 138 69 q 61 164 76 132 q 36 222 46 196 q 25 264 26 247 l 22 279 m 311 1125 l 406 1036 l 499 1125 l 653 1125 l 488 963 l 322 963 l 157 1125 l 311 1125 z "},"š":{"ha":665,"x_min":24,"x_max":642,"o":"m 24 213 l 204 213 q 205 202 204 208 q 213 179 206 196 q 232 150 219 163 q 272 127 244 138 q 339 117 300 117 q 343 117 342 117 q 454 183 454 117 q 454 186 454 185 q 390 240 453 219 q 252 273 328 261 q 110 326 176 285 q 40 436 44 367 q 40 449 40 443 q 117 581 40 522 q 325 639 193 639 q 469 619 407 639 q 559 569 531 599 q 604 511 588 540 q 624 461 621 482 l 626 442 l 444 442 q 443 449 444 444 q 435 465 442 454 q 417 485 428 476 q 382 502 406 494 q 326 510 358 510 q 245 492 274 510 q 217 451 217 475 q 218 435 217 450 q 263 404 219 421 q 367 376 307 388 q 489 347 428 364 q 594 293 550 331 q 642 197 639 256 q 642 182 642 190 q 564 42 642 97 q 328 -14 486 -14 q 184 10 246 -14 q 93 67 122 33 q 47 133 64 100 q 26 189 29 165 l 24 213 m 238 857 l 331 768 l 424 857 l 579 857 l 414 694 l 247 694 l 82 857 l 238 857 z "},"Ţ":{"ha":831,"x_min":28,"x_max":803,"o":"m 28 893 l 803 893 l 803 743 l 506 743 l 506 0 l 486 0 l 486 -35 q 448 -156 486 -126 q 310 -186 410 -186 l 253 -186 l 253 -71 l 310 -71 q 338 -62 329 -71 q 346 -35 346 -54 l 346 0 l 325 0 l 325 743 l 28 743 l 28 893 z "},"ţ":{"ha":446,"x_min":3,"x_max":413,"o":"m 3 625 l 83 625 l 83 808 l 263 808 l 263 625 l 413 625 l 413 475 l 264 475 l 264 197 q 274 160 264 171 q 308 150 283 150 l 413 150 l 413 0 l 360 0 l 360 -24 q 322 -145 360 -115 q 183 -175 283 -175 l 126 -175 l 126 -60 l 183 -60 q 212 -51 204 -60 q 219 -24 219 -43 l 219 6 q 114 58 144 17 q 83 197 83 100 l 83 475 l 3 475 l 3 625 z "},"Ť":{"ha":831,"x_min":28,"x_max":803,"o":"m 803 893 l 803 743 l 506 743 l 506 0 l 325 0 l 325 743 l 28 743 l 28 893 l 803 893 m 168 1125 l 322 1125 l 417 1036 l 510 1125 l 664 1125 l 499 963 l 333 963 l 168 1125 z "},"ť":{"ha":446,"x_min":3,"x_max":593,"o":"m 3 625 l 83 625 l 83 808 l 263 808 l 263 625 l 413 625 l 413 475 l 264 475 l 264 197 q 274 160 264 171 q 308 150 283 150 l 413 150 l 413 0 l 308 0 q 131 39 179 0 q 83 197 83 78 l 83 475 l 3 475 l 3 625 m 383 893 l 593 893 l 468 731 l 314 731 l 383 893 z "},"Ŧ":{"ha":831,"x_min":28,"x_max":803,"o":"m 803 893 l 803 743 l 506 743 l 506 513 l 678 513 l 678 397 l 506 397 l 506 0 l 325 0 l 325 397 l 154 397 l 154 513 l 325 513 l 325 743 l 28 743 l 28 893 l 803 893 z "},"ŧ":{"ha":446,"x_min":3,"x_max":413,"o":"m 83 625 l 83 808 l 263 808 l 263 625 l 413 625 l 413 475 l 264 475 l 264 393 l 413 393 l 413 276 l 264 276 l 264 197 q 274 160 264 171 q 308 150 283 150 l 413 150 l 413 0 l 308 0 q 131 39 179 0 q 83 197 83 78 l 83 276 l 4 276 l 4 393 l 83 393 l 83 475 l 3 475 l 3 625 l 83 625 z "},"Ū":{"ha":901,"x_min":50,"x_max":851,"o":"m 50 368 l 50 893 l 231 893 l 231 368 q 278 201 231 261 q 450 140 326 140 q 623 201 575 140 q 671 368 671 261 l 671 893 l 851 893 l 851 368 q 842 251 851 303 q 806 147 832 199 q 735 62 779 96 q 619 7 692 28 q 450 -14 547 -14 q 244 16 326 -14 q 121 103 161 46 q 65 222 81 160 q 50 368 50 283 m 258 963 l 258 1081 l 643 1081 l 643 963 l 258 963 z "},"ū":{"ha":711,"x_min":38,"x_max":661,"o":"m 217 625 l 217 286 q 247 162 217 200 q 346 124 278 124 q 420 140 392 124 q 462 190 449 156 q 478 258 475 224 q 482 346 482 292 l 482 625 l 661 625 l 661 0 l 486 0 l 486 76 q 318 -14 428 -12 q 307 -14 313 -14 q 100 60 163 -14 q 38 286 38 135 l 38 625 l 217 625 m 543 813 l 543 694 l 158 694 l 158 813 l 543 813 z "},"Ů":{"ha":901,"x_min":50,"x_max":851,"o":"m 50 893 l 231 893 l 231 368 q 278 201 231 261 q 450 140 326 140 q 623 201 575 140 q 671 368 671 261 l 671 893 l 851 893 l 851 368 q 842 251 851 303 q 806 147 832 199 q 735 62 779 96 q 619 7 692 28 q 450 -14 547 -14 q 244 16 326 -14 q 121 103 161 46 q 65 222 81 160 q 50 368 50 283 l 50 893 m 325 1076 q 363 1165 325 1128 q 451 1203 400 1203 q 540 1165 503 1203 q 578 1076 578 1128 q 540 988 578 1025 q 451 950 503 950 q 363 988 400 950 q 325 1076 325 1025 m 396 1076 q 412 1038 396 1053 q 451 1022 428 1022 q 491 1038 475 1022 q 507 1076 507 1054 q 490 1116 507 1100 q 451 1132 474 1132 q 412 1116 428 1132 q 396 1076 396 1100 z "},"ů":{"ha":711,"x_min":38,"x_max":661,"o":"m 38 625 l 217 625 l 217 286 q 247 162 217 200 q 346 124 278 124 q 420 140 392 124 q 462 190 449 156 q 478 258 475 224 q 482 346 482 292 l 482 625 l 661 625 l 661 0 l 486 0 l 486 76 q 318 -14 428 -12 q 307 -14 313 -14 q 100 60 163 -14 q 38 286 38 135 l 38 625 m 225 808 q 263 898 225 861 q 351 935 300 935 q 440 898 403 935 q 478 808 478 861 q 440 719 478 756 q 351 682 403 682 q 263 719 300 682 q 225 808 225 756 m 313 769 q 351 754 328 754 q 391 770 375 754 q 407 808 407 786 q 390 848 407 832 q 351 864 374 864 q 312 848 328 864 q 296 808 296 832 q 313 769 296 785 z "},"Ű":{"ha":901,"x_min":50,"x_max":851,"o":"m 50 368 l 50 893 l 231 893 l 231 368 q 278 201 231 261 q 450 140 326 140 q 623 201 575 140 q 671 368 671 261 l 671 893 l 851 893 l 851 368 q 842 251 851 303 q 806 147 832 199 q 735 62 779 96 q 619 7 692 28 q 450 -14 547 -14 q 244 16 326 -14 q 121 103 161 46 q 65 222 81 160 q 50 368 50 283 m 526 963 l 596 1125 l 806 1125 l 681 963 l 526 963 m 265 963 l 335 1125 l 544 1125 l 419 963 l 265 963 z "},"ű":{"ha":711,"x_min":38,"x_max":706,"o":"m 217 625 l 217 286 q 247 162 217 200 q 346 124 278 124 q 420 140 392 124 q 462 190 449 156 q 478 258 475 224 q 482 346 482 292 l 482 625 l 661 625 l 661 0 l 486 0 l 486 76 q 318 -14 428 -12 q 307 -14 313 -14 q 100 60 163 -14 q 38 286 38 135 l 38 625 l 217 625 m 426 694 l 496 857 l 706 857 l 581 694 l 426 694 m 235 857 l 444 857 l 319 694 l 165 694 l 235 857 z "},"Ų":{"ha":901,"x_min":50,"x_max":851,"o":"m 231 893 l 231 368 q 278 201 231 261 q 450 140 326 140 q 623 201 575 140 q 671 368 671 261 l 671 893 l 851 893 l 851 368 q 836 230 851 290 q 785 115 821 169 q 677 27 749 60 q 501 -12 606 -6 l 501 -18 q 528 -43 501 -43 l 565 -43 l 565 -129 l 528 -129 q 425 -108 453 -129 q 397 -18 397 -86 l 397 -12 q 248 17 311 -7 q 147 74 185 40 q 88 158 110 108 q 58 256 65 207 q 50 368 50 306 l 50 893 l 231 893 z "},"ų":{"ha":711,"x_min":38,"x_max":661,"o":"m 38 625 l 217 625 l 217 286 q 247 162 217 200 q 346 124 278 124 q 420 140 392 124 q 462 190 449 156 q 478 258 475 224 q 482 346 482 292 l 482 625 l 661 625 l 661 0 l 590 0 l 590 -18 q 617 -43 590 -43 l 654 -43 l 654 -129 l 617 -129 q 514 -108 542 -129 q 486 -18 486 -86 l 486 76 q 318 -14 428 -12 q 307 -14 313 -14 q 100 60 163 -14 q 38 286 38 135 l 38 625 z "},"Ŵ":{"ha":1493,"x_min":15,"x_max":1478,"o":"m 210 893 l 429 224 l 664 893 l 829 893 l 1065 224 l 1285 893 l 1478 893 l 1168 0 l 979 0 l 747 658 l 517 0 l 326 0 l 15 893 l 210 893 m 661 1125 l 826 1125 l 992 963 l 838 963 l 744 1051 l 650 963 l 496 963 l 661 1125 z "},"ŵ":{"ha":1071,"x_min":-6,"x_max":1076,"o":"m 182 625 l 311 210 l 458 625 l 614 625 l 758 210 l 890 625 l 1076 625 l 844 0 l 679 0 l 535 418 l 390 0 l 224 0 l -6 625 l 182 625 m 293 694 l 458 857 l 624 857 l 789 694 l 635 694 l 542 783 l 447 694 l 293 694 z "},"Ŷ":{"ha":975,"x_min":15,"x_max":960,"o":"m 15 893 l 219 893 l 489 481 l 757 893 l 960 893 l 578 321 l 578 0 l 397 0 l 397 321 l 15 893 m 406 1125 l 571 1125 l 736 963 l 582 963 l 489 1051 l 394 963 l 240 963 l 406 1125 z "},"ŷ":{"ha":674,"x_min":-6,"x_max":679,"o":"m 182 625 l 333 208 l 493 625 l 679 625 l 401 -57 q 370 -131 382 -107 q 339 -184 358 -156 q 297 -225 319 -212 q 240 -246 275 -237 q 157 -254 206 -254 l 44 -254 l 44 -104 l 157 -104 q 205 -95 192 -104 q 231 -57 218 -86 l 254 6 l -6 625 l 182 625 m 254 857 l 421 857 l 586 694 l 431 694 l 338 783 l 244 694 l 89 694 l 254 857 z "},"Ÿ":{"ha":975,"x_min":15,"x_max":960,"o":"m 15 893 l 219 893 l 489 481 l 757 893 l 960 893 l 578 321 l 578 0 l 397 0 l 397 321 l 15 893 m 282 1047 q 308 1113 282 1086 q 371 1139 333 1139 q 437 1113 411 1139 q 463 1047 463 1086 q 436 984 463 1010 q 371 958 410 958 q 308 985 335 958 q 282 1047 282 1011 m 511 1047 q 538 1113 511 1086 q 601 1139 564 1139 q 665 1113 639 1139 q 692 1047 692 1086 q 665 985 692 1011 q 601 958 639 958 q 538 985 565 958 q 511 1047 511 1011 z "},"Ź":{"ha":990,"x_min":50,"x_max":940,"o":"m 722 1125 l 597 963 l 442 963 l 511 1125 l 722 1125 m 296 150 l 940 150 l 940 0 l 50 0 l 50 150 l 682 743 l 74 743 l 74 893 l 935 893 l 935 751 l 296 150 z "},"ź":{"ha":653,"x_min":17,"x_max":636,"o":"m 543 857 l 418 694 l 264 694 l 333 857 l 543 857 m 244 150 l 636 150 l 636 0 l 17 0 l 17 150 l 383 475 l 35 475 l 35 625 l 617 625 l 617 481 l 244 150 z "},"Ż":{"ha":990,"x_min":50,"x_max":940,"o":"m 50 150 l 682 743 l 74 743 l 74 893 l 935 893 l 935 751 l 296 150 l 940 150 l 940 0 l 50 0 l 50 150 m 439 1136 q 510 1167 468 1167 q 583 1136 553 1167 q 614 1063 614 1106 q 583 991 614 1021 q 510 961 553 961 q 438 991 468 961 q 408 1063 408 1021 q 439 1136 408 1106 z "},"ż":{"ha":653,"x_min":17,"x_max":636,"o":"m 17 150 l 383 475 l 35 475 l 35 625 l 617 625 l 617 481 l 244 150 l 636 150 l 636 0 l 17 0 l 17 150 m 231 794 q 260 868 231 838 q 332 899 290 899 q 405 868 375 899 q 435 794 435 838 q 405 723 435 753 q 332 693 375 693 q 260 723 290 693 q 231 794 231 753 z "},"Ž":{"ha":990,"x_min":50,"x_max":940,"o":"m 50 0 l 50 150 l 682 743 l 74 743 l 74 893 l 935 893 l 935 751 l 296 150 l 940 150 l 940 0 l 50 0 m 417 1125 l 510 1036 l 603 1125 l 758 1125 l 593 963 l 426 963 l 261 1125 l 417 1125 z "},"ž":{"ha":653,"x_min":17,"x_max":636,"o":"m 17 150 l 383 475 l 35 475 l 35 625 l 617 625 l 617 481 l 244 150 l 636 150 l 636 0 l 17 0 l 17 150 m 238 857 l 332 768 l 425 857 l 579 857 l 415 694 l 249 694 l 83 857 l 238 857 z "},"Ə":{"ha":979,"x_min":29,"x_max":951,"o":"m 31 501 l 765 501 q 678 685 750 618 q 479 753 606 753 q 371 738 418 753 q 300 703 324 724 q 262 663 276 683 q 244 628 247 643 l 240 614 l 47 614 q 180 817 60 728 q 479 907 300 907 q 824 789 700 907 q 951 461 949 671 q 951 451 951 456 q 926 278 951 358 q 846 130 900 197 q 697 24 792 63 q 475 -14 601 -14 q 303 17 385 -14 q 156 110 221 49 q 60 263 92 171 q 29 453 29 354 q 31 501 29 476 m 236 283 q 277 216 250 250 q 356 161 304 182 q 475 140 407 140 q 763 350 725 140 l 218 350 q 236 283 222 315 z "},"Ǽ":{"ha":1256,"x_min":0,"x_max":1221,"o":"m 468 893 l 1207 893 l 1207 743 l 717 743 l 717 522 l 1142 522 l 1142 371 l 717 371 l 717 150 l 1221 150 l 1221 0 l 536 0 l 536 142 l 249 142 l 175 0 l 0 0 l 468 893 m 536 293 l 536 689 l 329 293 l 536 293 m 574 963 l 643 1125 l 853 1125 l 728 963 l 574 963 z "},"ǽ":{"ha":1161,"x_min":25,"x_max":1139,"o":"m 25 172 q 50 258 25 221 q 121 318 75 296 q 213 354 167 340 q 317 374 258 368 q 410 382 376 381 q 482 383 444 383 l 482 399 q 450 486 482 456 q 358 517 418 517 q 272 499 303 517 q 236 463 240 481 l 232 444 l 50 444 q 54 466 51 453 q 76 513 57 479 q 124 572 94 546 q 215 618 153 597 q 360 639 278 639 q 581 557 513 639 q 815 639 669 639 q 1053 549 967 639 q 1139 311 1139 460 q 1136 260 1139 286 l 657 260 q 708 163 663 199 q 818 126 753 126 q 873 133 849 126 q 910 149 897 140 q 933 168 924 158 q 944 185 942 178 l 947 192 l 1126 192 q 1120 169 1125 183 q 1094 120 1115 156 q 1042 58 1072 85 q 951 8 1011 31 q 817 -14 892 -14 q 549 103 642 -14 q 268 -14 450 -14 q 85 39 146 -14 q 25 172 25 92 m 965 379 q 965 383 965 381 q 924 467 965 436 q 817 499 882 499 q 708 465 750 499 q 657 379 665 432 l 965 379 m 240 133 q 304 117 265 118 q 313 117 308 117 q 428 153 374 117 q 483 254 483 189 l 486 254 l 486 257 q 400 255 436 257 q 315 246 364 253 q 241 222 267 239 q 215 176 215 204 q 240 133 215 149 m 528 694 l 597 857 l 808 857 l 683 694 l 528 694 z "},"Ș":{"ha":825,"x_min":22,"x_max":801,"o":"m 214 279 q 215 264 214 274 q 227 231 217 254 q 257 189 238 207 q 319 156 276 171 q 421 140 363 140 q 564 170 517 140 q 611 247 611 200 q 581 313 611 286 q 500 357 550 340 q 390 388 450 374 q 271 421 331 403 q 161 464 211 439 q 80 534 111 489 q 47 639 49 579 q 47 643 47 640 q 145 837 47 767 q 411 907 243 907 q 585 881 511 907 q 694 818 660 856 q 749 744 729 781 q 772 681 769 707 l 775 656 l 583 656 q 581 666 583 660 q 569 689 579 672 q 542 719 558 706 q 491 742 525 732 q 413 753 457 753 q 281 724 328 753 q 235 651 235 694 q 235 646 235 649 q 269 592 238 614 q 352 556 301 569 q 463 531 403 543 q 582 499 522 518 q 691 451 642 479 q 771 371 740 422 q 801 249 801 319 q 701 55 801 124 q 421 -14 601 -14 q 281 2 344 -14 q 178 44 218 18 q 107 101 138 69 q 61 164 76 132 q 36 222 46 196 q 25 264 26 247 l 22 279 l 214 279 m 307 -219 l 349 -56 l 515 -56 l 424 -219 l 307 -219 z "},"ș":{"ha":665,"x_min":24,"x_max":642,"o":"m 24 213 l 204 213 q 205 202 204 208 q 213 179 206 196 q 232 150 219 163 q 272 127 244 138 q 339 117 300 117 q 343 117 342 117 q 454 183 454 117 q 454 186 454 185 q 390 240 453 219 q 252 273 328 261 q 110 326 176 285 q 40 436 44 367 q 40 449 40 443 q 117 581 40 522 q 325 639 193 639 q 469 619 407 639 q 559 569 531 599 q 604 511 588 540 q 624 461 621 482 l 626 442 l 444 442 q 443 449 444 444 q 435 465 442 454 q 417 485 428 476 q 382 502 406 494 q 326 510 358 510 q 244 492 274 510 q 217 451 217 475 q 218 435 217 450 q 263 404 219 421 q 367 376 307 388 q 489 347 428 364 q 594 293 550 331 q 642 197 639 256 q 642 182 642 190 q 564 42 642 97 q 328 -14 486 -14 q 184 10 246 -14 q 93 67 122 33 q 47 133 64 100 q 26 189 29 165 l 24 213 m 278 -56 l 444 -56 l 353 -219 l 236 -219 l 278 -56 z "},"Ț":{"ha":831,"x_min":28,"x_max":803,"o":"m 803 893 l 803 743 l 506 743 l 506 0 l 325 0 l 325 743 l 28 743 l 28 893 l 803 893 m 333 -56 l 499 -56 l 407 -219 l 292 -219 l 333 -56 z "},"ț":{"ha":446,"x_min":3,"x_max":413,"o":"m 3 625 l 83 625 l 83 808 l 263 808 l 263 625 l 413 625 l 413 475 l 264 475 l 264 197 q 274 160 264 171 q 308 150 283 150 l 413 150 l 413 0 l 308 0 q 131 39 179 0 q 83 197 83 78 l 83 475 l 3 475 l 3 625 m 207 -44 l 372 -44 l 281 -208 l 165 -208 l 207 -44 z "},"ȷ":{"ha":311,"x_min":-71,"x_max":261,"o":"m -71 -253 l -71 -112 l 25 -112 q 70 -100 58 -112 q 82 -56 82 -87 l 82 625 l 261 625 l 261 -56 q 208 -210 261 -167 q 25 -253 156 -253 l -71 -253 z "},"ə":{"ha":704,"x_min":22,"x_max":681,"o":"m 25 365 l 504 365 q 454 463 499 426 q 343 499 410 499 q 288 492 313 499 q 251 476 264 485 q 228 457 238 467 q 217 440 219 447 l 214 433 l 35 433 q 41 456 36 442 q 67 505 46 469 q 119 567 89 540 q 210 617 150 594 q 344 639 269 639 q 588 550 494 639 q 681 314 681 461 q 592 77 681 168 q 347 -14 503 -14 q 108 76 194 -14 q 22 314 22 165 q 25 365 22 339 m 239 158 q 346 126 281 126 q 453 160 411 126 q 504 246 496 193 l 196 246 q 239 158 196 190 z "},"ˆ":{"ha":597,"x_min":50,"x_max":547,"o":"m 547 694 l 392 694 l 299 783 l 206 694 l 50 694 l 215 857 l 382 857 l 547 694 z "},"ˇ":{"ha":597,"x_min":50,"x_max":547,"o":"m 392 857 l 547 857 l 382 694 l 215 694 l 50 857 l 206 857 l 299 768 l 392 857 z "},"˙":{"ha":306,"x_min":50,"x_max":256,"o":"m 256 794 q 225 723 256 753 q 151 693 194 693 q 81 723 111 693 q 50 794 50 753 q 81 868 50 838 q 151 899 111 899 q 225 868 194 899 q 256 794 256 838 z "},"˚":{"ha":353,"x_min":50,"x_max":303,"o":"m 88 898 q 106 916 88 898 q 176 935 125 935 q 265 898 228 935 q 303 808 303 861 q 265 719 303 756 q 176 682 228 682 q 88 719 125 682 q 50 808 50 756 q 88 898 50 861 m 176 864 q 137 848 153 864 q 121 808 121 832 q 137 769 121 785 q 176 754 153 754 q 216 770 200 754 q 232 808 232 786 q 215 848 232 832 q 176 864 199 864 z "},"˛":{"ha":268,"x_min":50,"x_max":218,"o":"m 218 -129 l 218 -43 l 181 -43 q 154 -18 154 -43 l 154 60 l 50 60 l 50 -18 q 78 -108 50 -86 q 181 -129 106 -129 l 218 -129 z "},"˜":{"ha":600,"x_min":50,"x_max":550,"o":"m 501 851 l 550 851 q 510 741 550 788 q 392 694 471 694 q 291 717 344 694 q 208 742 238 740 q 142 732 169 743 q 107 708 115 721 l 99 696 l 50 696 q 89 806 50 760 q 208 854 128 851 q 309 830 256 856 q 393 803 363 804 q 460 813 433 801 q 494 839 488 825 l 501 851 z "},"˝":{"ha":640,"x_min":50,"x_max":590,"o":"m 119 857 l 329 857 l 204 694 l 50 694 l 119 857 m 381 857 l 590 857 l 465 694 l 311 694 l 381 857 z "},"ʹ":{"ha":833,"x_min":0,"x_max":0,"o":""},"͵":{"ha":833,"x_min":0,"x_max":0,"o":""},"π":{"ha":758,"x_min":44,"x_max":713,"o":"m 669 140 l 713 140 l 713 0 l 669 0 q 485 43 539 0 q 432 197 432 86 l 432 485 l 321 485 l 321 0 l 144 0 l 144 485 l 44 485 l 44 625 l 706 625 l 706 485 l 611 485 l 613 197 q 624 153 613 165 q 669 140 636 140 z "},"Ẁ":{"ha":1493,"x_min":15,"x_max":1478,"o":"m 210 893 l 429 224 l 664 893 l 829 893 l 1065 224 l 1285 893 l 1478 893 l 1168 0 l 979 0 l 747 658 l 517 0 l 326 0 l 15 893 l 210 893 m 747 1125 l 817 963 l 661 963 l 536 1125 l 747 1125 z "},"ẁ":{"ha":1071,"x_min":-6,"x_max":1076,"o":"m 182 625 l 311 210 l 458 625 l 614 625 l 758 210 l 890 625 l 1076 625 l 844 0 l 679 0 l 535 418 l 390 0 l 224 0 l -6 625 l 182 625 m 333 857 l 544 857 l 614 694 l 458 694 l 333 857 z "},"Ẃ":{"ha":1493,"x_min":15,"x_max":1478,"o":"m 210 893 l 429 224 l 664 893 l 829 893 l 1065 224 l 1285 893 l 1478 893 l 1168 0 l 979 0 l 747 658 l 517 0 l 326 0 l 15 893 l 210 893 m 676 963 l 746 1125 l 956 1125 l 831 963 l 676 963 z "},"ẃ":{"ha":1071,"x_min":-6,"x_max":1076,"o":"m 182 625 l 311 210 l 458 625 l 614 625 l 758 210 l 890 625 l 1076 625 l 844 0 l 679 0 l 535 418 l 390 0 l 224 0 l -6 625 l 182 625 m 474 694 l 543 857 l 753 857 l 628 694 l 474 694 z "},"Ẅ":{"ha":1493,"x_min":15,"x_max":1478,"o":"m 210 893 l 429 224 l 664 893 l 829 893 l 1065 224 l 1285 893 l 1478 893 l 1168 0 l 979 0 l 747 658 l 517 0 l 326 0 l 15 893 l 210 893 m 538 1047 q 563 1113 538 1086 q 626 1139 589 1139 q 692 1113 667 1139 q 718 1047 718 1086 q 692 984 718 1010 q 626 958 665 958 q 564 985 590 958 q 538 1047 538 1011 m 767 1047 q 793 1113 767 1086 q 856 1139 819 1139 q 921 1113 894 1139 q 947 1047 947 1086 q 921 985 947 1011 q 856 958 894 958 q 793 985 819 958 q 767 1047 767 1011 z "},"ẅ":{"ha":1071,"x_min":-6,"x_max":1076,"o":"m -6 625 l 182 625 l 311 210 l 458 625 l 614 625 l 758 210 l 890 625 l 1076 625 l 844 0 l 679 0 l 535 418 l 390 0 l 224 0 l -6 625 m 335 779 q 360 844 335 818 q 424 871 386 871 q 490 845 464 871 q 515 779 515 819 q 489 716 515 742 q 424 690 463 690 q 361 717 388 690 q 335 779 335 743 m 564 779 q 590 844 564 818 q 654 871 617 871 q 718 844 692 871 q 744 779 744 818 q 718 717 744 743 q 654 690 692 690 q 591 717 618 690 q 564 779 564 743 z "},"ẞ":{"ha":790,"x_min":50,"x_max":756,"o":"m 50 608 q 133 825 50 743 q 372 907 215 907 q 608 838 529 907 q 686 669 686 768 q 686 667 686 668 q 586 494 686 544 q 756 264 756 432 q 660 71 756 142 q 404 0 564 0 l 321 0 l 321 143 l 404 143 q 521 176 479 143 q 563 264 563 208 q 374 404 563 404 q 321 401 349 404 l 321 551 q 336 551 329 551 q 460 577 413 551 q 508 660 508 603 q 508 669 508 665 q 379 760 504 760 q 243 608 243 760 l 243 0 l 50 0 l 50 608 z "},"Ỳ":{"ha":975,"x_min":15,"x_max":960,"o":"m 219 893 l 489 481 l 757 893 l 960 893 l 578 321 l 578 0 l 397 0 l 397 321 l 15 893 l 219 893 m 281 1125 l 492 1125 l 561 963 l 406 963 l 281 1125 z "},"ỳ":{"ha":674,"x_min":-6,"x_max":679,"o":"m -6 625 l 182 625 l 333 208 l 493 625 l 679 625 l 401 -57 q 370 -131 382 -107 q 339 -184 358 -156 q 297 -225 319 -212 q 240 -246 275 -237 q 157 -254 206 -254 l 44 -254 l 44 -104 l 157 -104 q 205 -95 192 -104 q 231 -57 218 -86 l 254 6 l -6 625 m 340 857 l 410 694 l 256 694 l 131 857 l 340 857 z "},"Ỹ":{"ha":975,"x_min":15,"x_max":960,"o":"m 219 893 l 489 481 l 757 893 l 960 893 l 578 321 l 578 0 l 397 0 l 397 321 l 15 893 l 219 893 m 250 964 q 289 1074 250 1028 q 408 1122 328 1119 q 413 1122 411 1122 q 510 1097 458 1122 q 593 1071 563 1072 q 601 1071 597 1071 q 662 1082 636 1071 q 694 1106 688 1093 l 701 1119 l 750 1119 q 710 1009 750 1056 q 592 963 671 963 q 491 985 544 963 q 408 1010 438 1008 q 400 1010 404 1010 q 341 999 367 1010 q 307 976 315 989 l 299 964 l 250 964 z "},"ỹ":{"ha":674,"x_min":-6,"x_max":679,"o":"m -6 625 l 182 625 l 333 208 l 493 625 l 679 625 l 401 -57 q 370 -131 382 -107 q 339 -184 358 -156 q 297 -225 319 -212 q 240 -246 275 -237 q 157 -254 206 -254 l 44 -254 l 44 -104 l 157 -104 q 205 -95 192 -104 q 231 -57 218 -86 l 254 6 l -6 625 m 138 806 q 257 854 176 851 q 261 854 260 854 q 359 829 307 854 q 442 803 411 804 q 450 803 446 803 q 510 814 485 803 q 543 839 536 825 l 550 851 l 599 851 q 559 741 599 788 q 440 694 519 694 q 340 717 393 694 q 257 742 286 740 q 249 742 253 742 q 190 731 215 742 q 156 708 164 721 l 147 696 l 99 696 q 138 806 99 760 z "},"–":{"ha":918,"x_min":118,"x_max":800,"o":"m 800 276 l 118 276 l 118 417 l 800 417 l 800 276 z "},"—":{"ha":1232,"x_min":117,"x_max":1115,"o":"m 1115 276 l 117 276 l 117 417 l 1115 417 l 1115 276 z "},"‘":{"ha":332,"x_min":49,"x_max":283,"o":"m 247 893 l 283 592 l 168 592 l 49 893 l 247 893 z "},"’":{"ha":332,"x_min":49,"x_max":283,"o":"m 85 893 l 283 893 l 164 592 l 49 592 l 85 893 z "},"‚":{"ha":325,"x_min":44,"x_max":279,"o":"m 81 192 l 279 192 l 161 -110 l 44 -110 l 81 192 z "},"“":{"ha":585,"x_min":49,"x_max":536,"o":"m 247 893 l 283 592 l 168 592 l 49 893 l 247 893 m 500 893 l 536 592 l 419 592 l 301 893 l 500 893 z "},"”":{"ha":585,"x_min":49,"x_max":536,"o":"m 85 893 l 283 893 l 164 592 l 49 592 l 85 893 m 336 893 l 536 893 l 417 592 l 301 592 l 336 893 z "},"„":{"ha":576,"x_min":44,"x_max":532,"o":"m 81 192 l 279 192 l 161 -110 l 44 -110 l 81 192 m 333 192 l 532 192 l 413 -110 l 297 -110 l 333 192 z "},"†":{"ha":465,"x_min":49,"x_max":417,"o":"m 417 749 l 417 608 l 310 608 l 310 146 l 156 146 l 156 608 l 49 608 l 49 749 l 156 749 l 156 853 l 310 853 l 310 749 l 417 749 z "},"‡":{"ha":465,"x_min":49,"x_max":417,"o":"m 417 608 l 310 608 l 310 474 l 417 474 l 417 333 l 310 333 l 310 146 l 156 146 l 156 333 l 49 333 l 49 474 l 156 474 l 156 608 l 49 608 l 49 749 l 156 749 l 156 853 l 310 853 l 310 749 l 417 749 l 417 608 z "},"•":{"ha":414,"x_min":50,"x_max":364,"o":"m 364 446 q 317 336 364 382 q 206 290 271 290 q 96 336 142 290 q 50 446 50 382 q 96 558 50 511 q 206 604 142 604 q 317 558 271 604 q 364 446 364 511 z "},"…":{"ha":897,"x_min":44,"x_max":853,"o":"m 261 100 q 229 24 261 56 q 151 -7 197 -7 q 76 24 108 -7 q 44 100 44 56 q 76 178 44 146 q 151 210 107 210 q 229 178 197 210 q 261 100 261 146 m 557 100 q 525 24 557 56 q 447 -7 493 -7 q 372 24 403 -7 q 340 100 340 56 q 372 178 340 146 q 447 210 403 210 q 525 178 493 210 q 557 100 557 146 m 853 100 q 820 25 853 57 q 743 -7 788 -7 q 668 24 700 -7 q 636 100 636 56 q 667 178 636 146 q 743 210 699 210 q 820 178 788 210 q 853 100 853 146 z "},"‰":{"ha":1371,"x_min":50,"x_max":1321,"o":"m 50 679 q 100 846 50 783 q 244 908 150 908 q 389 847 342 908 q 436 679 436 785 q 389 513 436 575 q 244 451 342 451 q 100 514 150 451 q 50 679 50 576 m 192 0 l 68 0 l 761 893 l 883 893 l 192 0 m 342 679 q 244 831 342 831 q 144 679 144 831 q 169 569 144 610 q 244 529 194 529 q 342 679 342 529 m 504 210 q 554 376 504 314 q 699 439 604 439 q 843 377 796 439 q 890 210 890 315 q 843 44 890 106 q 699 -18 796 -18 q 554 44 604 -18 q 504 210 504 107 m 935 210 q 984 376 935 314 q 1128 439 1033 439 q 1274 377 1226 439 q 1321 210 1321 315 q 1274 44 1321 106 q 1128 -18 1226 -18 q 984 44 1033 -18 q 935 210 935 107 m 796 210 q 699 361 796 361 q 599 210 599 361 q 624 100 599 140 q 699 60 649 60 q 796 210 796 60 m 1226 210 q 1128 361 1226 361 q 1029 210 1029 361 q 1128 60 1029 60 q 1226 210 1226 60 z "},"‹":{"ha":586,"x_min":117,"x_max":469,"o":"m 469 581 l 283 318 l 469 53 l 303 53 l 117 318 l 303 581 l 469 581 z "},"›":{"ha":586,"x_min":117,"x_max":469,"o":"m 283 581 l 469 318 l 283 53 l 117 53 l 303 318 l 117 581 l 283 581 z "},"⁄":{"ha":915,"x_min":50,"x_max":865,"o":"m 174 0 l 50 0 l 743 893 l 865 893 l 174 0 z "},"⁰":{"ha":531,"x_min":49,"x_max":483,"o":"m 49 708 q 104 895 49 825 q 265 965 160 965 q 430 897 376 965 q 483 708 483 828 q 430 522 483 592 q 265 453 376 453 q 104 523 160 453 q 49 708 49 593 m 376 708 q 265 879 376 879 q 156 708 156 879 q 265 539 156 539 q 376 708 376 539 z "},"⁴":{"ha":514,"x_min":49,"x_max":465,"o":"m 465 639 l 465 556 l 400 556 l 400 458 l 300 458 l 300 556 l 49 556 l 49 639 l 300 954 l 400 954 l 400 639 l 465 639 m 156 639 l 300 639 l 300 817 l 156 639 z "},"⁵":{"ha":513,"x_min":49,"x_max":464,"o":"m 269 811 q 405 766 346 813 q 464 636 464 719 q 406 501 464 551 q 251 451 349 451 q 154 469 196 451 q 94 511 113 486 q 63 561 75 536 q 50 603 51 586 l 49 621 l 150 621 q 151 612 150 618 q 156 592 151 606 q 171 567 161 578 q 201 547 181 556 q 251 538 222 538 q 361 636 357 538 q 331 713 363 685 q 254 742 299 740 q 190 726 221 743 q 147 676 160 708 l 53 676 l 96 956 l 426 956 l 426 872 l 178 872 l 164 779 q 269 811 207 811 z "},"⁶":{"ha":503,"x_min":46,"x_max":457,"o":"m 400 503 q 373 478 400 503 q 251 453 346 453 q 101 518 157 453 q 49 690 46 583 q 263 965 51 965 q 343 953 308 965 q 396 923 378 940 q 425 888 414 906 q 439 858 436 871 l 442 846 l 335 846 q 330 856 333 850 q 308 873 326 863 q 263 883 289 883 q 200 863 225 883 q 165 811 175 842 q 153 764 156 781 q 150 736 150 747 q 162 752 154 743 q 203 777 169 761 q 281 793 236 793 q 407 747 357 793 q 456 629 457 701 q 400 503 454 553 m 158 629 q 185 563 158 588 q 253 539 213 539 q 325 565 300 539 q 350 631 350 592 q 325 697 351 674 q 256 719 299 719 q 158 629 161 719 z "},"⁷":{"ha":454,"x_min":49,"x_max":404,"o":"m 49 954 l 404 954 l 404 878 q 385 862 397 872 q 342 813 372 851 q 288 731 311 775 q 244 613 264 686 q 224 458 224 539 l 115 458 q 296 871 126 694 l 49 871 l 49 954 z "},"⁸":{"ha":494,"x_min":49,"x_max":447,"o":"m 357 726 q 447 603 447 689 q 394 494 447 535 q 247 453 340 453 q 102 494 156 453 q 49 603 49 535 q 139 725 49 686 q 72 826 72 756 q 120 927 72 889 q 247 965 168 965 q 375 927 328 965 q 422 826 422 889 q 357 726 422 758 m 247 893 q 192 874 214 893 q 171 826 171 854 q 191 777 171 797 q 247 757 211 757 q 306 777 286 757 q 325 826 325 797 q 303 874 325 854 q 247 893 282 893 m 178 557 q 190 545 178 557 q 247 533 203 533 q 317 557 292 533 q 342 614 342 581 q 316 670 342 649 q 247 692 290 692 q 180 670 207 692 q 153 614 153 649 q 178 557 153 581 z "},"⁹":{"ha":503,"x_min":47,"x_max":458,"o":"m 251 964 q 403 899 347 964 q 456 728 458 835 q 242 453 453 453 q 160 465 196 453 q 108 495 125 478 q 79 530 90 513 q 65 560 68 547 l 63 572 l 169 572 q 174 562 171 568 q 197 545 178 556 q 242 535 215 535 q 304 556 279 535 q 339 606 329 576 q 351 654 349 636 q 354 682 354 672 q 342 665 350 675 q 301 640 335 656 q 224 624 268 624 q 97 670 147 624 q 49 789 47 717 q 104 915 50 865 q 251 964 158 964 m 346 789 q 319 854 346 831 q 251 878 293 878 q 179 852 204 878 q 154 786 154 826 q 179 721 153 744 q 249 697 206 697 q 346 789 343 697 z "},"₀":{"ha":524,"x_min":44,"x_max":479,"o":"m 44 150 q 100 337 44 267 q 261 407 156 407 q 426 338 372 407 q 479 150 479 269 q 426 -36 479 33 q 261 -106 372 -106 q 100 -35 156 -106 q 44 150 44 35 m 372 150 q 261 321 372 321 q 151 150 151 321 q 261 -19 151 -19 q 372 150 372 -19 z "},"₁":{"ha":394,"x_min":44,"x_max":350,"o":"m 250 -14 l 350 -14 l 350 -97 l 44 -97 l 44 -14 l 150 -14 l 150 238 q 119 235 131 235 l 44 235 l 44 318 l 119 318 q 150 351 150 318 l 150 399 l 250 399 l 250 -14 z "},"₂":{"ha":478,"x_min":46,"x_max":433,"o":"m 433 250 q 401 163 433 201 q 329 104 369 125 q 242 51 289 83 q 175 -14 196 19 l 433 -14 l 433 -97 l 46 -97 q 74 11 46 -37 q 144 90 103 60 q 228 146 186 121 q 299 197 269 171 q 331 250 329 222 q 247 321 335 321 q 192 301 211 321 q 172 263 172 282 l 171 243 l 63 243 q 63 263 63 253 q 74 302 64 274 q 101 351 83 331 q 156 390 118 372 q 247 407 194 407 q 384 365 335 407 q 433 250 433 324 z "},"₃":{"ha":492,"x_min":44,"x_max":447,"o":"m 446 50 q 390 -60 447 -15 q 244 -106 333 -106 q 150 -90 190 -106 q 91 -50 110 -74 q 60 -3 72 -26 q 47 36 49 21 l 44 53 l 153 53 q 153 45 153 50 q 159 28 154 40 q 173 6 164 15 q 201 -12 182 -4 q 244 -19 219 -19 q 312 1 288 -19 q 339 56 336 21 q 318 111 342 92 q 260 132 294 131 q 192 131 226 133 l 192 200 q 315 267 315 196 q 240 322 315 322 q 182 304 201 322 q 161 268 163 286 l 161 250 l 54 250 q 56 267 54 257 q 67 305 57 278 q 94 353 76 332 q 149 390 111 374 q 240 407 188 407 q 376 365 332 407 q 421 267 421 324 q 357 169 421 199 q 446 50 446 140 z "},"₄":{"ha":507,"x_min":46,"x_max":461,"o":"m 461 83 l 461 0 l 396 0 l 396 -97 l 296 -97 l 296 0 l 46 0 l 46 83 l 296 399 l 396 399 l 396 83 l 461 83 m 151 83 l 296 83 l 296 261 l 151 83 z "},"₅":{"ha":504,"x_min":46,"x_max":460,"o":"m 265 254 q 401 209 342 256 q 460 79 460 163 q 402 -56 460 -6 q 247 -106 344 -106 q 151 -88 192 -106 q 90 -46 110 -71 q 60 4 71 -21 q 47 47 49 29 l 46 64 l 146 64 q 147 55 146 61 q 152 35 147 49 q 167 10 157 21 q 197 -10 176 -1 q 247 -19 218 -19 q 357 79 353 -19 q 326 156 358 128 q 250 185 294 183 q 186 169 217 186 q 143 119 156 151 l 49 119 l 92 399 l 422 399 l 422 315 l 174 315 l 160 222 q 265 254 203 254 z "},"₆":{"ha":496,"x_min":42,"x_max":453,"o":"m 249 -106 q 97 -40 153 -106 q 44 132 42 25 q 258 407 47 407 q 340 394 304 407 q 392 365 375 382 q 421 330 410 347 q 435 300 432 313 l 438 288 l 331 288 q 326 298 329 292 q 303 315 322 304 q 258 325 285 325 q 196 304 221 325 q 161 253 171 283 q 149 206 151 224 q 146 178 146 188 q 158 194 150 185 q 199 219 165 203 q 276 235 232 235 q 403 189 353 235 q 451 71 453 143 q 396 -56 450 -6 q 249 -106 342 -106 m 154 71 q 181 5 154 29 q 249 -19 208 -19 q 321 7 296 -19 q 346 72 346 33 q 321 138 347 115 q 251 161 294 161 q 154 71 157 161 z "},"₇":{"ha":446,"x_min":46,"x_max":401,"o":"m 46 399 l 401 399 l 401 322 q 382 306 394 317 q 338 258 369 296 q 283 175 307 219 q 240 57 260 131 q 219 -97 219 -17 l 111 -97 q 292 315 122 139 l 46 315 l 46 399 z "},"₈":{"ha":488,"x_min":44,"x_max":443,"o":"m 353 167 q 443 44 443 131 q 390 -65 443 -24 q 243 -106 336 -106 q 98 -65 151 -106 q 44 44 44 -24 q 135 167 44 128 q 68 268 68 197 q 116 369 68 331 q 243 407 164 407 q 371 369 324 407 q 418 268 418 331 q 353 167 418 197 m 243 335 q 188 315 210 335 q 167 268 167 296 q 187 219 167 239 q 243 199 207 199 q 301 219 282 199 q 321 268 321 239 q 299 315 321 296 q 243 335 278 335 m 174 -1 q 186 -13 174 -1 q 243 -25 199 -25 q 313 -1 288 -25 q 338 56 338 22 q 312 112 338 90 q 243 133 286 133 q 176 112 203 133 q 149 56 149 90 q 174 -1 149 22 z "},"₉":{"ha":496,"x_min":43,"x_max":454,"o":"m 100 358 q 127 382 100 358 q 249 407 154 407 q 399 342 343 407 q 451 171 454 278 q 238 -104 449 -104 q 157 -92 192 -104 q 104 -62 122 -79 q 75 -27 86 -44 q 61 3 64 -10 l 58 15 l 165 15 q 170 5 167 11 q 192 -12 174 -1 q 238 -22 211 -22 q 300 -1 275 -22 q 335 50 325 19 q 347 97 344 81 q 350 125 350 114 q 338 108 346 118 q 297 83 331 99 q 221 67 264 67 q 93 113 143 67 q 44 232 43 160 q 100 358 46 308 m 342 232 q 315 297 342 274 q 247 321 289 321 q 175 295 200 321 q 150 229 150 269 q 175 164 149 188 q 244 140 201 140 q 342 232 339 140 z "},"€":{"ha":1058,"x_min":50,"x_max":1031,"o":"m 143 401 q 142 446 142 415 q 143 478 142 467 l 50 478 l 50 618 l 167 618 q 324 831 211 754 q 606 907 438 907 q 753 890 686 907 q 863 847 821 874 q 939 788 906 819 q 989 723 972 756 q 1015 663 1006 690 q 1028 619 1025 636 l 1031 603 l 838 603 q 833 619 836 608 q 815 655 831 629 q 776 701 799 681 q 708 737 753 721 q 606 753 663 753 q 372 618 440 753 l 653 618 l 653 478 l 336 478 q 335 446 335 467 q 338 401 335 429 l 653 401 l 653 263 l 379 263 q 606 140 453 140 q 705 156 661 140 q 772 193 749 171 q 810 238 794 215 q 829 275 825 260 l 833 290 l 1025 290 q 1023 273 1025 283 q 1010 231 1021 263 q 985 170 1000 199 q 937 106 969 142 q 862 46 904 71 q 753 3 819 21 q 606 -14 686 -14 q 324 59 435 -14 q 169 263 213 132 l 50 263 l 50 401 l 143 401 z "},"₿":{"ha":869,"x_min":50,"x_max":835,"o":"m 50 893 l 182 893 l 182 1010 l 351 1010 l 351 893 l 413 893 l 413 1010 l 582 1010 l 582 882 q 790 649 790 842 q 672 482 790 538 q 835 261 835 421 q 769 97 835 164 q 582 8 704 29 l 582 -112 l 413 -112 l 413 0 l 351 0 l 351 -112 l 182 -112 l 182 0 l 50 0 l 50 893 m 231 385 l 231 150 l 463 150 q 642 269 642 150 q 595 359 642 333 q 461 385 549 385 l 231 385 m 453 536 q 573 558 531 536 q 615 638 615 581 q 446 743 615 743 l 231 743 l 231 536 l 453 536 z "},"™":{"ha":686,"x_min":49,"x_max":638,"o":"m 311 618 l 311 892 l 371 892 l 475 669 l 578 892 l 638 892 l 638 618 l 582 618 l 582 794 l 501 618 l 447 618 l 367 794 l 367 618 l 311 618 m 49 892 l 286 892 l 286 846 l 196 846 l 196 618 l 140 618 l 140 846 l 49 846 l 49 892 z "},"⅛":{"ha":1025,"x_min":50,"x_max":975,"o":"m 50 397 l 50 481 l 156 481 l 156 731 q 125 728 136 728 l 50 728 l 50 813 l 125 813 q 156 844 156 813 l 156 893 l 256 893 l 256 481 l 356 481 l 356 397 l 50 397 m 810 893 l 932 893 l 240 0 l 117 0 l 810 893 m 886 264 q 975 142 975 228 q 922 33 975 74 q 778 -8 869 -8 q 631 33 685 -8 q 578 142 578 74 q 668 264 578 225 q 601 365 601 294 q 649 466 601 428 q 778 504 697 504 q 904 466 857 504 q 951 365 951 428 q 886 264 951 296 m 778 432 q 722 413 743 432 q 700 365 700 393 q 719 316 700 336 q 778 296 739 296 q 833 316 814 296 q 853 365 853 336 q 832 413 853 393 q 778 432 811 432 m 778 74 q 846 97 821 74 q 871 153 871 119 q 845 208 871 188 q 778 229 819 229 q 709 208 736 229 q 682 153 682 188 q 708 97 682 119 q 778 74 733 74 z "},"⅜":{"ha":1079,"x_min":50,"x_max":1029,"o":"m 451 539 q 396 428 453 474 q 250 383 339 383 q 156 399 196 383 q 97 439 115 415 q 66 486 78 463 q 53 525 54 510 l 50 542 l 157 542 q 158 534 157 539 q 164 517 158 529 q 178 494 169 504 q 206 477 188 485 q 250 469 225 469 q 318 490 293 469 q 344 544 343 511 q 323 600 346 581 q 266 620 300 619 q 197 619 232 621 l 197 689 q 321 757 321 683 q 246 811 321 811 q 188 793 207 811 q 167 757 168 775 l 167 739 l 60 739 q 61 756 60 746 q 72 794 63 767 q 99 842 82 821 q 155 879 117 863 q 246 896 193 896 q 382 855 338 896 q 426 757 426 814 q 363 660 426 689 q 451 539 451 628 m 861 893 l 983 893 l 292 0 l 168 0 l 861 893 m 939 265 q 1029 142 1029 228 q 976 33 1029 74 q 831 -8 922 -8 q 684 33 738 -8 q 631 142 631 74 q 721 264 631 225 q 654 365 654 294 q 702 466 654 428 q 831 504 750 504 q 958 466 910 504 q 1006 365 1006 428 q 939 265 1006 294 m 831 432 q 774 413 796 432 q 753 365 753 393 q 773 316 753 336 q 831 296 793 296 q 887 316 868 296 q 906 365 906 336 q 885 413 906 393 q 831 432 864 432 m 831 74 q 899 97 874 74 q 924 153 924 119 q 898 208 924 188 q 831 229 872 229 q 763 208 789 229 q 736 153 736 188 q 761 97 736 119 q 831 74 786 74 z "},"⅝":{"ha":1063,"x_min":50,"x_max":1013,"o":"m 465 574 q 408 439 465 489 q 253 389 350 389 q 156 406 197 389 q 95 449 114 424 q 65 499 76 474 q 51 542 53 524 l 50 558 l 151 558 q 152 549 151 556 q 158 529 153 543 q 172 504 163 515 q 203 484 182 493 q 253 475 224 475 q 333 501 306 475 q 363 574 360 528 q 332 650 364 622 q 256 679 300 678 q 192 663 222 681 q 149 614 161 646 l 54 614 l 97 893 l 428 893 l 428 810 l 179 810 l 165 717 q 271 749 208 749 q 406 703 347 750 q 465 574 465 657 m 849 893 l 971 893 l 279 0 l 156 0 l 849 893 m 924 265 q 1013 142 1013 228 q 960 33 1013 74 q 815 -8 907 -8 q 669 33 722 -8 q 615 142 615 74 q 706 264 615 225 q 639 365 639 294 q 687 466 639 428 q 815 504 735 504 q 942 466 894 504 q 989 365 989 428 q 924 265 989 294 m 815 432 q 759 413 781 432 q 738 365 738 393 q 757 316 738 336 q 815 296 776 296 q 871 316 851 296 q 890 365 890 336 q 869 413 890 393 q 815 432 849 432 m 815 74 q 883 97 858 74 q 908 153 908 119 q 883 208 908 188 q 815 229 857 229 q 747 208 774 229 q 719 153 719 188 q 745 97 719 119 q 815 74 771 74 z "},"⅞":{"ha":961,"x_min":50,"x_max":910,"o":"m 743 893 l 865 893 l 174 0 l 50 0 l 743 893 m 158 396 q 339 808 169 632 l 92 808 l 92 892 l 449 892 l 449 815 q 429 799 442 810 q 385 751 417 789 q 330 668 354 713 q 285 550 306 624 q 265 396 265 476 l 158 396 m 821 265 q 910 142 910 228 q 857 33 910 74 q 713 -8 804 -8 q 566 33 619 -8 q 513 142 513 74 q 603 264 513 225 q 536 365 536 294 q 584 466 536 428 q 713 504 632 504 q 839 466 792 504 q 886 365 886 428 q 821 265 886 294 m 713 432 q 656 413 678 432 q 635 365 635 393 q 654 316 635 336 q 713 296 674 296 q 768 316 749 296 q 788 365 788 336 q 767 413 788 393 q 713 432 746 432 m 713 74 q 781 97 756 74 q 806 153 806 119 q 780 208 806 188 q 713 229 754 229 q 644 208 671 229 q 617 153 617 188 q 642 97 617 119 q 713 74 668 74 z "},"←":{"ha":1149,"x_min":117,"x_max":1032,"o":"m 1032 397 l 1032 258 l 365 258 l 540 90 l 449 -3 l 117 328 l 449 658 l 542 564 l 367 397 l 1032 397 z "},"↑":{"ha":761,"x_min":50,"x_max":711,"o":"m 711 583 l 618 492 l 454 661 l 454 0 l 307 0 l 307 661 l 143 490 l 50 583 l 381 914 l 711 583 z "},"→":{"ha":1149,"x_min":117,"x_max":1032,"o":"m 700 658 l 1032 328 l 700 -3 l 608 90 l 783 258 l 117 258 l 117 397 l 782 397 l 607 564 l 700 658 z "},"↓":{"ha":761,"x_min":50,"x_max":711,"o":"m 618 403 l 711 311 l 381 -19 l 50 311 l 143 404 l 307 233 l 307 894 l 454 894 l 454 233 l 618 403 z "},"↔":{"ha":1308,"x_min":117,"x_max":1192,"o":"m 860 658 l 1192 328 l 860 -3 l 768 90 l 943 258 l 365 258 l 540 90 l 449 -3 l 117 328 l 449 658 l 542 564 l 367 397 l 942 397 l 767 564 l 860 658 z "},"↕":{"ha":761,"x_min":50,"x_max":711,"o":"m 450 186 l 618 361 l 711 268 l 381 -62 l 50 268 l 143 361 l 310 188 l 310 701 l 143 528 l 50 621 l 381 951 l 711 621 l 618 529 l 450 703 l 450 186 z "},"↖":{"ha":796,"x_min":50,"x_max":746,"o":"m 746 85 l 647 -14 l 176 457 l 182 215 l 50 214 l 50 682 l 518 682 l 518 549 l 276 554 l 746 85 z "},"↗":{"ha":796,"x_min":50,"x_max":746,"o":"m 278 682 l 746 682 l 746 214 l 614 215 l 619 457 l 149 -14 l 50 85 l 519 554 l 278 549 l 278 682 z "},"↘":{"ha":796,"x_min":50,"x_max":746,"o":"m 614 467 l 746 468 l 746 0 l 278 1 l 278 133 l 519 128 l 50 597 l 149 696 l 619 225 l 614 467 z "},"↙":{"ha":796,"x_min":50,"x_max":746,"o":"m 746 597 l 276 128 l 518 133 l 518 1 l 50 0 l 50 468 l 182 467 l 176 225 l 647 696 l 746 597 z "},"∂":{"ha":788,"x_min":28,"x_max":760,"o":"m 388 -15 q 662 99 564 -15 q 760 403 760 213 q 615 763 760 615 q 244 908 469 910 l 243 771 q 482 680 383 772 q 581 497 581 588 q 573 508 578 501 q 549 533 568 515 q 505 563 529 550 q 438 588 481 576 q 346 599 396 599 q 117 515 207 599 q 28 301 28 432 q 124 74 28 164 q 388 -15 219 -15 m 564 299 q 513 176 564 224 q 388 129 461 129 q 260 179 304 129 q 215 301 215 229 q 264 421 215 376 q 388 465 313 465 q 517 422 471 465 q 564 299 564 378 z "},"∅":{"ha":988,"x_min":28,"x_max":960,"o":"m 858 733 q 960 443 960 608 q 824 114 960 250 q 494 -22 688 -22 q 204 79 332 -22 l 115 -11 l 40 67 l 128 154 q 28 443 28 281 q 165 773 28 636 q 494 910 301 910 q 783 808 658 910 l 874 899 l 949 824 l 858 733 m 147 443 q 213 239 147 333 l 701 726 q 494 794 610 794 q 249 691 350 794 q 147 443 147 588 m 494 93 q 741 197 639 93 q 843 443 843 300 q 776 650 843 558 l 289 163 q 494 93 381 93 z "},"∏":{"ha":850,"x_min":50,"x_max":800,"o":"m 800 893 l 800 753 l 713 753 l 713 0 l 556 0 l 556 753 l 296 753 l 296 0 l 139 0 l 139 753 l 50 753 l 50 893 l 800 893 z "},"∑":{"ha":667,"x_min":50,"x_max":618,"o":"m 618 893 l 618 753 l 225 753 l 450 450 l 225 140 l 618 140 l 618 0 l 50 0 l 50 140 l 276 450 l 50 753 l 50 893 l 618 893 z "},"−":{"ha":758,"x_min":117,"x_max":640,"o":"m 640 333 l 117 333 l 117 474 l 640 474 l 640 333 z "},"√":{"ha":786,"x_min":50,"x_max":736,"o":"m 661 1033 l 736 1033 l 736 893 l 656 893 q 603 856 611 893 l 389 0 l 175 0 l 50 486 l 218 486 l 282 201 l 439 878 q 506 998 453 963 q 661 1033 558 1033 z "},"∞":{"ha":1575,"x_min":24,"x_max":1551,"o":"m 1142 640 q 1440 560 1328 650 q 1551 315 1551 471 q 1439 65 1551 160 q 1142 -18 1326 -29 q 788 174 953 -7 q 433 -18 622 -7 q 136 65 249 -29 q 24 315 24 160 q 135 560 24 471 q 433 640 247 650 q 788 440 628 629 q 1142 640 947 629 m 433 118 q 525 140 481 119 q 600 187 569 160 q 655 241 631 214 q 690 286 679 268 l 701 306 q 690 326 697 314 q 656 373 682 339 q 600 433 629 407 q 526 481 571 458 q 433 504 481 503 q 258 455 322 510 q 194 315 194 400 q 260 174 194 236 q 433 118 325 113 m 1142 118 q 1315 174 1250 113 q 1381 315 1381 236 q 1317 455 1381 400 q 1142 504 1253 510 q 1050 482 1094 503 q 975 432 1006 461 q 920 374 944 403 q 885 325 896 346 l 874 306 q 885 286 878 299 q 919 242 893 274 q 975 185 946 210 q 1049 140 1004 161 q 1142 118 1094 119 z "},"∫":{"ha":629,"x_min":50,"x_max":579,"o":"m 504 893 l 579 893 l 579 753 l 499 753 q 446 715 454 753 l 365 254 l 349 156 q 283 33 332 67 q 132 0 233 0 l 50 0 l 50 140 l 131 140 q 183 178 175 140 l 276 714 l 281 738 q 348 858 296 824 q 504 893 400 893 z "},"≈":{"ha":890,"x_min":117,"x_max":774,"o":"m 671 674 l 774 674 q 717 517 774 582 q 574 451 660 451 q 437 497 507 451 q 328 542 367 542 q 255 519 282 542 q 224 475 228 497 l 219 454 l 117 454 q 174 611 117 546 q 317 676 231 676 q 456 631 383 676 q 563 586 528 586 q 635 608 608 586 q 667 653 663 631 l 671 674 m 671 381 l 774 381 q 717 224 774 289 q 574 160 660 160 q 437 205 507 160 q 328 250 367 250 q 255 228 282 250 q 224 183 228 206 l 219 163 l 117 163 q 174 319 117 254 q 317 383 231 383 q 456 338 383 383 q 563 293 528 293 q 635 315 608 293 q 667 358 663 338 l 671 381 z "},"≠":{"ha":758,"x_min":117,"x_max":640,"o":"m 640 457 l 471 457 l 393 346 l 640 346 l 640 207 l 297 207 l 249 136 l 133 136 l 182 207 l 117 207 l 117 346 l 278 346 l 356 457 l 117 457 l 117 596 l 451 596 l 508 679 l 624 679 l 567 596 l 640 596 l 640 457 z "},"≤":{"ha":758,"x_min":117,"x_max":640,"o":"m 640 754 l 640 615 l 285 503 l 640 389 l 640 250 l 117 419 l 117 585 l 640 754 m 117 60 l 117 200 l 640 200 l 640 60 l 117 60 z "},"≥":{"ha":758,"x_min":117,"x_max":640,"o":"m 117 754 l 640 585 l 640 419 l 117 250 l 117 389 l 472 503 l 117 615 l 117 754 m 117 60 l 117 200 l 640 200 l 640 60 l 117 60 z "},"◊":{"ha":661,"x_min":50,"x_max":611,"o":"m 414 893 l 611 447 l 414 0 l 247 0 l 50 447 l 247 893 l 414 893 m 331 132 l 460 447 l 331 761 l 201 447 l 331 132 z "},"☁":{"ha":1888,"x_min":139,"x_max":1749,"o":"m 1749 372 q 1647 116 1749 224 q 1397 0 1544 8 l 446 0 q 229 90 319 0 q 139 307 139 181 q 229 524 139 433 q 446 614 319 614 q 536 600 494 614 q 681 828 568 738 q 938 918 793 918 q 1135 868 1044 918 q 1282 733 1225 818 q 1376 746 1326 746 q 1640 636 1531 746 q 1749 372 1749 526 z "},"☂":{"ha":1279,"x_min":139,"x_max":1140,"o":"m 661 856 q 838 829 758 853 q 966 769 918 806 q 1050 690 1014 733 q 1103 603 1086 646 q 1128 526 1119 561 q 1139 468 1138 490 l 1140 446 l 1133 446 q 1007 506 1085 506 q 885 451 935 506 q 763 506 835 506 q 661 471 704 506 l 661 99 q 633 22 661 50 q 557 -7 606 -7 q 483 18 513 -7 q 451 99 451 47 l 493 99 q 557 35 493 35 q 619 99 619 35 l 619 471 q 518 506 576 506 q 394 451 444 506 q 272 506 347 506 q 146 446 194 506 l 139 446 q 140 469 139 454 q 151 525 142 483 q 176 604 160 567 q 229 689 193 642 q 314 770 265 736 q 442 828 363 804 q 619 856 521 853 l 619 893 l 661 893 l 661 856 z "},"☼":{"ha":1225,"x_min":139,"x_max":1086,"o":"m 1086 425 l 890 425 q 824 265 883 332 l 963 126 l 933 97 l 794 235 q 633 169 725 175 l 633 -28 l 592 -28 l 592 169 q 431 236 500 176 l 292 97 l 263 126 l 401 265 q 336 425 343 333 l 139 425 l 139 467 l 336 467 q 401 628 342 558 l 263 767 l 292 796 l 431 657 q 592 724 500 717 l 592 919 l 633 919 l 633 724 q 794 657 728 717 l 933 796 l 963 767 l 824 628 q 890 467 883 561 l 1086 467 l 1086 425 z "},"♥":{"ha":1378,"x_min":139,"x_max":1239,"o":"m 951 907 q 1160 825 1081 907 q 1239 597 1239 743 q 1182 399 1239 499 q 1044 229 1125 300 q 883 101 964 158 q 746 15 803 44 l 689 -14 q 658 2 678 -8 q 581 47 638 13 q 472 117 524 81 q 356 210 419 153 q 247 324 293 267 q 170 453 201 381 q 139 597 139 526 q 218 826 139 744 q 426 907 297 907 q 518 891 474 907 q 592 852 563 875 q 644 806 621 829 q 678 767 668 783 l 689 751 q 701 769 693 758 q 734 806 708 779 q 788 853 760 832 q 861 890 817 874 q 951 907 906 907 z "},"⛆":{"ha":1375,"x_min":139,"x_max":1236,"o":"m 982 696 q 1162 622 1088 696 q 1236 442 1236 547 q 1167 267 1236 340 q 997 188 1097 194 l 969 188 l 940 115 q 913 104 931 97 q 901 132 893 111 l 925 188 l 804 188 l 774 115 q 747 104 767 96 q 736 132 726 113 l 758 188 l 639 188 l 608 115 q 581 104 601 96 q 569 132 563 113 l 593 188 l 472 188 l 443 115 q 415 104 433 97 q 404 132 396 111 l 428 188 l 349 188 q 201 249 263 188 q 139 397 139 310 q 201 544 139 483 q 349 606 263 606 q 410 597 381 606 q 508 751 432 690 q 683 813 585 813 q 817 778 756 813 q 918 688 879 744 q 982 696 950 696 m 994 229 q 1137 296 1079 235 q 1194 442 1194 357 q 1132 592 1194 529 q 982 654 1072 654 q 929 647 957 654 l 900 639 l 883 664 q 797 743 850 715 q 683 771 744 771 q 603 757 640 771 q 533 719 564 744 q 450 588 469 668 l 440 544 l 397 557 q 349 564 372 564 q 229 515 278 564 q 181 397 181 464 q 229 278 181 329 q 349 229 278 229 l 994 229 m 506 103 q 517 75 525 96 l 485 0 q 458 -11 476 -19 q 447 17 438 -3 l 478 92 q 506 103 485 111 m 671 103 q 682 75 690 96 l 651 0 q 624 -11 642 -18 q 613 17 604 -4 l 644 92 q 671 103 651 111 m 838 103 q 849 75 856 94 l 817 0 q 789 -11 808 -18 q 778 17 771 -3 l 810 92 q 838 103 817 111 z "},"⛰":{"ha":1507,"x_min":139,"x_max":1368,"o":"m 835 918 l 1368 0 l 139 0 l 510 638 l 593 504 l 835 918 m 706 614 l 788 653 l 915 583 l 963 614 l 835 836 l 706 614 z "}}}
